<svg width="43" height="15" viewBox="0 0 43 15" fill="none" xmlns="http://www.w3.org/2000/svg">
<path d="M5.05938 8.34375C4.93958 8.32292 4.87969 8.26823 4.87969 8.17969L4.91094 6.78906C4.91094 6.6849 4.97865 6.6276 5.11406 6.61719L8.91875 6.36719C9.11146 6.3776 9.21302 6.48698 9.22344 6.69531L9.18438 8.03906C9.18438 8.09635 9.16875 8.14062 9.1375 8.17188C9.10625 8.20312 9.075 8.21875 9.04375 8.21875L8.6375 8.23438L8.77813 12.8828C8.76771 13.0286 8.7 13.1016 8.575 13.1016C8.28333 13.1016 7.79115 12.9219 7.09844 12.5625C6.39531 12.9688 5.6349 13.1719 4.81719 13.1719C4.00469 13.1719 3.31198 13.0521 2.73906 12.8125C2.16615 12.5677 1.68698 12.1875 1.30156 11.6719C0.509897 10.6302 0.114063 9.01562 0.114063 6.82812C0.114063 3.77604 0.973438 1.92708 2.69219 1.28125C3.23906 1.07292 3.85104 0.96875 4.52813 0.96875C5.49688 0.96875 6.29115 1.22135 6.91094 1.72656L7.06719 0.78125C7.08281 0.651042 7.1401 0.583333 7.23906 0.578125L8.46563 0.46875C8.59063 0.46875 8.65313 0.528646 8.65313 0.648438L8.73906 3.50781C8.73906 3.60677 8.68698 3.66406 8.58281 3.67969L7.09844 3.88281C6.78073 3.46094 6.49948 3.17448 6.25469 3.02344C5.81719 2.7526 5.36667 2.61719 4.90313 2.61719C4.43958 2.61719 4.0151 2.68229 3.62969 2.8125C3.24948 2.94271 2.92396 3.16927 2.65313 3.49219C2.08542 4.16927 1.80156 5.29167 1.80156 6.85938C1.80156 9.38542 2.43698 10.862 3.70781 11.2891C4.10885 11.4245 4.59844 11.4922 5.17656 11.4922C5.75469 11.4922 6.36146 11.3776 6.99688 11.1484L6.95781 8.28906L5.05938 8.34375ZM16.9078 2.71875C16.8141 2.71875 16.7672 2.66146 16.7672 2.54688L16.8922 1.09375C16.8974 1.00521 16.9599 0.950521 17.0797 0.929688L20.3375 0.992188C20.4313 1.0026 20.4781 1.0625 20.4781 1.17188L20.5016 2.57031C20.5016 2.6849 20.4417 2.74219 20.3219 2.74219L19.4547 2.73438L16.2516 7.28125L19.1734 11.2656L20.5172 11.3594C20.6891 11.3698 20.775 11.4583 20.775 11.625L20.7828 12.7734C20.7828 12.9974 20.6865 13.1146 20.4938 13.125L18.4469 13.1797C18.3323 13.1693 18.2411 13.1172 18.1734 13.0234L14.9391 8.07812L13.9938 8.10938V11.2812H14.8063C14.8896 11.2812 14.9313 11.3307 14.9313 11.4297L14.9859 12.8984C14.9755 13.0026 14.913 13.0547 14.7984 13.0547L11.1734 13.0312C11.0849 13.0312 11.038 12.9688 11.0328 12.8438L10.9703 11.3047C10.9807 11.2214 11.0224 11.1719 11.0953 11.1562L12.2438 11.2266V2.6875L11.1266 2.79688C11.0693 2.79688 11.0328 2.78385 11.0172 2.75781C11.0016 2.73177 10.9911 2.6875 10.9859 2.625L10.8766 1.09375C10.887 0.984375 10.9495 0.929688 11.0641 0.929688L14.7906 0.914062C14.8479 0.919271 14.8844 0.934896 14.9 0.960938C14.9156 0.981771 14.926 1.02604 14.9313 1.09375L14.7984 2.57031C14.7828 2.6849 14.7229 2.74219 14.6188 2.74219L13.9938 2.70312V6.76562L14.9781 6.70312L17.6266 2.72656L16.9078 2.71875ZM26.4125 2.72656C26.6365 5.2526 26.7484 7.7474 26.7484 10.2109C26.7484 11.4922 26.5167 12.3958 26.0531 12.9219C25.6052 13.4375 24.8474 13.6953 23.7797 13.6953C23.6911 13.6953 23.6052 13.6901 23.5219 13.6797L23.2641 13.6484L23.3266 14.0703C23.3266 14.1536 23.2667 14.2005 23.1469 14.2109L21.9516 14.3281C21.7536 14.3281 21.6443 14.2266 21.6234 14.0234L21.4047 10.6094C21.4151 10.4896 21.4724 10.4219 21.5766 10.4062L22.6625 10.2969C22.751 10.2969 22.8057 10.3568 22.8266 10.4766L23.0688 12.2578C23.2094 12.2995 23.3891 12.3203 23.6078 12.3203C23.8318 12.3203 24.0427 12.2734 24.2406 12.1797C24.4385 12.0859 24.5974 11.9375 24.7172 11.7344C24.9464 11.3385 25.0609 10.6771 25.0609 9.75C25.0609 8.45833 25.0141 7.14844 24.9203 5.82031L24.7016 2.76562L23.0844 2.85938C23.001 2.85938 22.9594 2.8099 22.9594 2.71094L22.9047 1.24219C22.9099 1.17969 22.9255 1.14062 22.9516 1.125C22.9776 1.10417 23.0245 1.09115 23.0922 1.08594L27.4828 0.953125C27.5661 0.953125 27.613 1.01562 27.6234 1.14062L27.6859 2.60156C27.6755 2.6849 27.6339 2.73438 27.5609 2.75L26.4125 2.72656ZM28.6125 2.88281C28.4667 2.88281 28.3938 2.79948 28.3938 2.63281L28.4719 1.32031C28.4771 1.23177 28.4953 1.17708 28.5266 1.15625C28.563 1.13021 28.6255 1.11458 28.7141 1.10938L32.3313 0.953125C32.4198 0.958333 32.4719 0.981771 32.4875 1.02344C32.5031 1.0599 32.5135 1.11458 32.5188 1.1875L32.5969 2.48438C32.5865 2.57292 32.5656 2.63281 32.5344 2.66406C32.5031 2.6901 32.4458 2.70312 32.3625 2.70312L31.1047 2.6875L32.8703 10.4766L34.7453 1.35156C34.7609 1.2474 34.8234 1.19271 34.9328 1.1875L36.1125 1.10156C36.2219 1.11198 36.287 1.17188 36.3078 1.28125L38.3625 10.5078L39.9172 2.66406L38.7141 2.63281C38.6516 2.63281 38.6073 2.61979 38.5813 2.59375C38.5604 2.56771 38.5448 2.52083 38.5344 2.45312L38.5734 1.1875C38.5839 1.04167 38.662 0.963542 38.8078 0.953125L42.2922 1.05469C42.4068 1.0651 42.4641 1.14844 42.4641 1.30469L42.3859 2.53125C42.3807 2.61458 42.3625 2.67188 42.3313 2.70312C42.3 2.73438 42.2401 2.7526 42.1516 2.75781L41.4016 2.72656L38.9641 12.8359C38.9432 12.9349 38.8807 12.9896 38.7766 13L37.55 13.0625C37.4406 13.0521 37.3755 12.9922 37.3547 12.8828L35.425 4.5625L33.6047 12.8359C33.5839 12.9349 33.5214 12.9896 33.4172 13L32.1125 13.0625C32.0188 13.0573 31.9536 12.9974 31.9172 12.8828L29.3469 2.8125L28.6125 2.88281Z" fill="black"/>
</svg>
