<svg width="62" height="13" viewBox="0 0 62 13" fill="none" xmlns="http://www.w3.org/2000/svg">
<path d="M0.7675 12.5V1.3H3.1515V4.5H3.3115L3.9675 1.3H6.3675V1.62L4.7675 6.164V6.404L6.3675 12.18V12.5H3.9675L3.3115 9.044H3.1515V12.5H0.7675ZM9.86125 12.66C9.34925 12.66 8.87992 12.5373 8.45325 12.292C8.02658 12.036 7.68525 11.7 7.42925 11.284C7.18392 10.8573 7.06125 10.3827 7.06125 9.86V3.94C7.06125 3.41733 7.18392 2.948 7.42925 2.532C7.68525 2.10533 8.02658 1.76933 8.45325 1.524C8.87992 1.268 9.34925 1.14 9.86125 1.14C10.3733 1.14 10.8426 1.268 11.2693 1.524C11.6959 1.76933 12.0319 2.10533 12.2773 2.532C12.5333 2.948 12.6613 3.41733 12.6613 3.94V9.86C12.6613 10.3827 12.5333 10.8573 12.2773 11.284C12.0319 11.7 11.6959 12.036 11.2693 12.292C10.8426 12.5373 10.3733 12.66 9.86125 12.66ZM9.86125 10.548C9.97858 10.548 10.0746 10.5107 10.1493 10.436C10.2239 10.3507 10.2613 10.2547 10.2613 10.148V3.636C10.2613 3.51867 10.2239 3.42267 10.1493 3.348C10.0746 3.26267 9.97858 3.22 9.86125 3.22C9.74392 3.22 9.64258 3.26267 9.55725 3.348C9.48258 3.42267 9.44525 3.51867 9.44525 3.636V10.148C9.44525 10.2547 9.48258 10.3507 9.55725 10.436C9.64258 10.5107 9.74392 10.548 9.86125 10.548ZM13.6831 12.5V1.3H16.1631C16.7391 1.3 17.2618 1.43867 17.7311 1.716C18.2005 1.99333 18.5738 2.36667 18.8511 2.836C19.1391 3.30533 19.2831 3.828 19.2831 4.404V6.324C19.2831 6.9 19.1391 7.42267 18.8511 7.892C18.5738 8.36133 18.2005 8.73467 17.7311 9.012C17.2618 9.28933 16.7391 9.428 16.1631 9.428H16.0671V12.5H13.6831ZM16.0671 7.348H16.1151C16.2538 7.348 16.3818 7.332 16.4991 7.3C16.6165 7.268 16.7071 7.17733 16.7711 7.028C16.8458 6.87867 16.8831 6.628 16.8831 6.276V4.468C16.8831 4.10533 16.8458 3.84933 16.7711 3.7C16.7071 3.55067 16.6165 3.46 16.4991 3.428C16.3818 3.396 16.2538 3.38 16.1151 3.38H16.0671V7.348ZM19.9613 0.82V0.115999H22.3773V0.82H19.9613ZM19.9613 12.5V1.3H22.3773V12.5H19.9613ZM23.5362 12.5V1.3H26.3362C26.8589 1.3 27.3282 1.428 27.7442 1.684C28.1709 1.92933 28.5069 2.26533 28.7522 2.692C29.0082 3.108 29.1363 3.57733 29.1363 4.1V9.7C29.1363 10.2227 29.0082 10.6973 28.7522 11.124C28.5069 11.54 28.1709 11.876 27.7442 12.132C27.3282 12.3773 26.8589 12.5 26.3362 12.5H23.5362ZM25.9202 10.436H26.3682C26.4749 10.436 26.5602 10.3987 26.6242 10.324C26.6989 10.2493 26.7362 10.164 26.7362 10.068V3.748C26.7362 3.652 26.6989 3.56667 26.6242 3.492C26.5602 3.41733 26.4749 3.38 26.3682 3.38H25.9202V10.436ZM32.5608 12.66C32.0488 12.66 31.6008 12.5373 31.2168 12.292C30.8434 12.036 30.5554 11.7 30.3528 11.284C30.1501 10.8573 30.0488 10.3827 30.0488 9.86V8.292C30.0488 7.78 30.1714 7.31067 30.4168 6.884C30.6728 6.45733 31.0141 6.12133 31.4408 5.876C31.8674 5.62 32.3368 5.492 32.8488 5.492H33.2808V3.444C33.2808 3.32667 33.2381 3.23067 33.1528 3.156C33.0674 3.07067 32.9661 3.028 32.8488 3.028C32.7421 3.028 32.6461 3.07067 32.5608 3.156C32.4754 3.23067 32.4328 3.32667 32.4328 3.444V5.076H30.0488V3.94C30.0488 3.41733 30.1714 2.948 30.4168 2.532C30.6728 2.10533 31.0141 1.76933 31.4408 1.524C31.8674 1.268 32.3368 1.14 32.8488 1.14C33.3714 1.14 33.8408 1.268 34.2568 1.524C34.6834 1.76933 35.0194 2.10533 35.2648 2.532C35.5208 2.948 35.6488 3.41733 35.6488 3.94V12.5H33.9688V11.94H33.8088C33.7021 12.1747 33.5261 12.356 33.2808 12.484C33.0354 12.6013 32.7954 12.66 32.5608 12.66ZM32.8488 10.436C32.9661 10.436 33.0674 10.3987 33.1528 10.324C33.2381 10.2387 33.2808 10.1373 33.2808 10.02V7.732H32.8488C32.7421 7.732 32.6461 7.77467 32.5608 7.86C32.4754 7.93467 32.4328 8.03067 32.4328 8.148V10.02C32.4328 10.1373 32.4754 10.2387 32.5608 10.324C32.6461 10.3987 32.7421 10.436 32.8488 10.436ZM36.8113 12.5V1.3H38.7153V1.86H38.8753C38.9286 1.65733 39.0779 1.48667 39.3233 1.348C39.5793 1.20933 39.8566 1.14 40.1553 1.14C40.4753 1.14 40.7526 1.21467 40.9873 1.364C41.2219 1.50267 41.3766 1.668 41.4513 1.86H41.6113C41.7179 1.7 41.8726 1.54 42.0753 1.38C42.2779 1.22 42.5979 1.14 43.0353 1.14C43.5686 1.14 43.9899 1.316 44.2993 1.668C44.6193 2.02 44.7793 2.54267 44.7793 3.236V12.5H42.4273V3.604C42.4273 3.54 42.4006 3.48667 42.3473 3.444C42.3046 3.39067 42.2513 3.364 42.1873 3.364C42.1233 3.364 42.0646 3.39067 42.0113 3.444C41.9686 3.48667 41.9473 3.54 41.9473 3.604V12.5H39.6273V3.636C39.6273 3.46533 39.5473 3.38 39.3873 3.38C39.2273 3.38 39.1473 3.46533 39.1473 3.636V12.5H36.8113ZM45.9331 12.5V1.3H48.4131C48.9891 1.3 49.5118 1.43867 49.9811 1.716C50.4505 1.99333 50.8238 2.36667 51.1011 2.836C51.3891 3.30533 51.5331 3.828 51.5331 4.404V6.324C51.5331 6.9 51.3891 7.42267 51.1011 7.892C50.8238 8.36133 50.4505 8.73467 49.9811 9.012C49.5118 9.28933 48.9891 9.428 48.4131 9.428H48.3171V12.5H45.9331ZM48.3171 7.348H48.3651C48.5038 7.348 48.6318 7.332 48.7491 7.3C48.8665 7.268 48.9571 7.17733 49.0211 7.028C49.0958 6.87867 49.1331 6.628 49.1331 6.276V4.468C49.1331 4.10533 49.0958 3.84933 49.0211 3.7C48.9571 3.55067 48.8665 3.46 48.7491 3.428C48.6318 3.396 48.5038 3.38 48.3651 3.38H48.3171V7.348ZM52.2112 0.82V0.115999H54.6272V0.82H52.2112ZM52.2112 12.5V1.3H54.6272V12.5H52.2112ZM57.3063 12.5V3.38H55.7863V1.3H61.2263V3.38H59.7063V12.5H57.3063Z" fill="black"/>
</svg>
