<svg width="113" height="16" viewBox="0 0 113 16" fill="none" xmlns="http://www.w3.org/2000/svg">
<path d="M0.407498 11.5V0.0919991H2.9675V4.748H6.7755L10.5355 0.0919991H13.7195L9.0155 5.788L13.7195 11.5H10.5355L6.7595 6.828H2.9675V11.5H0.407498ZM18.5446 11.58C17.1153 11.58 16.0006 11.228 15.2006 10.524C14.4006 9.80933 14.0006 8.764 14.0006 7.388C14.0006 6.00133 14.4006 4.956 15.2006 4.252C16.0006 3.53733 17.1153 3.18 18.5446 3.18H21.5046C22.934 3.18 24.0486 3.53733 24.8486 4.252C25.6486 4.956 26.0486 6.00133 26.0486 7.388C26.0486 8.764 25.6486 9.80933 24.8486 10.524C24.0486 11.228 22.934 11.58 21.5046 11.58H18.5446ZM18.5446 9.74H21.5046C22.198 9.74 22.726 9.548 23.0886 9.164C23.462 8.78 23.6486 8.188 23.6486 7.388C23.6486 6.57733 23.462 5.98 23.0886 5.596C22.726 5.212 22.198 5.02 21.5046 5.02H18.5446C17.8513 5.02 17.318 5.212 16.9446 5.596C16.582 5.98 16.4006 6.57733 16.4006 7.388C16.4006 8.188 16.582 8.78 16.9446 9.164C17.318 9.548 17.8513 9.74 18.5446 9.74ZM27.6925 15.1V3.26H33.6125C35.0418 3.26 36.1565 3.612 36.9565 4.316C37.7565 5.02 38.1565 6.03867 38.1565 7.372C38.1565 8.716 37.7565 9.74 36.9565 10.444C36.1565 11.148 35.0418 11.5 33.6125 11.5H30.0125V15.1H27.6925ZM33.6125 5.1H30.0125V9.66H33.6125C34.3058 9.66 34.8338 9.47333 35.1965 9.1C35.5698 8.716 35.7565 8.14 35.7565 7.372C35.7565 6.61467 35.5698 6.04933 35.1965 5.676C34.8338 5.292 34.3058 5.1 33.6125 5.1ZM39.7987 11.5V3.26H42.1187V11.5H39.7987ZM39.7827 1.9V0.0919991H42.1347V1.9H39.7827ZM44.3169 11.5V0.0599995H46.4609L51.7569 3.772H51.8369L57.1329 0.0599995H59.2769V11.5H56.7169V3.26L53.0849 5.692V11.5H50.5249V5.692L46.8769 3.26V11.5H44.3169ZM63.672 11.5C62.808 11.5 62.1467 11.2813 61.688 10.844C61.2293 10.4067 61 9.78267 61 8.972C61 8.172 61.2293 7.55333 61.688 7.116C62.1467 6.67867 62.808 6.46 63.672 6.46H69.816V6.076C69.816 5.42533 69.496 5.1 68.856 5.1H62.072V3.26H69.464C70.4347 3.26 71.1227 3.484 71.528 3.932C71.9333 4.36933 72.136 4.988 72.136 5.788V11.5H63.672ZM64.088 9.66H69.816V8.3H64.088C63.8853 8.3 63.7253 8.364 63.608 8.492C63.5013 8.60933 63.448 8.76933 63.448 8.972C63.448 9.17467 63.5013 9.34 63.608 9.468C63.7253 9.596 63.8853 9.66 64.088 9.66ZM74.1019 11.5V0.0599995H76.4219V11.5H74.1019ZM80.572 11.5C79.708 11.5 79.0467 11.2813 78.588 10.844C78.1293 10.4067 77.9 9.78267 77.9 8.972C77.9 8.172 78.1293 7.55333 78.588 7.116C79.0467 6.67867 79.708 6.46 80.572 6.46H86.716V6.076C86.716 5.42533 86.396 5.1 85.756 5.1H78.972V3.26H86.364C87.3347 3.26 88.0227 3.484 88.428 3.932C88.8333 4.36933 89.036 4.988 89.036 5.788V11.5H80.572ZM80.988 9.66H86.716V8.3H80.988C80.7853 8.3 80.6253 8.364 80.508 8.492C80.4013 8.60933 80.348 8.76933 80.348 8.972C80.348 9.17467 80.4013 9.34 80.508 9.468C80.6253 9.596 80.7853 9.66 80.988 9.66ZM91.0019 11.5V3.26H98.1859C99.1245 3.26 99.8072 3.49467 100.234 3.964C100.671 4.42267 100.89 5.03067 100.89 5.788V11.5H98.5699V6.06C98.5699 5.42 98.2499 5.1 97.6099 5.1H93.3219V11.5H91.0019ZM104.716 15.1V13.26H109.548C110.188 13.26 110.508 12.9347 110.508 12.284V11.5H106.988C105.559 11.5 104.444 11.148 103.644 10.444C102.844 9.74 102.444 8.72133 102.444 7.388C102.444 6.044 102.844 5.02 103.644 4.316C104.444 3.612 105.559 3.26 106.988 3.26H112.828V12.572C112.828 13.3293 112.61 13.9373 112.172 14.396C111.735 14.8653 111.052 15.1 110.124 15.1H104.716ZM106.988 9.66H110.508V5.1H106.988C106.295 5.1 105.762 5.292 105.388 5.676C105.026 6.04933 104.844 6.62 104.844 7.388C104.844 8.14533 105.026 8.716 105.388 9.1C105.762 9.47333 106.295 9.66 106.988 9.66Z" fill="black"/>
</svg>
