<svg width="81" height="16" viewBox="0 0 81 16" fill="none" xmlns="http://www.w3.org/2000/svg">
<path d="M2.52913 1L2.54513 6.104L7.10513 0.344L9.18513 0.808L5.68113 5.224L9.87313 11.464L7.79313 11L4.75313 6.392L2.54513 9.16L2.56113 11.464L0.321126 11V8.984L0.273126 8.968L0.321126 8.904V0.344L2.52913 1ZM16.3241 4.968C15.6201 4.488 14.8895 4.56267 14.1321 5.192C13.5028 5.72533 13.0815 6.43467 12.8681 7.32C12.6335 8.33333 12.8148 9.096 13.4121 9.608C13.4868 9.672 13.5668 9.73067 13.6521 9.784C14.0788 10.0187 14.5161 10.072 14.9641 9.944C15.4228 9.816 15.8175 9.53333 16.1481 9.096C16.4895 8.65867 16.7561 8.19467 16.9481 7.704C17.1401 7.20267 17.1881 6.696 17.0921 6.184C16.9961 5.66133 16.7401 5.256 16.3241 4.968ZM17.9241 5.096C18.2335 5.37333 18.4735 5.70933 18.6441 6.104C18.8148 6.488 18.9108 6.88267 18.9321 7.288C18.9641 7.69333 18.9268 8.104 18.8201 8.52C18.7241 8.936 18.5748 9.32533 18.3721 9.688C18.1695 10.0507 17.9135 10.376 17.6041 10.664C17.3055 10.9413 16.9748 11.1493 16.6121 11.288C16.2495 11.4373 15.8441 11.496 15.3961 11.464C14.9588 11.432 14.5108 11.2933 14.0521 11.048C13.4548 10.728 12.8681 10.3227 12.2921 9.832C11.8335 9.43733 11.4921 8.99467 11.2681 8.504C11.0441 8.00267 10.9375 7.51733 10.9481 7.048C10.9695 6.57867 11.0601 6.10933 11.2201 5.64C11.3908 5.17067 11.6308 4.76533 11.9401 4.424C12.2601 4.08267 12.6068 3.79467 12.9801 3.56C13.3535 3.31467 13.7535 3.18667 14.1801 3.176C14.6175 3.16533 15.0388 3.256 15.4441 3.448C16.4788 3.992 17.3055 4.54133 17.9241 5.096ZM25.5296 9C25.807 8.62667 26.0256 8.232 26.1856 7.816C26.3563 7.38933 26.447 6.98933 26.4576 6.616C26.479 6.24267 26.447 5.89067 26.3616 5.56C26.287 5.21867 26.1376 4.94667 25.9136 4.744C25.6896 4.53067 25.4283 4.38667 25.1296 4.312C24.8416 4.23733 24.4843 4.26933 24.0576 4.408C23.631 4.54667 23.1776 4.792 22.6976 5.144L22.6656 9.672C22.8576 9.8 23.103 9.88533 23.4016 9.928C23.7003 9.97067 24.0523 9.92267 24.4576 9.784C24.8736 9.64533 25.231 9.384 25.5296 9ZM24.4576 11.4C24.2123 11.336 23.903 11.2027 23.5296 11C23.1563 10.7973 22.879 10.632 22.6976 10.504V15.064L20.6976 14.616C20.6656 7.52267 20.6656 3.90133 20.6976 3.752C21.3696 3.56 21.903 3.42667 22.2976 3.352C22.703 3.26667 23.1616 3.21333 23.6736 3.192C24.1856 3.16 24.671 3.224 25.1296 3.384C25.599 3.53333 26.079 3.768 26.5696 4.088C27.2096 4.51467 27.679 5.02133 27.9776 5.608C28.2763 6.184 28.4043 6.75467 28.3616 7.32C28.3296 7.87467 28.1856 8.42933 27.9296 8.984C27.6843 9.528 27.3696 9.99733 26.9856 10.392C26.6016 10.776 26.1803 11.064 25.7216 11.256C25.2736 11.448 24.8523 11.496 24.4576 11.4ZM31.5396 2.376C30.9956 2.12 30.5903 1.73067 30.3236 1.208C30.345 1.03733 30.505 0.818666 30.8036 0.551999C31.1023 0.285333 31.3423 0.130666 31.5236 0.0879993C32.0676 0.333333 32.4676 0.712 32.7236 1.224C32.5423 1.68267 32.1476 2.06667 31.5396 2.376ZM32.4996 3.8V11.464L30.4996 11.016V3.352L32.4996 3.8ZM37.3135 1L37.3295 6.104L41.8895 0.344L43.9695 0.808L40.4655 5.224L44.6575 11.464L42.5775 11L39.5375 6.392L37.3295 9.16L37.3455 11.464L35.1055 11V8.984L35.0575 8.968L35.1055 8.904V0.344L37.3135 1ZM51.3965 3.368L53.3965 3.816V11.48L51.3965 11.032V10.232C50.5432 11.1067 49.7538 11.5173 49.0285 11.464C48.6872 11.4427 48.0792 11.048 47.2045 10.28C46.3298 9.512 45.8658 8.97867 45.8125 8.68C45.7698 8.40267 45.7485 6.632 45.7485 3.368L47.7325 3.816C47.6792 7.48533 47.7058 9.432 47.8125 9.656C48.0258 9.95467 48.3458 10.0507 48.7725 9.944C49.2098 9.83733 49.6898 9.53333 50.2125 9.032C50.7458 8.53067 51.1405 7.98133 51.3965 7.384V3.368ZM62.2351 4.44L61.6591 5.272C61.4991 5.21867 61.3125 5.15467 61.0991 5.08C60.8858 4.99467 60.7205 4.936 60.6031 4.904C60.4858 4.86133 60.3578 4.81867 60.2191 4.776C60.0805 4.73333 59.9631 4.70667 59.8671 4.696C59.7818 4.67467 59.7018 4.664 59.6271 4.664C58.9338 4.696 58.3471 5.144 57.8671 6.008C57.4085 6.84 57.2325 7.67733 57.3391 8.52C57.4351 9.36267 57.8085 9.832 58.4591 9.928C59.2165 10.0347 60.2298 9.59733 61.4991 8.616L61.8031 8.968C62.0165 9.20267 62.2245 9.44267 62.4271 9.688L62.7311 10.04C62.3151 10.3493 61.9471 10.6 61.6271 10.792C61.3178 10.984 60.9978 11.1387 60.6671 11.256C60.3365 11.384 60.0111 11.4427 59.6911 11.432C59.3818 11.432 59.0618 11.368 58.7311 11.24C57.8138 10.888 56.9498 10.2693 56.1391 9.384C55.6591 8.85067 55.3925 8.22133 55.3391 7.496C55.2965 6.76 55.4245 6.07733 55.7231 5.448C56.0325 4.81867 56.4858 4.28533 57.0831 3.848C57.6805 3.4 58.3311 3.176 59.0351 3.176C59.3658 3.176 60.4325 3.59733 62.2351 4.44ZM69.7496 3.368L71.7496 3.816V11.48L69.7496 11.032V10.232C68.8963 11.1067 68.107 11.5173 67.3816 11.464C67.0403 11.4427 66.4323 11.048 65.5576 10.28C64.683 9.512 64.219 8.97867 64.1656 8.68C64.123 8.40267 64.1016 6.632 64.1016 3.368L66.0856 3.816C66.0323 7.48533 66.059 9.432 66.1656 9.656C66.379 9.95467 66.699 10.0507 67.1256 9.944C67.563 9.83733 68.043 9.53333 68.5656 9.032C69.099 8.53067 69.4936 7.98133 69.7496 7.384V3.368ZM75.9803 3.8V4.984C76.7589 3.75733 77.4203 3.144 77.9643 3.144C78.2309 3.144 78.6789 3.28267 79.3083 3.56C79.9376 3.82667 80.4656 4.104 80.8923 4.392L79.7883 5.992C79.1269 5.50133 78.5509 5.23467 78.0603 5.192C77.5803 5.13867 77.1963 5.23467 76.9083 5.48C76.6203 5.71467 76.3109 6.09867 75.9803 6.632V11.464L73.9803 11.016V3.352L75.9803 3.8Z" fill="black"/>
</svg>
