<svg width="100" height="15" viewBox="0 0 100 15" fill="none" xmlns="http://www.w3.org/2000/svg">
<path d="M5.16681 8.412L4.86281 11.5H1.74281L0.782813 1.804H5.82281L5.53481 4.684L8.14281 1.804H10.9428L8.23881 5.948L11.4868 11.5H8.35081C6.85748 10.06 5.79615 9.03067 5.16681 8.412ZM13.0723 10.716C12.3043 10.076 11.9203 9.06267 11.9203 7.676C11.9203 6.28933 12.3043 5.28133 13.0723 4.652C13.851 4.012 14.8856 3.692 16.1763 3.692C17.467 3.692 18.4963 4.012 19.2643 4.652C20.043 5.28133 20.4323 6.28933 20.4323 7.676C20.4323 9.06267 20.043 10.076 19.2643 10.716C18.4963 11.3453 17.467 11.66 16.1763 11.66C14.8856 11.66 13.851 11.3453 13.0723 10.716ZM15.5043 5.868C15.3763 6.23067 15.3123 6.83333 15.3123 7.676C15.3123 8.51867 15.3763 9.12667 15.5043 9.5C15.6323 9.86267 15.8563 10.044 16.1763 10.044C16.4963 10.044 16.7203 9.86267 16.8483 9.5C16.9763 9.12667 17.0403 8.51867 17.0403 7.676C17.0403 6.83333 16.9763 6.23067 16.8483 5.868C16.7203 5.49467 16.4963 5.308 16.1763 5.308C15.8563 5.308 15.6323 5.49467 15.5043 5.868ZM27.2248 11.66C26.6275 11.66 26.1315 11.5213 25.7368 11.244C25.3848 10.988 25.1128 10.7267 24.9208 10.46L24.7128 14.236H21.9768L21.5128 3.916H24.9528L25.1288 4.812C25.1821 4.72667 25.2621 4.62533 25.3688 4.508C25.4861 4.38 25.7261 4.21467 26.0888 4.012C26.4621 3.79867 26.8461 3.692 27.2408 3.692C27.6355 3.692 28.0035 3.75067 28.3448 3.868C28.6968 3.98533 29.0381 4.17733 29.3688 4.444C29.7101 4.7 29.9821 5.09467 30.1848 5.628C30.3981 6.16133 30.5048 6.796 30.5048 7.532C30.5048 8.876 30.2008 9.9 29.5928 10.604C28.9848 11.308 28.1955 11.66 27.2248 11.66ZM26.2488 5.852C25.5448 5.852 25.1928 6.492 25.1928 7.772C25.1928 8.22 25.2675 8.61467 25.4168 8.956C25.5768 9.29733 25.8115 9.468 26.1208 9.468C26.4301 9.468 26.6648 9.356 26.8248 9.132C27.0701 8.79067 27.1928 8.33733 27.1928 7.772C27.1928 6.492 26.8781 5.852 26.2488 5.852ZM35.3958 4.14L35.6678 4.044L35.1238 11.5H32.0998L31.5878 4.044C32.1958 4.28933 32.8411 4.412 33.5238 4.412C34.2171 4.412 34.8411 4.32133 35.3958 4.14ZM33.6198 3.708C33.0865 3.708 32.6385 3.548 32.2758 3.228C31.9131 2.908 31.7318 2.492 31.7318 1.98C31.7318 1.45733 31.9078 1.04133 32.2598 0.731999C32.6225 0.412 33.0705 0.252 33.6038 0.252C34.1478 0.252 34.6011 0.412 34.9638 0.731999C35.3265 1.052 35.5078 1.468 35.5078 1.98C35.5078 2.492 35.3265 2.908 34.9638 3.228C34.6011 3.548 34.1531 3.708 33.6198 3.708ZM39.9067 11.66C39.2667 11.66 38.648 11.5533 38.0507 11.34C37.464 11.1267 37.0374 10.9133 36.7707 10.7L36.3547 10.38L37.0427 9.004C37.608 9.292 38.1094 9.436 38.5467 9.436C39.3254 9.436 39.7147 9.05733 39.7147 8.3C39.7147 8.18267 39.56 6.73733 39.2507 3.964L37.0427 3.692L37.5067 1.804H44.0827L43.4587 8.22C43.2347 10.5133 42.0507 11.66 39.9067 11.66ZM49.3357 11.66C48.1304 11.66 47.117 11.3133 46.2957 10.62C45.485 9.916 45.0797 8.88667 45.0797 7.532C45.0797 6.67867 45.2877 5.95333 45.7037 5.356C46.461 4.24667 47.6344 3.692 49.2237 3.692C50.4397 3.692 51.3677 3.93733 52.0077 4.428C52.6477 4.908 52.9677 5.57467 52.9677 6.428C52.9677 7.08933 52.701 7.628 52.1677 8.044C51.645 8.44933 50.877 8.652 49.8637 8.652C49.4477 8.652 49.0744 8.62 48.7437 8.556L48.5677 8.524C48.621 8.908 48.7864 9.196 49.0637 9.388C49.3517 9.56933 49.693 9.66 50.0877 9.66C50.7384 9.66 51.293 9.46267 51.7517 9.068L52.7437 10.268C52.573 10.4707 52.3704 10.6627 52.1357 10.844C51.901 11.0147 51.5277 11.196 51.0157 11.388C50.5037 11.5693 49.9437 11.66 49.3357 11.66ZM50.6317 6.284C50.6317 6.07067 50.5464 5.89467 50.3757 5.756C50.2157 5.61733 49.9917 5.548 49.7037 5.548C49.4157 5.548 49.1437 5.676 48.8877 5.932C48.6424 6.188 48.5197 6.492 48.5197 6.844C48.7544 6.95067 49.0584 7.004 49.4317 7.004C49.8157 7.004 50.109 6.94 50.3117 6.812C50.525 6.67333 50.6317 6.49733 50.6317 6.284ZM60.0952 3.692C60.8419 3.692 61.4819 4.00667 62.0152 4.636C62.5592 5.26533 62.8312 6.08667 62.8312 7.1C62.8312 8.10267 62.7085 9.56933 62.4632 11.5H59.6632L59.3432 7.916C59.2365 6.77467 58.9272 6.204 58.4152 6.204C57.8072 6.204 57.4819 6.78 57.4392 7.932L57.3272 11.5H54.3832L54.0472 3.916H57.6632L57.5992 5.276C57.6525 5.16933 57.7752 5.004 57.9672 4.78C58.1592 4.556 58.3459 4.37467 58.5272 4.236C58.9965 3.87333 59.5192 3.692 60.0952 3.692ZM68.5732 14.46C68.0505 14.46 67.5385 14.38 67.0372 14.22C66.5359 14.0707 66.1679 13.9213 65.9332 13.772L65.5812 13.532L66.2852 12.092C66.7439 12.316 67.1705 12.428 67.5652 12.428C68.2905 12.428 68.8239 12.1987 69.1652 11.74C69.5065 11.2813 69.6772 10.7533 69.6772 10.156C69.6772 10.0493 69.6719 9.94267 69.6612 9.836C69.1599 10.8387 68.3385 11.34 67.1972 11.34C66.1945 11.34 65.3945 11.036 64.7972 10.428C64.2105 9.82 63.9172 8.85467 63.9172 7.532C63.9172 6.796 64.0185 6.16133 64.2212 5.628C64.4345 5.09467 64.7119 4.69467 65.0532 4.428C65.6825 3.93733 66.3812 3.692 67.1492 3.692C67.6825 3.692 68.1359 3.82 68.5092 4.076C68.8185 4.3 69.0799 4.54533 69.2932 4.812L69.1972 3.916H72.9092L72.6372 10.14C72.4985 13.02 71.1439 14.46 68.5732 14.46ZM68.1732 5.852C67.5439 5.852 67.2292 6.43867 67.2292 7.612C67.2292 7.82533 67.2452 8.03333 67.2772 8.236C67.3199 8.43867 67.4212 8.64133 67.5812 8.844C67.7519 9.04667 67.9919 9.148 68.3012 9.148C68.6105 9.148 68.8399 8.99867 68.9892 8.7C69.1492 8.40133 69.2292 8.03867 69.2292 7.612C69.2292 6.43867 68.8772 5.852 68.1732 5.852ZM78.5701 14.46C78.0474 14.46 77.5354 14.38 77.0341 14.22C76.5327 14.0707 76.1647 13.9213 75.9301 13.772L75.5781 13.532L76.2821 12.092C76.7407 12.316 77.1674 12.428 77.5621 12.428C78.2874 12.428 78.8207 12.1987 79.1621 11.74C79.5034 11.2813 79.6741 10.7533 79.6741 10.156C79.6741 10.0493 79.6687 9.94267 79.6581 9.836C79.1567 10.8387 78.3354 11.34 77.1941 11.34C76.1914 11.34 75.3914 11.036 74.7941 10.428C74.2074 9.82 73.9141 8.85467 73.9141 7.532C73.9141 6.796 74.0154 6.16133 74.2181 5.628C74.4314 5.09467 74.7087 4.69467 75.0501 4.428C75.6794 3.93733 76.3781 3.692 77.1461 3.692C77.6794 3.692 78.1327 3.82 78.5061 4.076C78.8154 4.3 79.0767 4.54533 79.2901 4.812L79.1941 3.916H82.9061L82.6341 10.14C82.4954 13.02 81.1407 14.46 78.5701 14.46ZM78.1701 5.852C77.5407 5.852 77.2261 6.43867 77.2261 7.612C77.2261 7.82533 77.2421 8.03333 77.2741 8.236C77.3167 8.43867 77.4181 8.64133 77.5781 8.844C77.7487 9.04667 77.9887 9.148 78.2981 9.148C78.6074 9.148 78.8367 8.99867 78.9861 8.7C79.1461 8.40133 79.2261 8.03867 79.2261 7.612C79.2261 6.43867 78.8741 5.852 78.1701 5.852ZM88.1669 11.66C86.9616 11.66 85.9483 11.3133 85.1269 10.62C84.3163 9.916 83.9109 8.88667 83.9109 7.532C83.9109 6.67867 84.1189 5.95333 84.5349 5.356C85.2923 4.24667 86.4656 3.692 88.0549 3.692C89.2709 3.692 90.1989 3.93733 90.8389 4.428C91.4789 4.908 91.7989 5.57467 91.7989 6.428C91.7989 7.08933 91.5323 7.628 90.9989 8.044C90.4763 8.44933 89.7083 8.652 88.6949 8.652C88.2789 8.652 87.9056 8.62 87.5749 8.556L87.3989 8.524C87.4523 8.908 87.6176 9.196 87.8949 9.388C88.1829 9.56933 88.5243 9.66 88.9189 9.66C89.5696 9.66 90.1243 9.46267 90.5829 9.068L91.5749 10.268C91.4043 10.4707 91.2016 10.6627 90.9669 10.844C90.7323 11.0147 90.3589 11.196 89.8469 11.388C89.3349 11.5693 88.7749 11.66 88.1669 11.66ZM89.4629 6.284C89.4629 6.07067 89.3776 5.89467 89.2069 5.756C89.0469 5.61733 88.8229 5.548 88.5349 5.548C88.2469 5.548 87.9749 5.676 87.7189 5.932C87.4736 6.188 87.3509 6.492 87.3509 6.844C87.5856 6.95067 87.8896 7.004 88.2629 7.004C88.6469 7.004 88.9403 6.94 89.1429 6.812C89.3563 6.67333 89.4629 6.49733 89.4629 6.284ZM96.4304 4.956C96.9958 4.11333 97.6944 3.692 98.5264 3.692C98.9211 3.692 99.2838 3.788 99.6144 3.98L99.2304 6.604C98.8038 6.30533 98.3238 6.156 97.7904 6.156C97.2784 6.156 96.9318 6.36933 96.7504 6.796C96.6438 7.06267 96.5744 7.31867 96.5424 7.564L96.2384 11.5H93.3584L92.8784 3.916H96.0304L96.4304 4.956Z" fill="black"/>
</svg>
