<svg width="204" height="21" viewBox="0 0 204 21" fill="none" xmlns="http://www.w3.org/2000/svg">
<path d="M15.8691 7.57422C15.8691 6.91504 15.7674 6.33317 15.564 5.82861C15.3687 5.31592 15.1001 4.8724 14.7583 4.49805C14.4246 4.11556 14.0259 3.79411 13.562 3.53369C13.1063 3.26514 12.618 3.04948 12.0972 2.88672C11.5763 2.71582 11.0352 2.58968 10.4736 2.5083C9.91211 2.42692 9.36279 2.37402 8.82568 2.34961H7.97119L7.70264 12.6523C7.95492 12.7174 8.22754 12.7663 8.52051 12.7988C8.81348 12.8314 9.12272 12.8477 9.44824 12.8477C10.3027 12.8477 11.1165 12.7378 11.8896 12.5181C12.6709 12.2902 13.3545 11.9565 13.9404 11.5171C14.5345 11.0776 15.0024 10.5283 15.3442 9.86914C15.6942 9.20996 15.8691 8.44499 15.8691 7.57422ZM9.44824 14.1294C9.12272 14.1294 8.80941 14.1172 8.5083 14.0928C8.21533 14.0602 7.93864 14.0114 7.67822 13.9463L7.58057 17.8037C7.88981 17.8281 8.20312 17.8525 8.52051 17.877C8.84603 17.9014 9.17155 17.9258 9.49707 17.9502C9.65983 17.9746 9.79411 18.0479 9.8999 18.1699C10.0138 18.292 10.0708 18.4344 10.0708 18.5972C10.0708 18.7843 10.0016 18.9349 9.86328 19.0488C9.72493 19.1628 9.57845 19.2197 9.42383 19.2197H9.375C8.72396 19.1546 8.07292 19.1058 7.42188 19.0732C6.77897 19.0407 6.132 19.0244 5.48096 19.0244C4.83805 19.0244 4.19922 19.0407 3.56445 19.0732C2.93783 19.1058 2.30713 19.1546 1.67236 19.2197H1.62354C1.4445 19.2197 1.28988 19.1546 1.15967 19.0244C1.0376 18.9023 0.976562 18.7599 0.976562 18.5972C0.976562 18.4344 1.02946 18.292 1.13525 18.1699C1.24919 18.0479 1.38753 17.9746 1.55029 17.9502C1.8514 17.9258 2.15251 17.9014 2.45361 17.877C2.76286 17.8525 3.06803 17.8281 3.36914 17.8037L3.6499 2.65479C3.04769 2.75244 2.6001 2.8501 2.30713 2.94775C2.0223 3.04541 1.87174 3.09424 1.85547 3.09424C1.75781 3.13493 1.6805 3.15527 1.62354 3.15527C1.4445 3.15527 1.28988 3.0861 1.15967 2.94775C1.0376 2.80941 0.976562 2.65885 0.976562 2.49609C0.976562 2.37402 1.00911 2.25602 1.07422 2.14209C1.14746 2.02816 1.24919 1.94678 1.37939 1.89795C1.40381 1.88981 1.55436 1.84505 1.83105 1.76367C2.10775 1.67415 2.50651 1.5765 3.02734 1.4707C3.55632 1.36491 4.21143 1.27132 4.99268 1.18994C5.77393 1.10042 6.68538 1.05566 7.72705 1.05566C7.90609 1.05566 8.08919 1.05566 8.27637 1.05566C8.47168 1.05566 8.66292 1.0638 8.8501 1.08008C9.55811 1.10449 10.2539 1.17367 10.9375 1.2876C11.6211 1.40153 12.2721 1.5765 12.8906 1.8125C13.5091 2.04036 14.0747 2.3252 14.5874 2.66699C15.1082 3.00879 15.5599 3.41976 15.9424 3.8999C16.3249 4.37191 16.6219 4.91309 16.8335 5.52344C17.0451 6.13379 17.1509 6.81738 17.1509 7.57422C17.1509 8.29036 17.0451 8.94954 16.8335 9.55176C16.6219 10.1458 16.3289 10.687 15.9546 11.1753C15.5884 11.6554 15.1571 12.0827 14.6606 12.457C14.1642 12.8232 13.6271 13.1325 13.0493 13.3848C12.4797 13.6289 11.8856 13.8161 11.2671 13.9463C10.6567 14.0684 10.0505 14.1294 9.44824 14.1294ZM29.6556 12.5791C29.3545 11.6595 29.0371 10.8132 28.7034 10.04C28.3698 9.25879 28.0402 8.55892 27.7146 7.94043C27.3973 7.3138 27.0921 6.76855 26.7991 6.30469C26.5143 5.83268 26.2702 5.44613 26.0667 5.14502C25.3099 6.43083 24.6303 7.68815 24.0281 8.91699C23.4341 10.1377 22.9051 11.3584 22.4412 12.5791C23.0923 12.6523 23.7189 12.7134 24.3211 12.7622C24.9233 12.8029 25.5215 12.8232 26.1155 12.8232C26.7015 12.8232 27.2833 12.8029 27.8611 12.7622C28.4471 12.7134 29.0452 12.6523 29.6556 12.5791ZM37.9808 19.2808C37.9645 19.2808 37.9482 19.2767 37.9319 19.2686C37.9157 19.2686 37.8994 19.2604 37.8831 19.2441C37.1425 19.1302 36.4101 19.0488 35.6858 19C34.9697 18.9512 34.2535 18.9268 33.5374 18.9268C32.8294 18.9268 32.1295 18.9512 31.4378 19C30.7542 19.0488 30.0706 19.1302 29.387 19.2441C29.3707 19.2604 29.3545 19.2686 29.3382 19.2686C29.3219 19.2767 29.3056 19.2808 29.2894 19.2808C29.1103 19.2808 28.9557 19.2116 28.8255 19.0732C28.7034 18.9349 28.6424 18.7843 28.6424 18.6216C28.6424 18.4751 28.6912 18.3408 28.7889 18.2188C28.8947 18.0967 29.0289 18.0234 29.1917 17.999C29.5172 17.9339 29.8468 17.8851 30.1805 17.8525C30.5141 17.8118 30.8559 17.7712 31.2059 17.7305C31.1652 17.5758 31.1163 17.3846 31.0594 17.1567C31.0024 16.9207 30.9251 16.644 30.8274 16.3267C30.7379 16.0093 30.6281 15.6431 30.4979 15.228C30.3758 14.8049 30.2293 14.3288 30.0584 13.7998C29.3667 13.8975 28.6993 13.9748 28.0564 14.0317C27.4135 14.0806 26.7666 14.105 26.1155 14.105C25.4563 14.105 24.789 14.0806 24.1136 14.0317C23.4381 13.9748 22.7301 13.8975 21.9896 13.7998C21.5582 15.0856 21.2083 16.3592 20.9397 17.6206C21.4443 17.6369 21.9489 17.6776 22.4534 17.7427C22.9661 17.7996 23.4869 17.8851 24.0159 17.999C24.1624 18.0234 24.2804 18.0967 24.3699 18.2188C24.4676 18.3408 24.5164 18.4751 24.5164 18.6216C24.5164 18.8088 24.4432 18.9634 24.2967 19.0854C24.1583 19.2157 24.0118 19.2808 23.8572 19.2808C23.8328 19.2808 23.8125 19.2726 23.7962 19.2563C23.7799 19.2482 23.7596 19.2441 23.7352 19.2441C23.198 19.1302 22.6691 19.0448 22.1482 18.9878C21.6355 18.9308 21.1229 18.9023 20.6102 18.9023C20.1056 18.9023 19.6092 18.9308 19.1209 18.9878C18.6326 19.0448 18.1362 19.1302 17.6316 19.2441C17.6072 19.2441 17.5869 19.2482 17.5706 19.2563C17.5543 19.2726 17.534 19.2808 17.5096 19.2808C17.3224 19.2808 17.1678 19.2157 17.0457 19.0854C16.9236 18.9552 16.8626 18.8006 16.8626 18.6216C16.8626 18.4751 16.9074 18.3449 16.9969 18.231C17.0864 18.117 17.2085 18.0397 17.3631 17.999C17.7293 17.9095 18.0955 17.8403 18.4617 17.7915C18.8361 17.7427 19.2186 17.702 19.6092 17.6694C19.8859 16.3267 20.248 14.9839 20.6956 13.6411C21.1432 12.2983 21.6762 10.9434 22.2947 9.57617C22.9214 8.20085 23.6375 6.80518 24.4432 5.38916C25.2488 3.97314 26.1562 2.51644 27.1653 1.01904C27.2386 0.921387 27.32 0.852214 27.4095 0.811523C27.5071 0.770833 27.6007 0.750488 27.6902 0.750488C27.7879 0.750488 27.8815 0.770833 27.971 0.811523C28.0605 0.844076 28.1338 0.896973 28.1907 0.970215C29.8997 3.1512 31.3646 5.62516 32.5853 8.39209C33.8141 11.1509 34.8232 14.2555 35.6126 17.7061C36.4427 17.7793 37.2687 17.877 38.0906 17.999C38.2534 18.0234 38.3836 18.0967 38.4813 18.2188C38.587 18.3408 38.6399 18.4751 38.6399 18.6216C38.6399 18.8006 38.5667 18.9552 38.4202 19.0854C38.2819 19.2157 38.1354 19.2808 37.9808 19.2808ZM53.8302 6.09717C53.8302 6.12158 53.8342 6.15413 53.8424 6.19482C53.8505 6.22738 53.8546 6.264 53.8546 6.30469C53.8546 6.47559 53.7854 6.62614 53.6471 6.75635C53.5169 6.88656 53.3704 6.95166 53.2076 6.95166C53.0774 6.95166 52.9553 6.91097 52.8414 6.82959C52.7356 6.74821 52.6583 6.63835 52.6095 6.5C52.5037 6.19076 52.402 5.86117 52.3043 5.51123C52.2066 5.15316 52.1171 4.80322 52.0357 4.46143C51.9625 4.11963 51.8933 3.79818 51.8282 3.49707C51.7631 3.19596 51.7143 2.93962 51.6817 2.72803C51.2179 2.75244 50.6889 2.77279 50.0948 2.78906C49.5008 2.7972 48.8619 2.80127 48.1783 2.80127L47.7755 17.877C48.4428 17.9014 49.0857 17.9502 49.7042 18.0234C49.8832 18.0397 50.0216 18.1089 50.1192 18.231C50.225 18.3449 50.2779 18.4832 50.2779 18.646C50.2779 18.8494 50.2088 19.0081 50.0704 19.1221C49.9402 19.2441 49.8019 19.3052 49.6554 19.3052H49.5821C48.923 19.2238 48.2719 19.1668 47.629 19.1343C46.9861 19.1099 46.3432 19.0977 45.7003 19.0977C45.0493 19.0977 44.4104 19.1099 43.7838 19.1343C43.1572 19.1668 42.5305 19.2238 41.9039 19.3052H41.8307C41.6516 19.3052 41.497 19.236 41.3668 19.0977C41.2447 18.9593 41.1837 18.8088 41.1837 18.646C41.1837 18.4832 41.2366 18.3449 41.3424 18.231C41.4563 18.1089 41.5947 18.0397 41.7574 18.0234C42.3841 17.9502 42.9985 17.9014 43.6007 17.877L43.8814 2.72803C43.1897 2.70361 42.5387 2.67513 41.9283 2.64258C41.3261 2.60189 40.7849 2.5612 40.3048 2.52051C40.256 2.74023 40.1949 3.00879 40.1217 3.32617C40.0566 3.64355 39.9793 3.98128 39.8897 4.33936C39.8084 4.69743 39.7229 5.06364 39.6334 5.43799C39.5439 5.8042 39.4503 6.15007 39.3526 6.47559C39.3119 6.61393 39.2346 6.72786 39.1207 6.81738C39.0149 6.9069 38.8928 6.95166 38.7545 6.95166C38.5673 6.95166 38.4127 6.88656 38.2906 6.75635C38.1686 6.618 38.1075 6.46745 38.1075 6.30469C38.1075 6.28027 38.1075 6.25179 38.1075 6.21924C38.1075 6.17855 38.1157 6.146 38.1319 6.12158C38.254 5.69027 38.3761 5.21826 38.4981 4.70557C38.6202 4.19287 38.7301 3.71273 38.8277 3.26514C38.9335 2.81755 39.019 2.4432 39.0841 2.14209C39.1492 1.84098 39.1817 1.68636 39.1817 1.67822C39.2224 1.5236 39.2957 1.40153 39.4015 1.31201C39.5154 1.22249 39.6497 1.17773 39.8043 1.17773H39.902C40.3251 1.2347 40.8378 1.28353 41.44 1.32422C42.0504 1.36491 42.7055 1.40153 43.4054 1.43408C44.1134 1.4585 44.8458 1.47884 45.6026 1.49512C46.3595 1.51139 47.1 1.51953 47.8243 1.51953C48.7114 1.51953 49.5292 1.51139 50.2779 1.49512C51.0266 1.4707 51.6533 1.43815 52.1578 1.39746H52.2066C52.3531 1.39746 52.4874 1.45036 52.6095 1.55615C52.7315 1.65381 52.8048 1.77588 52.8292 1.92236C52.8292 1.9305 52.8414 1.99967 52.8658 2.12988C52.8902 2.26009 52.9228 2.43506 52.9635 2.65479C53.0042 2.87451 53.053 3.12679 53.11 3.41162C53.1751 3.69645 53.2442 3.99349 53.3175 4.30273C53.3907 4.60384 53.468 4.91309 53.5494 5.23047C53.6389 5.53971 53.7325 5.82861 53.8302 6.09717ZM72.6093 1.80029C72.6093 1.97933 72.5523 2.12988 72.4384 2.25195C72.3326 2.36589 72.1983 2.43099 72.0355 2.44727L70.0336 2.60596C70.0743 2.96403 70.1272 3.43604 70.1923 4.02197C70.2574 4.59977 70.3184 5.25081 70.3754 5.9751C70.4324 6.69124 70.4812 7.45622 70.5219 8.27002C70.5707 9.07568 70.5992 9.87728 70.6073 10.6748C70.5829 11.5293 70.5137 12.3472 70.3998 13.1284C70.2859 13.9097 70.115 14.6421 69.8871 15.3257C69.6674 16.0011 69.3785 16.6156 69.0204 17.1689C68.6623 17.7223 68.227 18.1984 67.7143 18.5972C67.2016 18.9878 66.5993 19.2889 65.9076 19.5005C65.224 19.7202 64.4428 19.8301 63.5639 19.8301C62.5954 19.8301 61.7572 19.6714 61.0492 19.354C60.3412 19.0448 59.739 18.6297 59.2426 18.1089C58.7462 17.5799 58.3433 16.9696 58.0341 16.2778C57.7248 15.5861 57.4807 14.8618 57.3017 14.105C57.1308 13.3481 57.0128 12.5832 56.9477 11.8101C56.8907 11.0369 56.8622 10.3005 56.8622 9.60059C56.8622 8.83561 56.8785 8.10726 56.911 7.41553C56.9517 6.7238 56.9965 6.0931 57.0453 5.52344C57.1023 4.94564 57.1592 4.43701 57.2162 3.99756C57.2813 3.54997 57.3383 3.18376 57.3871 2.89893H55.9345C55.7473 2.89893 55.5927 2.83789 55.4706 2.71582C55.3485 2.58561 55.2875 2.43099 55.2875 2.25195C55.2875 2.07292 55.3485 1.92236 55.4706 1.80029C55.5927 1.67008 55.7473 1.60498 55.9345 1.60498H63.5883C63.7592 1.60498 63.9097 1.67008 64.0399 1.80029C64.1701 1.92236 64.2353 2.07292 64.2353 2.25195C64.2353 2.43099 64.1701 2.58561 64.0399 2.71582C63.9097 2.83789 63.7592 2.89893 63.5883 2.89893H61.7328C61.6921 3.15934 61.6433 3.52555 61.5863 3.99756C61.5375 4.46143 61.4846 4.99854 61.4276 5.60889C61.3707 6.21924 61.3218 6.89062 61.2812 7.62305C61.2486 8.35547 61.2323 9.11637 61.2323 9.90576C61.2323 10.3696 61.2405 10.8986 61.2567 11.4927C61.2812 12.0868 61.334 12.6971 61.4154 13.3237C61.5049 13.9504 61.627 14.5648 61.7816 15.167C61.9444 15.7692 62.1641 16.3063 62.4408 16.7783C62.7175 17.2503 63.0593 17.6328 63.4662 17.9258C63.8812 18.2106 64.3777 18.353 64.9555 18.353C65.7123 18.353 66.3633 18.1536 66.9086 17.7549C67.462 17.3561 67.9136 16.8109 68.2636 16.1191C68.6216 15.4274 68.8861 14.6136 69.057 13.6777C69.2279 12.7419 69.3134 11.7409 69.3134 10.6748C69.3134 9.88542 69.293 9.09196 69.2523 8.29443C69.2117 7.48877 69.1628 6.73193 69.1059 6.02393C69.0489 5.30778 68.9879 4.66488 68.9228 4.09521C68.8576 3.51742 68.8048 3.06169 68.7641 2.72803L66.7133 2.89893H66.64C66.461 2.89893 66.3104 2.83382 66.1884 2.70361C66.0663 2.56527 66.0053 2.41471 66.0053 2.25195C66.0053 2.08919 66.0582 1.94678 66.164 1.82471C66.2779 1.70264 66.4162 1.62939 66.579 1.60498L71.9379 1.17773H71.9867C72.1576 1.17773 72.3041 1.24284 72.4262 1.37305C72.5482 1.49512 72.6093 1.63753 72.6093 1.80029ZM97.7605 1.80029C97.7605 1.95492 97.7076 2.09326 97.6018 2.21533C97.5041 2.32926 97.382 2.39844 97.2355 2.42285C96.8449 2.51237 96.4543 2.58561 96.0637 2.64258C95.6812 2.69954 95.2865 2.73617 94.8796 2.75244C94.6517 4.44515 94.4239 5.94661 94.196 7.25684C93.9763 8.56706 93.7484 9.743 93.5124 10.7847C93.2764 11.8182 93.0323 12.7419 92.78 13.5557C92.5277 14.3695 92.2592 15.1263 91.9743 15.8262C91.6976 16.526 91.4006 17.1974 91.0832 17.8403C90.774 18.4751 90.4403 19.1302 90.0822 19.8057C90.0334 19.8952 89.9602 19.9684 89.8625 20.0254C89.773 20.0905 89.6713 20.123 89.5573 20.123C89.305 20.123 89.1138 20.0335 88.9836 19.8545C88.479 19.1221 88.0233 18.3896 87.6164 17.6572C87.2095 16.9248 86.8433 16.2209 86.5178 15.5454C86.2004 14.8618 85.9196 14.2189 85.6755 13.6167C85.4314 13.0063 85.2238 12.4611 85.0529 11.981C84.5647 13.397 84.056 14.7275 83.5271 15.9727C82.9981 17.2096 82.4081 18.41 81.757 19.5737C81.7082 19.6714 81.6309 19.7528 81.5251 19.8179C81.4274 19.8911 81.3217 19.9277 81.2077 19.9277C80.9717 19.9277 80.7886 19.8179 80.6584 19.5981C79.9504 18.4507 79.3278 17.2869 78.7907 16.1069C78.2536 14.9188 77.7857 13.7591 77.3869 12.6279C76.9963 11.4967 76.6626 10.4144 76.3859 9.38086C76.1092 8.33919 75.8814 7.38704 75.7023 6.52441C75.5314 5.66178 75.3972 4.90902 75.2995 4.26611C75.21 3.62321 75.1449 3.12679 75.1042 2.77686C74.9008 2.76058 74.7014 2.7443 74.5061 2.72803C74.3107 2.71175 74.1195 2.69548 73.9323 2.6792C73.7696 2.65479 73.6312 2.58154 73.5173 2.45947C73.4115 2.32926 73.3586 2.18278 73.3586 2.02002C73.383 1.82471 73.4563 1.67415 73.5783 1.56836C73.7004 1.45443 73.8428 1.39746 74.0056 1.39746H74.0544C74.9821 1.49512 75.9343 1.54395 76.9108 1.54395C77.6921 1.54395 78.4693 1.51546 79.2424 1.4585C80.0236 1.39339 80.7805 1.2998 81.5129 1.17773H81.6105C81.7977 1.17773 81.9523 1.24284 82.0744 1.37305C82.1965 1.49512 82.2575 1.63753 82.2575 1.80029C82.2575 1.96305 82.2046 2.10547 82.0988 2.22754C82.0012 2.34961 81.871 2.42285 81.7082 2.44727C81.342 2.49609 80.9717 2.54492 80.5974 2.59375C80.2312 2.64258 79.8527 2.68734 79.4621 2.72803C79.4947 3.02913 79.5435 3.4279 79.6086 3.92432C79.6818 4.4126 79.7754 4.97005 79.8894 5.59668C80.0033 6.21517 80.1416 6.89062 80.3044 7.62305C80.4753 8.34733 80.6747 9.1001 80.9025 9.88135C81.1385 10.6545 81.403 11.4438 81.696 12.2495C81.9971 13.047 82.3348 13.8324 82.7092 14.6055C83.0917 13.7021 83.4497 12.7866 83.7834 11.8589C84.1252 10.923 84.4263 9.98307 84.6867 9.03906C84.9471 8.09505 85.1669 7.15104 85.3459 6.20703C85.5249 5.25488 85.647 4.30273 85.7121 3.35059C85.7284 3.18783 85.7894 3.05355 85.8952 2.94775C86.0092 2.83382 86.1475 2.76872 86.3103 2.75244C86.473 2.75244 86.6154 2.80127 86.7375 2.89893C86.8596 2.99658 86.941 3.12272 86.9816 3.27734C87.1525 4.22135 87.3601 5.16536 87.6042 6.10938C87.8483 7.04525 88.1332 7.9974 88.4587 8.96582C88.7924 9.92611 89.1667 10.9027 89.5817 11.8955C89.9968 12.8883 90.4566 13.9056 90.9611 14.9473C91.2053 14.3206 91.4372 13.6289 91.6569 12.8721C91.8848 12.1152 92.1045 11.2526 92.3161 10.2842C92.5277 9.31576 92.7393 8.21712 92.9509 6.98828C93.1625 5.75944 93.3741 4.35563 93.5856 2.77686C93.2194 2.76058 92.8532 2.73617 92.487 2.70361C92.1289 2.66292 91.7587 2.61003 91.3762 2.54492C91.2297 2.52051 91.1036 2.45133 90.9978 2.3374C90.9001 2.21533 90.8513 2.07699 90.8513 1.92236C90.8513 1.71077 90.9204 1.55208 91.0588 1.44629C91.2053 1.33236 91.3477 1.27539 91.486 1.27539H91.6081C92.4219 1.42188 93.2398 1.49512 94.0617 1.49512C94.55 1.49512 95.0342 1.4707 95.5144 1.42188C95.9945 1.37305 96.4746 1.29167 96.9548 1.17773H97.1013C97.2803 1.17773 97.4349 1.24284 97.5651 1.37305C97.6953 1.49512 97.7605 1.63753 97.7605 1.80029ZM112.243 18.6704C112.218 18.8332 112.145 18.9634 112.023 19.061C111.901 19.1668 111.758 19.2197 111.596 19.2197H111.571C109.382 19.0732 107.246 19 105.163 19C103.047 19 101.008 19.0732 99.0469 19.2197H98.9858C98.7987 19.2035 98.644 19.1383 98.522 19.0244C98.3999 18.9105 98.3389 18.7599 98.3389 18.5728C98.3389 18.41 98.3958 18.2716 98.5098 18.1577C98.6237 18.0356 98.7661 17.9665 98.937 17.9502C99.1974 17.9258 99.4578 17.9095 99.7183 17.9014C99.9868 17.8851 100.251 17.8688 100.512 17.8525V2.97217C100.251 2.95589 99.9909 2.94775 99.7305 2.94775C99.4782 2.94775 99.2218 2.94775 98.9614 2.94775C98.7905 2.93148 98.644 2.86637 98.522 2.75244C98.3999 2.63037 98.3389 2.47982 98.3389 2.30078C98.3389 2.12174 98.404 1.97119 98.5342 1.84912C98.6644 1.71891 98.8149 1.65381 98.9858 1.65381C99.2951 1.67008 99.5921 1.67822 99.877 1.67822C100.17 1.67822 100.459 1.67822 100.744 1.67822C102.477 1.67822 104.194 1.62126 105.895 1.50732C107.596 1.39339 109.293 1.22249 110.985 0.994629H111.095C111.258 0.994629 111.396 1.0516 111.51 1.16553C111.624 1.27132 111.693 1.39746 111.718 1.54395L112.243 5.66992V5.75537C112.243 5.94255 112.174 6.0931 112.035 6.20703C111.905 6.32096 111.758 6.37793 111.596 6.37793C111.441 6.37793 111.303 6.3291 111.181 6.23145C111.067 6.12565 110.993 5.99137 110.961 5.82861L110.521 2.34961C109.577 2.47982 108.629 2.58561 107.677 2.66699C106.733 2.74023 105.781 2.80127 104.821 2.8501V10.8945C105.016 10.8864 105.277 10.8742 105.602 10.8579C105.928 10.8416 106.278 10.8172 106.652 10.7847C107.034 10.7521 107.421 10.7155 107.812 10.6748C108.21 10.626 108.581 10.569 108.922 10.5039H109.044C109.215 10.5039 109.366 10.569 109.496 10.6992C109.626 10.8213 109.691 10.9637 109.691 11.1265C109.691 11.2892 109.643 11.4276 109.545 11.5415C109.447 11.6554 109.321 11.7327 109.167 11.7734C108.792 11.8467 108.389 11.9077 107.958 11.9565C107.535 12.0054 107.12 12.0461 106.713 12.0786C106.314 12.103 105.948 12.1234 105.614 12.1396C105.281 12.1559 105.016 12.1681 104.821 12.1763V17.7305H105.163C106.131 17.7305 107.104 17.7427 108.08 17.7671C109.065 17.7915 110.054 17.8363 111.046 17.9014L111.486 14.6299C111.518 14.4671 111.592 14.3369 111.706 14.2393C111.828 14.1335 111.966 14.0806 112.121 14.0806C112.316 14.0806 112.471 14.1497 112.584 14.2881C112.707 14.4264 112.768 14.5648 112.768 14.7031V14.8008L112.243 18.6704ZM133.341 1.27539C133.341 1.41374 133.3 1.54395 133.219 1.66602C133.146 1.77995 133.04 1.85726 132.902 1.89795C132.617 1.97119 132.336 2.04036 132.059 2.10547C131.783 2.16243 131.502 2.21126 131.217 2.25195C131.429 3.53776 131.575 4.78695 131.657 5.99951C131.746 7.21208 131.791 8.41243 131.791 9.60059C131.791 11.2119 131.726 12.7663 131.596 14.2637C131.473 15.7611 131.323 17.23 131.144 18.6704C131.095 18.8494 131.01 18.9837 130.887 19.0732C130.774 19.1709 130.643 19.2197 130.497 19.2197C130.22 19.2197 130.029 19.0895 129.923 18.8291C129.695 18.2757 129.382 17.5962 128.983 16.7905C128.593 15.9767 128.149 15.106 127.653 14.1782C127.164 13.2424 126.644 12.2739 126.09 11.2729C125.545 10.272 125.008 9.30355 124.479 8.36768C123.958 7.4318 123.466 6.55697 123.002 5.74316C122.538 4.92122 122.143 4.22542 121.818 3.65576L121.451 17.8037C121.761 17.8281 122.074 17.8525 122.391 17.877C122.717 17.9014 123.042 17.9258 123.368 17.9502C123.531 17.9746 123.665 18.0479 123.771 18.1699C123.885 18.292 123.942 18.4344 123.942 18.5972C123.942 18.7843 123.873 18.9349 123.734 19.0488C123.596 19.1628 123.449 19.2197 123.295 19.2197H123.246C122.595 19.1546 121.944 19.1058 121.293 19.0732C120.65 19.0407 120.003 19.0244 119.352 19.0244C118.709 19.0244 118.07 19.0407 117.435 19.0732C116.809 19.1058 116.178 19.1546 115.543 19.2197H115.494C115.315 19.2197 115.161 19.1546 115.031 19.0244C114.908 18.9023 114.847 18.7599 114.847 18.5972C114.847 18.4344 114.9 18.292 115.006 18.1699C115.12 18.0479 115.258 17.9746 115.421 17.9502C115.722 17.9258 116.023 17.9014 116.325 17.877C116.634 17.8525 116.939 17.8281 117.24 17.8037L117.521 2.39844C116.821 2.34961 116.113 2.27637 115.397 2.17871C115.234 2.1543 115.1 2.08105 114.994 1.95898C114.896 1.82878 114.847 1.68229 114.847 1.51953C114.847 1.32422 114.921 1.17367 115.067 1.06787C115.214 0.953939 115.356 0.896973 115.494 0.896973H115.568C116.438 1.0109 117.289 1.10042 118.119 1.16553C118.957 1.22249 119.791 1.25098 120.621 1.25098H121.525C121.533 1.25098 121.557 1.25505 121.598 1.26318C121.639 1.26318 121.683 1.27132 121.732 1.2876C121.789 1.30387 121.846 1.33236 121.903 1.37305C121.968 1.41374 122.025 1.4707 122.074 1.54395C122.107 1.60091 122.212 1.78402 122.391 2.09326C122.57 2.40251 122.802 2.80534 123.087 3.30176C123.372 3.79818 123.698 4.37191 124.064 5.02295C124.438 5.67399 124.833 6.36979 125.248 7.11035C125.671 7.85091 126.102 8.61995 126.542 9.41748C126.981 10.215 127.413 11.0125 127.836 11.8101C128.267 12.5994 128.678 13.3726 129.069 14.1294C129.467 14.8781 129.825 15.578 130.143 16.229C130.249 15.1629 130.338 14.0806 130.411 12.9819C130.485 11.8833 130.521 10.7562 130.521 9.60059C130.521 8.44499 130.477 7.26497 130.387 6.06055C130.297 4.85612 130.151 3.61914 129.948 2.34961C129.842 2.36589 129.74 2.37402 129.642 2.37402C129.545 2.37402 129.439 2.37402 129.325 2.37402C128.845 2.37402 128.344 2.34961 127.824 2.30078C127.661 2.28451 127.522 2.21533 127.408 2.09326C127.303 1.96305 127.25 1.81657 127.25 1.65381C127.25 1.47477 127.315 1.32422 127.445 1.20215C127.583 1.08008 127.734 1.01904 127.897 1.01904H127.97C128.198 1.0516 128.422 1.07601 128.641 1.09229C128.869 1.10042 129.097 1.10449 129.325 1.10449C129.887 1.10449 130.436 1.06787 130.973 0.994629C131.51 0.921387 132.035 0.815592 132.548 0.677246C132.58 0.66097 132.637 0.652832 132.719 0.652832C132.898 0.652832 133.044 0.717936 133.158 0.848145C133.28 0.970215 133.341 1.11263 133.341 1.27539ZM144.298 19V5.4L143.798 2.875L144.298 1.3H148.798V4.3L148.548 8.775H150.048L154.073 1.3H159.048V2.8L154.098 9.825L158.298 15.025L160.773 17.5V19H155.148L150.598 12.375L148.798 12.625V16L149.048 17.5L148.798 19H144.298ZM169.698 19.25C168.631 19.25 167.59 19.125 166.573 18.875C165.573 18.6083 164.665 18.1417 163.848 17.475C163.048 16.8083 162.406 15.8833 161.923 14.7C161.456 13.5167 161.223 12 161.223 10.15C161.223 8.3 161.456 6.78333 161.923 5.6C162.406 4.41667 163.048 3.49167 163.848 2.825C164.665 2.15833 165.573 1.7 166.573 1.45C167.59 1.18333 168.631 1.05 169.698 1.05C170.765 1.05 171.798 1.18333 172.798 1.45C173.815 1.71667 174.723 2.18333 175.523 2.85C176.34 3.51667 176.981 4.44167 177.448 5.625C177.931 6.80833 178.173 8.31667 178.173 10.15C178.173 11.9833 177.931 13.4917 177.448 14.675C176.981 15.8583 176.34 16.7833 175.523 17.45C174.723 18.1167 173.815 18.5833 172.798 18.85C171.798 19.1167 170.765 19.25 169.698 19.25ZM169.698 15C170.931 15 171.865 14.6333 172.498 13.9C173.131 13.1667 173.448 11.9167 173.448 10.15C173.448 8.38333 173.131 7.13333 172.498 6.4C171.865 5.66667 170.931 5.3 169.698 5.3C168.481 5.3 167.556 5.675 166.923 6.425C166.29 7.175 165.973 8.41667 165.973 10.15C165.973 11.8833 166.29 13.125 166.923 13.875C167.556 14.625 168.481 15 169.698 15ZM181.368 19V5.325L180.868 2.8L181.368 1.3H189.368C190.585 1.3 191.676 1.49167 192.643 1.875C193.626 2.24167 194.401 2.875 194.968 3.775C195.551 4.65833 195.843 5.88333 195.843 7.45C195.843 9.01667 195.535 10.2583 194.918 11.175C194.301 12.075 193.443 12.7167 192.343 13.1C191.26 13.4833 190.018 13.675 188.618 13.675H185.868V14.975L186.118 17.475L185.868 19H181.368ZM185.868 9.75H188.318C189.185 9.75 189.876 9.59167 190.393 9.275C190.91 8.94167 191.168 8.33333 191.168 7.45C191.168 6.83333 191.043 6.375 190.793 6.075C190.543 5.75833 190.193 5.55 189.743 5.45C189.31 5.35 188.801 5.3 188.218 5.3H185.618L185.868 9.75ZM199.043 19V5.3L198.793 2.8L199.043 1.3H203.568V19H199.043Z" fill="white"/>
</svg>
