<svg width="83" height="62" viewBox="0 0 83 62" fill="none" xmlns="http://www.w3.org/2000/svg">
<path fill-rule="evenodd" clip-rule="evenodd" d="M82.9951 44.9952C82.9384 40.2906 82.5277 30.688 81.6235 26.0329C81.1474 23.5637 80.1165 20.1859 78.1988 18.5532C77.3863 17.8651 76.1894 17.2039 74.0184 15.9671C74.0446 15.9086 70.5893 14.4693 70.4276 14.9461C70.2934 14.1258 70.1052 13.3158 69.8641 12.5218C70.1874 12.4139 70.0432 11.4424 70.1787 10.8937C70.3141 10.3449 70.8252 9.95364 71.0873 9.50387C71.677 8.50089 71.7774 6.75129 71.6682 5.58638C71.5634 4.50244 70.0258 2.08268 69.0123 1.68688C67.9989 1.29108 66.9592 1.30458 65.889 1.08419C65.0154 0.899783 64.3689 0.400539 63.3904 0.274604C62.4119 0.148669 61.8265 0.724373 60.9878 0.724373C60.1491 0.724373 59.2056 0.0542166 58.3275 0.000244309C57.8505 -0.00737598 57.387 0.163494 57.0231 0.481129C56.6592 0.798763 56.4195 1.24158 56.3487 1.72736C56.2428 2.45142 56.3261 3.19148 56.5902 3.87134C56.8544 4.5512 57.2897 5.1463 57.8514 5.59538C58.5353 6.04087 59.3039 6.3307 60.1054 6.44544C60.053 8.74376 60.2889 8.12758 60.0268 8.32998C59.7647 8.53237 59.8477 9.94915 59.9394 10.3404C59.9788 10.4979 60.0181 10.5563 60.2059 10.6193C60.1011 11.0691 59.3628 12.0406 60.0268 12.279C60.1142 12.3104 60.4636 12.3734 60.4986 12.3869C60.5881 12.8134 60.7198 13.2294 60.8917 13.6283C61.0612 14.0293 61.3087 14.3902 61.619 14.6889C61.9293 14.9875 62.2958 15.2174 62.6958 15.3644C63.3248 15.6162 63.8228 15.6837 64.1898 15.8141C64.2403 16.0001 64.2668 16.1922 64.2684 16.3853C62.7084 16.8075 61.2388 17.526 59.9351 18.5038C57.5718 20.4782 54.2126 28.6686 53.3346 29.5681C52.9939 29.9144 44.9694 31.5156 43.7856 32.3432C43.5541 32.5051 43.5453 32.6445 43.5759 32.9324C43.2876 32.9863 42.0732 33.2202 41.9378 33.4856C41.8978 33.6784 41.9084 33.8786 41.9684 34.0658C40.8875 33.858 39.7969 33.7078 38.7009 33.616C38.5004 33.6208 38.303 33.669 38.1217 33.7573C37.9403 33.8456 37.779 33.9722 37.6482 34.1288C37.2812 34.5785 37.5783 34.5021 37.1895 34.4391C36.3639 34.3177 33.4066 35.3386 33.0353 35.5185C33.0353 35.3566 33.0353 35.2442 32.8693 35.1542C32.3818 35.0088 31.8724 34.9569 31.3666 35.0013C31.0608 35.2127 32.2403 35.1407 32.7295 35.4016C32.7295 35.7479 32.7732 39.3011 32.7295 39.9982C32.7295 40.1242 32.7295 40.1062 32.6378 40.1197C32.201 40.1827 31.5719 40.1197 31.3797 40.2636C31.4496 38.6984 31.3797 34.8664 31.17 34.6415C31.0434 34.5066 28.7107 34.2187 26.1727 33.9039C26.1817 32.0132 26.0796 30.1237 25.867 28.2458C25.3996 24.0719 24.4211 19.1514 21.3633 16.6552C21.5405 16.7297 21.7355 16.747 21.9224 16.7047C22.1721 16.6027 22.4408 16.5596 22.7087 16.5787C23.1455 16.7002 23.2023 17.0285 24.2944 16.2729C24.3643 16.2234 24.5478 16.2369 24.6919 16.0885C25.1855 15.5803 24.9365 14.8921 24.9365 14.3794C25.0089 14.0308 25.0324 13.6734 25.0064 13.3179C24.993 13.2649 24.9679 13.2158 24.9331 13.1745C24.8982 13.1331 24.8545 13.1006 24.8055 13.0795C24.8055 12.9311 24.9584 12.6658 24.74 12.3779C25.0545 12.207 25.3952 12.0091 25.2205 11.6583C24.8867 11.1086 24.6114 10.5235 24.3992 9.91316C24.2638 9.39143 24.4473 8.72577 24.4385 8.16356C24.4385 7.77676 24.4779 7.3135 24.4385 6.89071C24.7755 6.64849 25.0329 6.30654 25.1768 5.91022C25.2086 5.75001 25.2018 5.5842 25.1569 5.42735C25.1119 5.2705 25.0303 5.12742 24.9191 5.01068C24.7749 4.91622 24.7443 5.01068 24.7487 4.73182C24.7645 4.63396 24.7602 4.53378 24.7361 4.43773C24.7121 4.34167 24.6687 4.25187 24.6089 4.1741C24.4254 3.9897 24.0061 3.7873 23.875 3.5984C23.6523 3.26107 23.5212 2.92375 23.1019 2.78882C22.8048 2.68987 22.5252 2.88327 22.3243 2.8158C22.0491 2.72585 21.7652 2.42 21.4507 2.74384C21.3804 2.78304 21.3034 2.80759 21.2239 2.81608C21.1445 2.82457 21.0642 2.81683 20.9876 2.79331C20.7255 2.56393 20.66 2.16813 20.2144 2.08268C19.9611 2.0377 19.4631 2.16364 19.2709 2.08268C18.956 1.84404 18.6086 1.65459 18.24 1.52047C17.8278 1.48005 17.412 1.51662 17.0125 1.62841C16.7329 1.68688 16.3747 1.6554 16.0821 1.70037C15.4749 1.79932 15.3001 2.33905 14.8983 2.59991C14.4964 2.86078 13.8193 2.86528 13.4349 3.44998C13.1116 3.94472 13.1815 4.47995 13.0548 4.9747C13.0024 5.18609 12.7229 5.42447 12.618 5.64035C12.3734 6.1396 12.5612 6.64334 12.5569 7.07512C12.5525 7.5069 12.2598 7.90269 12.3428 8.42443C12.4102 8.68499 12.5211 8.93153 12.6704 9.15305C12.6722 9.22596 12.6634 9.29874 12.6442 9.36894C12.511 9.72288 12.4836 10.1098 12.5656 10.4799C12.6371 10.8347 12.8035 11.1618 13.0461 11.4244C13.3519 11.6987 13.5091 11.6268 13.7319 12.0181C13.8256 12.225 13.9665 12.4055 14.1425 12.5443C14.4658 12.7692 14.8633 12.5758 15.0555 12.6747C15.1751 12.7398 15.3055 12.781 15.4399 12.7962C15.3324 12.8521 15.2395 12.9339 15.1691 13.0346C12.7927 13.3449 9.65633 15.1305 7.74303 17.5727C6.98732 18.5757 5.71616 20.024 5.24002 21.1844C2.68021 27.1393 3.92954 36.4766 2.89863 39.3596L0.34756 46.2096C0.225248 46.5379 -0.089267 48.1706 0.0243079 48.7328C0.207775 49.5693 1.05959 48.5214 1.57941 47.9277C1.25616 49.1106 1.26053 49.4209 1.09016 54.076C1.03775 55.5333 0.989695 57.121 0.967853 58.4568C0.966601 58.4664 0.967364 58.4761 0.970091 58.4854C0.972818 58.4946 0.977445 58.5032 0.98366 58.5104C0.989874 58.5177 0.997529 58.5235 1.00611 58.5274C1.01469 58.5313 1.02399 58.5333 1.03338 58.5332C1.15569 58.5332 1.07706 58.6772 1.25616 54.9621C1.38284 52.3489 1.52699 49.9112 1.5401 49.7133C1.60476 48.9445 1.76931 48.1881 2.02934 47.4644C3.24926 46.526 4.62203 45.8193 6.08309 45.3775C7.70917 44.9296 9.4263 44.9749 11.028 45.5079C11.4648 45.6563 12.6399 45.9577 13.0592 45.7553C13.9329 45.3055 16.1825 43.8168 16.5538 42.9128C16.7373 42.463 16.8858 42.0987 17.03 41.7613C17.6983 41.8243 18.5195 41.9997 19.249 42.0087C20.0659 42.0087 20.5901 41.8738 21.4943 41.0507C24.8186 41.1272 28.4836 41.0237 30.2309 40.9563C31.3972 41.406 34.9792 42.7238 35.8485 43.6099C36.1892 43.9517 36.3901 44.9052 36.5124 45.9667C36.6735 47.2354 36.7159 48.5171 36.6391 49.7942C34.2453 50.2665 31.1962 51.0131 28.8374 51.6158C28.7053 51.5779 28.5672 51.5672 28.4311 51.5843C27.8065 51.6518 28.0992 51.9126 27.8938 51.2605C27.9037 51.2629 27.9139 51.2627 27.9237 51.26C27.9334 51.2573 27.9424 51.2522 27.9497 51.245C27.9571 51.2379 27.9626 51.229 27.9658 51.2192C27.969 51.2093 27.9698 51.1988 27.9681 51.1885C27.9617 50.324 27.8635 49.4629 27.6754 48.6203C27.6449 48.4944 27.4308 48.4314 27.2998 48.3909C25.8844 47.9682 20.4197 47.4015 19.2185 47.7208C18.4365 47.9322 13.0243 50.8107 12.7796 51.4224C12.535 52.0341 11.871 55.7132 11.7487 56.3923C8.9181 57.2424 6.68591 57.944 5.59385 58.3264C5.5848 58.3294 5.57644 58.3342 5.56928 58.3407C5.56213 58.3472 5.55633 58.355 5.55224 58.3639C5.54815 58.3727 5.54586 58.3823 5.5455 58.3921C5.54514 58.4019 5.54673 58.4117 5.55016 58.4208C5.60258 58.5872 7.03537 57.8226 21.7127 53.8511C21.8602 54.2389 22.0492 54.6085 22.2763 54.9531C21.8394 55.061 21.3458 55.2589 21.2017 55.6727C21.176 55.7601 21.1718 55.8526 21.1893 55.9421C21.2069 56.0315 21.2456 56.1151 21.3021 56.1854C21.6605 56.5986 22.1382 56.8824 22.665 56.995C23.5887 57.2334 24.5485 57.2854 25.4913 57.148C26.3966 57.0666 27.2887 56.8702 28.1472 56.5633C29.082 56.1585 29.0209 55.5558 28.6627 55.2814C28.2935 55.0579 27.8879 54.9055 27.4658 54.8316C27.8633 54.0895 27.492 54.4179 28.086 54.2694C28.4222 54.1868 28.7293 54.0093 28.9728 53.7567C29.3572 53.3519 29.6149 52.3534 29.248 51.8722C31.0914 51.4224 38.5044 49.5334 40.3172 49.6728C43.6065 49.9202 67.5227 60.0445 73.184 61.9965C73.1929 61.9994 73.2023 62.0005 73.2116 61.9998C73.2209 61.999 73.23 61.9963 73.2383 61.992C73.2466 61.9876 73.254 61.9815 73.2601 61.9742C73.2661 61.9669 73.2707 61.9584 73.2736 61.9492C73.2764 61.9401 73.2775 61.9304 73.2768 61.9208C73.276 61.9113 73.2734 61.9019 73.2692 61.8934C73.2649 61.8848 73.2591 61.8772 73.252 61.871C73.2448 61.8647 73.2366 61.86 73.2277 61.857C71.7469 61.3263 68.4445 59.9725 64.4912 58.3443C64.6834 57.8676 65.1901 56.3294 65.5832 55.7986C65.7449 55.5828 65.7361 55.5648 67.1777 55.6502C70.9562 55.8751 74.2848 55.7717 77.9105 54.5798C80.1252 53.8467 81.2129 52.1555 81.8419 49.8932C81.9686 49.9337 82.3137 50.0506 82.436 50.0776C82.4709 50.0863 82.5073 50.0863 82.5423 50.0777C82.5772 50.0691 82.6096 50.0521 82.6369 50.0281C83.0694 49.5738 82.9951 45.8812 82.9951 44.9952ZM23.246 14.069C23.1278 14.1134 23.0002 14.1243 22.8765 14.1005C22.7528 14.0768 22.6375 14.0193 22.5427 13.9341C22.4484 13.8564 22.3746 13.7555 22.328 13.6408C22.2815 13.5261 22.2637 13.4011 22.2763 13.2774C22.2705 13.259 22.272 13.2388 22.2806 13.2216C22.2892 13.2043 22.3042 13.1912 22.3221 13.1852C22.3401 13.1793 22.3596 13.1809 22.3764 13.1898C22.3932 13.1986 22.4059 13.214 22.4117 13.2325C22.6273 13.5519 22.9319 13.7965 23.2853 13.9341C23.2966 13.9437 23.3048 13.9565 23.3091 13.9709C23.3133 13.9852 23.3133 14.0006 23.3091 14.015C23.3049 14.0294 23.2967 14.0422 23.2855 14.0518C23.2742 14.0614 23.2605 14.0674 23.246 14.069ZM19.1442 10.1291C19.1591 9.99692 19.2107 9.872 19.2927 9.76924C19.3888 9.67029 19.6815 9.73326 19.8868 9.58933C20.0404 9.46438 20.1569 9.29768 20.2232 9.10808C20.4678 8.60883 20.8566 8.99564 21.3982 8.17256C21.5365 7.94109 21.6438 7.69146 21.7171 7.43044C22.0229 7.28201 22.4204 7.4979 22.8048 6.84574C22.9315 6.62535 23.0145 6.39597 23.2416 6.333C23.412 6.5219 23.5824 7.23254 24.2726 6.95818C24.2726 7.20105 24.2201 8.42892 24.207 8.52787C24.1504 8.8243 24.1197 9.12535 24.1153 9.42741C24.1153 10.327 24.5172 10.8217 24.9627 11.7617C25.0326 11.9101 24.6657 12.0541 24.4822 12.1575C24.2234 12.0593 23.9556 11.9885 23.6828 11.9461C22.8354 11.7347 22.1583 12.189 21.4288 12.3959C21.3052 12.3967 21.1819 12.3816 21.0619 12.3509C20.7867 12.3239 20.4984 12.6118 20.1096 12.6658C20.0082 12.6862 19.9032 12.6749 19.8082 12.6332C19.7132 12.5915 19.6325 12.5214 19.5767 12.4319C19.5296 12.2671 19.496 12.0986 19.4762 11.9281C19.4369 11.7662 19.3888 11.6043 19.3539 11.4469C19.284 11.123 19.4893 10.9971 19.249 10.5473C19.0831 10.2415 19.0874 10.3764 19.1442 10.1291ZM19.3102 19.3044C19.6043 18.7296 19.8442 18.1272 20.0266 17.5053C20.2712 19.0705 20.4023 19.8621 20.4634 20.2579C20.1445 19.9835 20.114 19.8801 19.3102 19.2864V19.3044ZM20.6207 21.1349C20.8347 22.4842 20.7867 22.1784 20.826 22.4572C20.7216 22.2548 20.594 22.0661 20.4459 21.895C20.4948 21.5979 20.5168 21.2968 20.5115 20.9955L20.6207 21.1349ZM19.0394 21.9445C18.7785 21.6652 18.5404 21.3644 18.3273 21.045C18.5433 20.5249 18.7869 20.0174 19.0568 19.5247C19.9742 20.2489 19.9043 20.2399 20.1314 20.5322C20.1648 20.9153 20.1648 21.3006 20.1314 21.6836L19.0394 21.9445ZM19.0962 22.2368C19.616 23.4287 19.8257 25.3852 19.9349 26.6896C19.3896 25.0467 18.6564 23.4765 17.7507 22.012C17.9278 21.7628 18.0856 21.4996 18.2225 21.2249C18.4024 21.5699 18.6177 21.8941 18.8646 22.1919C18.8962 22.2123 18.9317 22.2253 18.9687 22.23C19.0057 22.2346 19.0433 22.2308 19.0787 22.2189L19.0962 22.2368ZM16.5014 12.6118C16.537 12.6232 16.5736 12.6307 16.6106 12.6343C16.7123 12.6296 16.8098 12.5911 16.8886 12.5246C16.9673 12.4582 17.023 12.3672 17.0474 12.2655C17.1173 12.2205 17.1698 12.171 17.1654 12.0855C17.161 12.0001 16.2218 10.6778 17.4187 9.99862C17.5243 9.98684 17.6304 10.015 17.7172 10.0779C17.8041 10.1409 17.8657 10.2342 17.8905 10.3404C17.947 10.5804 18.0664 10.7997 18.2356 10.9746C18.2488 11.2621 18.2854 11.548 18.3448 11.8292C18.3798 11.9956 18.2574 12.2115 18.2312 12.4409C18.1701 12.8906 18.5938 13.3854 18.7467 13.7902C18.952 14.3344 18.8122 14.9191 19.3015 15.4004C19.7907 15.8816 19.699 15.4858 19.8693 16.5653C19.6655 17.4136 19.3847 18.2403 19.0306 19.0345C18.537 18.3149 16.0384 14.114 15.536 13.156C15.7239 13.0391 16.3092 12.6972 16.4839 12.5938L16.5014 12.6118ZM15.1909 13.21C15.5098 13.9746 18.6855 19.1559 18.6855 19.2009C18.5326 19.7001 17.6546 21.7691 17.2396 21.994C16.3267 21.3238 13.8237 14.2759 13.6446 13.6373C14.1374 13.4199 14.6558 13.2702 15.1866 13.192L15.1909 13.21ZM19.699 33.0673C19.2185 32.9099 17.6677 27.4902 16.283 24.4902C15.453 22.6911 13.8237 19.7181 12.0458 18.9265C10.1237 18.0765 6.5505 20.1139 6.17046 22.7586C5.9384 24.5027 6.0755 26.2779 6.57234 27.9624C8.63416 34.3806 11.4255 39.499 17.3882 40.9652C17.5279 40.6774 17.0343 40.9158 20.957 41.0237C20.7648 41.1777 20.5602 41.3146 20.3455 41.433C19.6116 41.8423 18.2181 41.514 17.1872 41.397L17.3183 41.1047C11.1765 39.6924 8.30217 34.3581 6.24472 28.0614C5.7251 26.3261 5.57609 24.4957 5.80789 22.6956C6.20104 19.8351 9.90096 17.7841 11.9497 18.4948C12.472 18.6952 12.9503 19.001 13.3563 19.3943C13.1614 17.592 13.1132 15.7761 13.2121 13.9656C13.2924 13.8922 13.3786 13.826 13.4698 13.7677C13.8455 15.117 15.986 21.5667 17.0736 22.2818C17.1426 22.3238 17.2234 22.3404 17.3028 22.329C17.3821 22.3176 17.4553 22.2787 17.5105 22.2189C18.4933 23.9595 19.4107 25.7406 19.7776 27.6161C19.9852 28.6512 20.0382 29.7129 19.9349 30.7645C19.3146 28.1198 17.5978 24.2968 15.6452 22.4662C17.6415 26.0149 19.0962 31.691 19.747 32.8109C20.0074 32.8848 20.2733 32.936 20.5421 32.9638C20.4285 30.2652 20.3411 24.6386 19.2316 22.1964C19.367 22.1964 20.3236 21.985 20.3236 21.985C20.4962 22.1983 20.6428 22.4324 20.7605 22.6821C20.9396 23.0374 20.8784 22.7676 21.1492 24.6566C22.4597 33.3776 22.3855 33.3327 22.5558 33.4271C21.6996 33.3147 20.1926 33.2202 19.699 33.0673ZM22.5995 31.2682C20.8959 21.3103 20.8784 21.0315 20.162 16.8756C20.2188 16.6777 20.2625 16.5158 20.2931 16.3988C20.5639 16.7542 22.0404 18.7017 22.202 19.1289C21.9617 19.3493 21.0968 19.7271 21.3589 20.0285C21.4769 20.1679 22.451 21.036 22.7568 21.3508C22.9228 22.0749 22.6607 30.0089 22.5995 31.2682ZM11.9235 56.3339C12.0458 55.7627 12.8452 52.0476 13.0679 51.5258C13.2296 51.139 18.4977 48.2605 19.3277 48.0446C20.5246 47.7208 27.042 48.3864 27.4963 48.6878C27.7014 49.4723 27.8216 50.2778 27.8545 51.0896C27.1207 50.19 21.4419 50.4284 21.3808 51.6967C21.3796 51.7384 21.388 51.7797 21.4055 51.8173C21.423 51.8548 21.449 51.8875 21.4812 51.9126C21.4784 52.4563 21.5385 52.9983 21.6603 53.5273C18.3055 54.4583 14.9507 55.4298 11.9235 56.3339ZM28.5797 55.6322C28.8024 56.3744 26.1859 56.6937 25.4301 56.7836C24.5328 56.9152 23.6193 56.8679 22.7393 56.6442C22.3549 56.5363 21.6429 56.2484 21.5074 55.8886C21.4419 55.7177 21.656 55.5558 21.8132 55.4703C22.0125 55.3632 22.2237 55.2816 22.4422 55.2274C22.6802 55.5651 22.9993 55.8332 23.3683 56.0055C23.8051 56.2034 25.6704 56.064 26.3169 55.9201C26.6008 55.8571 26.9022 55.7717 27.3303 55.0655C27.5924 55.106 28.5054 55.3849 28.5797 55.6322ZM26.4916 55.4748C26.164 55.6772 23.8488 55.8391 23.495 55.6907C22.3243 55.2095 21.6865 53.3294 21.6385 52.0026C22.5902 52.2182 23.5669 52.2924 24.539 52.223C25.2685 52.124 26.994 51.8182 27.6274 51.4899C28.0074 52.9651 27.2037 55.0475 26.4916 55.4748ZM28.9335 53.154C28.8152 53.3948 28.6491 53.6074 28.4459 53.7779C28.2428 53.9483 28.007 54.0729 27.7541 54.1435C27.9826 53.5125 28.0909 52.8422 28.0729 52.169C28.1074 52.0946 28.1575 52.0291 28.2195 51.977C28.2815 51.9249 28.354 51.8877 28.4317 51.8679C28.5094 51.8481 28.5904 51.8463 28.6688 51.8626C28.7473 51.8789 28.8213 51.9129 28.8854 51.9621C29.2131 52.1825 29.0689 52.7717 28.9335 53.154ZM73.9266 16.0975C76.8796 17.7751 78.1901 18.4768 79.1336 19.9475C78.54 19.422 77.7847 19.1304 77.0019 19.1244C74.2018 19.0255 72.8258 23.2938 72.1094 26.0554C70.9213 30.661 71.6508 36.49 71.5852 37.3446C70.8295 38.0687 66.9592 40.1377 65.2294 41.1047C65.4697 40.0612 66.3258 36.0358 66.885 34.4481C67.6363 32.3162 69.7986 27.3507 69.9428 26.2713C69.9821 25.9519 69.9209 25.9115 69.0036 25.2998C69.3574 25.2998 70.3141 25.2008 70.6111 25.1424C70.7378 25.1424 70.8033 25.0839 70.8514 24.8095C71.013 23.856 71.3275 15.9985 71.3537 15.162C71.3231 15.144 73.551 15.8771 73.9397 16.0975H73.9266ZM70.5587 15.0225C70.7576 15.0078 70.9575 15.0306 71.1484 15.09C70.93 18.3508 70.7116 24.0854 70.5063 24.8185C70.2748 24.8635 69.4535 24.922 69.1346 24.9445C68.4532 24.9849 68.4357 24.9445 68.3658 25.0434C68.2959 25.1424 68.392 25.2773 68.5187 25.3672C68.7415 25.5292 69.4841 26.0104 69.5889 26.1363C69.4881 26.6718 69.3329 27.195 69.1259 27.697C66.6578 34.4436 66.8064 32.3702 65.1464 39.7689C65.2573 36.2247 65.5753 32.6906 66.0987 29.1858C66.4482 27.2563 66.8719 25.4437 68.2828 21.3148C68.8376 19.7181 69.9865 16.6597 70.0301 16.6777C70.2493 16.1402 70.4303 15.587 70.5718 15.0225H70.5587ZM62.971 42.6249C63.054 42.9577 63.054 42.9128 63.0278 42.9173L62.8924 42.8903C62.8924 42.8453 62.6565 38.3296 62.7701 36.4631C62.9754 33.1573 63.2375 29.5726 63.4821 26.1184C63.6 24.4452 64.0456 20.8516 64.0325 20.9865L64.4693 20.6537C64.6506 21.026 64.8564 21.3852 65.0853 21.7286C65.1726 21.85 65.2906 22.003 65.4303 22.0165C65.3342 22.8305 63.8796 32.8739 63.4515 39.2921C63.2156 42.7868 63.4515 42.0447 63.1064 42.364C63.0655 42.3925 63.0326 42.4316 63.0111 42.4775C62.9896 42.5233 62.9803 42.5742 62.9841 42.6249H62.971ZM65.5658 22.021C65.8978 22.021 66.256 21.3013 66.6928 20.9955C66.8631 21.1799 67.3786 22.0614 67.7193 22.1784C66.2734 26.2623 64.7271 31.9564 64.7314 41.3565C64.3601 41.5634 63.8578 41.8603 63.4865 42.0807C63.7049 38.2531 65.2862 25.6911 65.5789 22.021H65.5658ZM70.1525 15.9761C70.0127 16.4258 67.9377 21.5847 67.7936 21.8231C67.5683 21.5957 67.3677 21.3438 67.1951 21.0719C66.8282 20.5637 66.7015 20.3973 66.0769 21.1214C67.0029 19.3223 68.8114 17.4963 69.5715 16.5877C70.2966 15.7332 70.2005 15.8051 70.1525 15.9761ZM60.3675 6.5309C60.6934 6.63424 61.042 6.63424 61.3679 6.5309C61.6172 6.4168 61.8925 6.37632 62.1629 6.41396C62.5446 6.59514 62.9371 6.75137 63.338 6.88172C63.8337 6.87722 64.3286 6.83664 64.8188 6.76028C65.0434 6.86835 65.2337 7.03982 65.3675 7.25478C65.5012 7.46974 65.573 7.71936 65.5745 7.97466C64.7604 8.09638 63.9745 8.36916 63.255 8.77975C63.2108 8.63207 63.1232 8.50215 63.0043 8.40789C62.8853 8.31364 62.7409 8.2597 62.591 8.25352C61.8747 8.16477 61.1512 8.15573 60.4331 8.22653C60.3693 7.65181 60.3474 7.07299 60.3675 6.49492V6.5309ZM60.1972 10.3674C60.088 10.1695 59.8739 8.63582 60.0923 8.46941C60.1273 8.51438 59.9744 8.37495 60.8044 8.38395C61.3893 8.40296 61.9728 8.45702 62.5517 8.54587C62.9448 8.61783 63.0103 8.80223 62.9885 9.19353C62.9885 9.91766 63.0103 9.8457 62.9885 10.0706C62.9885 10.1336 62.9623 10.3 62.9142 10.3359C62.0157 10.5034 61.0952 10.5019 60.1972 10.3314V10.3674ZM64.2116 15.4363C63.0147 15.0855 61.9183 15.0405 61.18 13.4753C60.7039 12.4679 60.966 12.1755 60.5335 12.0451C60.3732 12.0254 60.2151 11.9892 60.0618 11.9371C60.0618 11.6358 60.4287 11.0061 60.4986 10.6868C61.224 10.7761 61.9573 10.7761 62.6827 10.6868C63.1195 10.6193 63.3511 10.5428 63.2812 9.62981V8.93267C63.967 8.71678 65.4216 8.36146 65.5963 8.31198C65.5974 8.55666 65.6297 8.80012 65.6924 9.03611C65.7607 9.18451 65.8785 9.30265 66.0244 9.36894C66.0478 9.37962 66.0732 9.38461 66.0987 9.38353C66.1242 9.38245 66.1491 9.37532 66.1715 9.3627C66.1939 9.35008 66.2132 9.33231 66.2278 9.31077C66.2425 9.28923 66.2521 9.2645 66.256 9.23851C66.3564 8.82022 66.4351 8.44692 66.4656 8.26701C66.4656 8.36596 66.5049 7.95217 66.7933 7.79025C67.2301 7.55637 67.9072 8.07811 67.9552 8.81573C67.9814 9.17554 67.632 9.82771 67.3699 10.5788C67.2126 11.0286 68.1649 11.222 68.4969 11.3884C68.6192 11.6808 68.5449 12.0091 68.7109 12.1845C68.9601 12.3426 69.2333 12.4566 69.519 12.5218C69.8204 13.516 70.0396 14.5346 70.1743 15.5668C69.0647 16.7677 68.8158 17.0555 68.5187 17.3658C67.3583 18.5012 66.3741 19.8133 65.6007 21.2563C65.2906 19.3808 64.7009 17.7257 64.6353 17.1814C64.5829 16.7587 64.6703 16.012 64.4781 15.6117C64.4489 15.5641 64.4099 15.5237 64.3639 15.4934C64.3178 15.463 64.2658 15.4436 64.2116 15.4363ZM64.3383 16.9611C64.548 17.7616 65.1071 20.3613 65.2687 21.4048C65.0023 20.991 64.6746 20.3073 64.6746 20.3073C64.6633 20.2829 64.6467 20.2615 64.6262 20.2446C64.6057 20.2277 64.5818 20.2158 64.5561 20.2097C64.5305 20.2037 64.5039 20.2036 64.4783 20.2096C64.4527 20.2156 64.4287 20.2275 64.4082 20.2444L64.0893 20.4962C64.2116 19.3268 64.3339 18.1349 64.3514 16.9611H64.3383ZM64.2116 16.5608C64.1723 19.8711 63.5302 22.8215 63.2681 26.1184C62.3944 37.2007 62.3944 36.6565 62.4818 40.5784C62.01 37.0343 61.3504 30.1393 60.9878 26.4017C61.2456 26.1993 62.4905 25.2233 62.6303 24.9265C62.6958 24.7825 62.6303 24.6341 62.3158 24.6341C61.7691 24.6766 61.22 24.6766 60.6733 24.6341C61.0053 23.2398 62.9055 18.1529 63.4122 16.8036C63.6699 16.7272 63.884 16.6507 64.2116 16.5608ZM43.9035 32.6805C44.5806 31.9474 53.0769 30.2382 53.5399 29.775C54.1908 29.1003 55.9818 24.913 57.8077 21.7376C59.3585 19.039 60.2015 18.0405 63.22 16.8936C62.4949 18.7421 61.0796 22.3583 60.4418 24.4632C60.4025 24.5936 60.3457 24.7376 60.4418 24.823C60.682 25.0659 61.6867 24.922 62.2634 24.931C61.8571 25.3493 60.7388 26.1993 60.7388 26.1993C60.7173 26.2157 60.7003 26.2376 60.6896 26.2629C60.6788 26.2881 60.6747 26.3158 60.6777 26.3432C60.8611 28.4302 61.9882 40.8843 62.4774 42.6924L61.6911 42.4855C61.1829 42.2285 60.631 42.0758 60.0661 42.0357C61.0621 36.9353 60.7039 35.5095 60.8262 32.73C60.8262 32.4421 59.6468 26.6581 59.638 26.6131C59.638 26.594 59.6307 26.5757 59.6176 26.5622C59.6045 26.5487 59.5867 26.5411 59.5681 26.5411C59.5496 26.5411 59.5318 26.5487 59.5187 26.5622C59.5056 26.5757 59.4982 26.594 59.4982 26.6131C59.5725 28.5831 60.1142 30.4586 60.4855 32.6085C59.0876 33.9578 57.6243 35.8244 55.2436 36.4316C53.7714 36.8139 46.8783 38.3611 45.961 38.4286C45.2096 37.565 43.7856 33.2562 43.9035 32.6805ZM43.0736 33.2787C43.0736 33.2787 43.5978 33.1483 43.589 33.0628C43.9969 34.6432 44.5107 36.1926 45.1266 37.6999C44.7295 37.8264 44.3235 37.9211 43.9123 37.9833C43.6633 37.9833 43.838 38.2082 43.2308 36.7239C42.8567 35.8012 42.5358 34.8565 42.2698 33.8949C42.1955 33.5845 42.0689 33.616 43.0736 33.2787ZM37.9583 34.2277C38.3034 33.8364 38.5524 33.7779 42.0033 34.2277C42.3103 35.3001 42.6823 36.3517 43.1172 37.3761C42.4071 37.9461 41.5931 38.3636 40.7234 38.604C40.6972 38.4106 40.6361 38.469 40.7846 38.4825C40.91 38.4862 41.0347 38.4608 41.1493 38.4082C41.264 38.3557 41.3657 38.2773 41.447 38.1789C41.5284 38.0805 41.5872 37.9646 41.6192 37.8396C41.6512 37.7147 41.6556 37.584 41.632 37.4571C41.5971 37.0073 40.3478 36.0718 39.9939 35.8154C40.204 35.8599 40.4219 35.8428 40.623 35.7659C40.6409 35.76 40.6558 35.7469 40.6644 35.7296C40.673 35.7123 40.6746 35.6922 40.6688 35.6737C40.663 35.6552 40.6504 35.6399 40.6336 35.631C40.6168 35.6221 40.5972 35.6205 40.5793 35.6265C39.8454 35.8244 39.1028 34.9248 39.0067 34.8979C38.6704 34.8124 38.88 35.6175 38.1331 36.0987C38.0239 36.1707 37.6045 36.0088 37.5783 35.7884C37.5233 35.5156 37.5289 35.2335 37.5947 34.9632C37.6605 34.693 37.7848 34.4415 37.9583 34.2277ZM33.0746 35.6445C33.6337 35.4376 36.4819 34.5291 37.3031 34.7449C37.2107 35.1042 37.1899 35.4791 37.2419 35.8469C37.2697 35.9637 37.3216 36.073 37.3941 36.1673C37.4666 36.2616 37.558 36.3387 37.662 36.3934C37.7661 36.448 37.8804 36.4789 37.9971 36.4839C38.1138 36.489 38.2302 36.4681 38.3384 36.4226C38.6428 36.2135 38.8716 35.9068 38.9892 35.55C39.378 35.7929 41.3088 37.1107 41.2826 37.5785C41.2826 37.8933 41.1209 38.1587 40.8152 38.1317C40.557 38.0365 40.313 37.9048 40.09 37.7404C39.8657 37.5559 39.6292 37.3876 39.3824 37.2367C39.3431 37.2157 39.2977 37.2104 39.2549 37.2218C39.2121 37.2333 39.1749 37.2606 39.1505 37.2986C39.1261 37.3365 39.1162 37.3825 39.1227 37.4275C39.1292 37.4725 39.1517 37.5135 39.1858 37.5425C39.1858 37.5425 39.5134 37.7944 39.876 38.0373C40.422 38.487 40.6099 38.9008 39.9328 39.1122C39.8268 39.1446 39.7154 39.1541 39.6057 39.1402C39.496 39.1263 39.3902 39.0892 39.295 39.0312C39.1837 38.8049 39.036 38.5996 38.8582 38.4241C38.7788 38.2139 38.6366 38.0353 38.452 37.914C38.2674 37.7927 38.0502 37.735 37.8316 37.7494C37.6045 37.7764 37.587 37.8933 37.6089 37.7854C37.7137 37.2502 37.0497 36.9263 36.5867 37.0163C35.8397 37.1692 35.4247 38.1857 35.1801 38.9278C35.0316 39.2516 35.6169 38.8918 33.0615 39.8273C33.1335 38.5211 33.1335 37.2116 33.0615 35.9053C33.0397 35.595 33.0309 35.667 33.0746 35.6445ZM35.3024 38.9773C35.5427 38.4465 36.0712 37.4526 36.6347 37.3626C36.8532 37.3221 37.2943 37.475 37.2463 37.7044C37.1517 38.3135 36.8789 38.8783 36.4644 39.3236C36.5168 39.4135 35.1495 39.4405 35.3024 38.9773ZM37.7749 38.1182C37.8797 38.0103 38.4913 38.2307 38.5087 38.568C38.5393 39.1302 38.0195 39.8004 37.5695 40.1107C37.4254 40.2141 36.8575 39.7374 36.7265 39.544C37.0385 39.0407 37.3891 38.5639 37.7749 38.1182ZM38.5131 39.6159C38.5437 39.571 38.9805 38.5725 39.0548 39.4001C39.0853 39.7239 38.6179 39.8948 38.3122 39.8498C38.3832 39.7757 38.4503 39.6976 38.5131 39.6159ZM48.2281 45.4629C46.3891 46.9337 46.127 48.8677 46.4284 51.175C43.4754 50.0956 41.2214 49.3759 40.3434 49.2995C39.155 49.3247 37.9723 49.4754 36.8138 49.7492C36.9318 48.5394 36.8794 44.2935 36.045 43.421C35.2107 42.5484 32.1835 41.3566 31.0434 40.9068H31.3011C31.4016 40.8528 31.2356 40.3805 31.6156 40.3536C32.0743 40.3266 32.7164 40.5065 32.9261 40.3176C32.9887 40.2196 33.0249 40.1063 33.0309 39.9893C33.5114 39.8318 34.6428 39.4765 35.2151 39.3236C35.4074 39.4808 35.6327 39.5899 35.873 39.6422C36.1133 39.6945 36.3621 39.6886 36.5998 39.6249C36.7308 39.9263 37.3424 40.5874 37.7224 40.3716C37.8279 40.3089 37.9286 40.2382 38.0238 40.1602C38.3002 40.239 38.5936 40.2264 38.8626 40.1242C39.0049 40.0842 39.1319 40.0003 39.2264 39.8837C39.3209 39.767 39.3784 39.6234 39.3911 39.472C39.6198 39.5397 39.8637 39.5288 40.0859 39.4412C40.3081 39.3536 40.4966 39.1939 40.623 38.9863C41.5807 38.7647 42.477 38.3217 43.2439 37.6909C43.3269 37.8753 43.4055 38.0328 43.4711 38.1407C43.4928 38.1786 43.5233 38.2104 43.5599 38.2332C43.5965 38.256 43.638 38.269 43.6808 38.2711C44.1176 38.3161 45.1485 37.8214 45.1922 37.8214C45.3418 38.1428 45.5281 38.4447 45.7469 38.7209C45.8256 38.8019 45.9566 38.7794 46.0789 38.7659C47.3457 38.6085 53.636 37.2142 55.3178 36.7824C57.5019 36.2202 58.926 34.6415 60.4243 33.1393C60.3413 35.7209 60.6689 36.9803 59.6773 42.0492C57.6155 42.3132 55.5726 42.7158 53.5618 43.2546C51.8014 43.7718 49.7046 44.2845 48.2281 45.4674V45.4629ZM54.6014 54.3369L54.4485 54.2739C54.4136 51.9891 54.964 49.8842 56.589 48.3235C56.7328 48.3612 56.8786 48.3897 57.0258 48.4089C55.3528 49.8842 54.6932 52.0341 54.6014 54.3369ZM61.4989 46.8392C60.1884 47.6308 60.5728 48.0581 59.3716 48.1885C58.4092 48.2566 57.4423 48.1793 56.5016 47.9592C55.7415 47.7073 56.1434 47.4059 56.9384 47.316C57.0739 47.3385 58.1397 47.3475 58.6421 47.316C58.6831 47.3092 58.7205 47.2877 58.7475 47.2551C58.7744 47.2225 58.7893 47.1811 58.7893 47.1383C58.7893 47.0955 58.7744 47.0541 58.7475 47.0216C58.7205 46.989 58.6831 46.9674 58.6421 46.9607C58.0755 46.9105 57.5062 46.9014 56.9384 46.9337C56.5768 46.9283 56.2167 46.8846 55.8638 46.8033C55.8287 46.7443 55.8083 46.6773 55.8045 46.6082C55.8007 46.5391 55.8136 46.4702 55.842 46.4075C56.3007 46.1241 58.463 46.2321 58.8212 46.2186C58.8633 46.2117 58.9017 46.1896 58.9294 46.1562C58.9572 46.1228 58.9724 46.0803 58.9724 46.0364C58.9724 45.9925 58.9572 45.95 58.9294 45.9166C58.9017 45.8832 58.8633 45.8611 58.8212 45.8542C58.1044 45.8699 57.3875 45.8308 56.6763 45.7373C56.3706 45.6833 55.6585 45.5259 55.711 45.2066C55.8071 44.6309 56.9559 45.1256 57.764 45.0671C58.3342 45.0584 58.8986 44.9488 59.4327 44.7433C59.4727 44.7308 59.5062 44.7024 59.5258 44.6645C59.5455 44.6265 59.5497 44.5821 59.5376 44.5409C59.5254 44.4998 59.4979 44.4653 59.461 44.445C59.4241 44.4248 59.381 44.4204 59.341 44.433C58.7944 44.5683 58.2399 44.6674 57.681 44.7298C57.6456 44.7223 57.6141 44.7016 57.5923 44.6718C57.5706 44.642 57.5602 44.6051 57.5631 44.5679C57.5693 44.4839 57.59 44.4016 57.6243 44.325C57.8495 44.0226 58.152 43.7905 58.4979 43.6549C59.7385 43.1241 60.682 43.6549 62.1017 43.7493C62.2799 44.581 62.506 45.401 62.7788 46.2051C62.3435 46.3843 61.9215 46.5962 61.5164 46.8392H61.4989ZM63.1676 46.2905C63.0147 45.7598 62.4468 43.8348 62.39 43.385C62.6155 43.2716 62.853 43.1856 63.0977 43.1286C63.2986 43.8978 63.6699 45.2336 63.9102 45.9802C63.6758 46.1009 63.4335 46.2046 63.1851 46.2905H63.1676ZM64.4038 46.2905C64.1723 45.7508 63.4865 43.2366 63.3292 42.6069C64.0806 41.9727 70.8252 38.559 71.8299 37.52C72.1444 37.1962 71.0829 31.1018 72.3278 26.0869C72.9918 23.3883 74.2936 19.1469 76.98 19.2414C78.8234 19.3044 79.8762 20.7526 80.4747 22.5607C81.5711 25.889 81.1343 30.5081 81.1343 30.4631C81.1343 34.2367 79.8238 39.9083 77.2028 42.6069C75.224 44.6489 65.6357 46.5199 64.4213 46.304L64.4038 46.2905ZM82.4142 49.7088C81.9031 49.5693 79.5573 48.6788 78.5657 48.5933C73.4155 48.1436 73.7344 47.1361 70.55 45.6968C72.2973 45.2471 76.1807 44.2036 77.4693 42.8903C80.1907 40.1107 81.4488 34.3806 81.4357 30.5036C81.5368 29.1458 81.5368 27.782 81.4357 26.4242C82.4011 32.0643 82.9951 47.9996 82.4142 49.7088Z" fill="black"/>
</svg>
