<svg width="61" height="62" viewBox="0 0 61 62" fill="none" xmlns="http://www.w3.org/2000/svg">
<path fill-rule="evenodd" clip-rule="evenodd" d="M60.9946 52.0049C60.9486 51.7372 60.5443 51.499 60.2847 51.3521C59.6667 51.0257 58.7201 50.6406 58.0266 50.3468C58.1547 50.1216 58.7497 49.0903 58.7332 48.8651C58.7332 48.6888 58.5295 48.5191 58.4045 48.4049C56.7611 47.0994 49.1191 43.9661 48.2842 43.4668C48.5307 42.2559 48.7378 40.9439 48.9087 39.622C49.3853 39.4621 49.9211 39.2238 50.4338 39.0345C51.1767 38.9105 52.6788 38.4144 53.1061 38.31C53.7206 38.122 54.3075 37.8542 54.8514 37.5136C56.1926 36.7227 57.3731 35.6899 58.3322 34.4685C58.6872 34.0409 59.647 33.7309 59.2131 32.5853C58.9896 31.988 58.4341 31.4168 58.1975 30.9534C58.0298 30.627 57.8425 30.2582 57.6321 29.8894C57.7195 29.8216 57.7846 29.7296 57.8191 29.625C57.8537 29.5203 57.8561 29.4079 57.8261 29.3019C57.7077 28.9559 54.8679 25.7378 53.5531 25.591C53.1968 25.6347 52.8521 25.7455 52.5375 25.9174C52.3994 25.5388 52.2614 25.2026 52.189 25.059C51.742 24.1973 51.2786 23.3292 50.7757 22.4936C51.1767 22.4675 51.9951 22.4023 52.3271 22.1868C52.5638 22.0334 52.5276 21.8605 52.4257 21.4949C52.6328 21.4264 52.7873 21.3578 52.8727 21.3219C53.9673 20.8683 54.2927 19.0373 54.411 17.8819C54.5162 16.8505 55.0453 8.53113 55.0684 8.46586C55.397 8.10684 55.8638 7.06569 56.1037 6.67077C56.1726 6.53445 56.2128 6.38566 56.2221 6.23342C56.228 6.17902 56.2178 6.12408 56.1926 6.07537C56.1675 6.02666 56.1286 5.98631 56.0807 5.95926C55.752 5.8026 55.4595 6.02454 55.2261 6.28564C55.2971 6.05319 55.326 5.81009 55.3116 5.56761C55.282 5.34567 55.1308 5.16943 54.927 5.24123C54.8197 5.2866 54.7209 5.34948 54.6345 5.42726C54.5403 5.51409 54.4595 5.61416 54.3945 5.72427C54.3945 5.52518 54.3945 5.26734 54.2269 5.17922C54.1718 5.15895 54.1123 5.15372 54.0545 5.16405C53.9967 5.17438 53.9427 5.1999 53.8982 5.23796C53.776 5.34073 53.6657 5.45677 53.5695 5.58393C53.2836 5.91031 53.162 6.56306 53.0666 6.81438C52.738 6.68383 52.1496 6.47168 52.0313 6.81438C51.8472 7.37249 52.7643 7.51283 52.7182 7.79351C52.4947 9.15778 51.4035 11.2727 50.6672 14.1481C50.2103 15.9334 50.447 15.78 50.2202 15.3263C50.0591 15 46.8676 14.6442 46.4994 14.6083C46.5059 14.5945 46.5093 14.5795 46.5093 14.5643C46.5093 14.549 46.5059 14.534 46.4994 14.5202C46.2659 14.3466 45.9826 14.2516 45.6909 14.2493C45.3868 14.2632 45.0944 14.3692 44.8527 14.5528C44.8165 14.5528 41.7696 14.8335 40.2018 15.4504C40.188 15.4548 40.1755 15.4627 40.1656 15.4732C40.0341 15.4732 39.8961 15.5059 39.7613 15.5254L39.7876 14.4647C40.3069 14.2167 40.8197 13.9066 40.938 13.342C41.0404 12.8106 41.0911 12.2707 41.0892 11.7296C41.7466 11.6089 42.0753 11.0116 41.6283 10.1663C41.5876 9.99515 41.5069 9.83594 41.3926 9.70155C41.2784 9.56716 41.1339 9.46138 40.9709 9.39277C41.1063 9.23969 41.1864 9.04606 41.1983 8.84263C41.2102 8.6392 41.1533 8.43766 41.0366 8.27003C41.1377 8.10079 41.1678 7.89891 41.1204 7.70786C41.0731 7.5168 40.9521 7.35183 40.7835 7.24846C40.6979 7.20021 40.6045 7.16708 40.5074 7.15055C40.4844 7.15055 40.3891 7.17339 40.3299 7.17339C40.3446 7.00637 40.3042 6.83914 40.2149 6.69688C40.1554 6.59128 40.0712 6.50145 39.9693 6.43499C39.8675 6.36852 39.7511 6.32737 39.6298 6.31502H39.5115C39.5085 6.27251 39.4911 6.23227 39.4622 6.20078C39.3911 6.12417 39.3092 6.05821 39.219 6.00496C39.039 5.91216 38.8359 5.87252 38.6339 5.89072C38.5819 5.89672 38.5333 5.91967 38.4959 5.956C38.3019 5.62962 37.5953 5.70142 37.2731 5.90051C37.2585 5.8795 37.242 5.85984 37.2238 5.84177C37.1174 5.79545 37.0004 5.77799 36.8849 5.79118C36.7695 5.80437 36.6596 5.84773 36.5665 5.91683C36.4923 5.97421 36.4241 6.03871 36.3627 6.1094C36.1412 6.04231 35.9021 6.06253 35.6953 6.16585C35.4884 6.26918 35.3295 6.44766 35.2517 6.66424C35.183 6.64741 35.1113 6.646 35.0419 6.66011C34.9726 6.67423 34.9072 6.70351 34.8507 6.74584C34.7533 6.80487 34.66 6.87029 34.5713 6.94166C34.5184 6.99387 34.4772 7.05666 34.4506 7.12588C34.4239 7.19509 34.4124 7.26914 34.4168 7.34311C34.241 7.33303 34.0661 7.37474 33.9141 7.46299C33.762 7.55125 33.6396 7.68213 33.5622 7.83921C33.5405 7.8886 33.5293 7.94195 33.5294 7.99587C33.5294 8.22107 33.559 8.11337 33.388 8.18191C32.7488 6.68152 31.8856 5.28528 30.8275 4.04015C27.7379 0.49241 24.4083 0.786151 24.1026 0.698029C22.6788 0.304314 21.1826 0.242877 19.731 0.51852C19.1213 0.360419 18.5021 0.24051 17.8772 0.159503C11.2837 -0.71193 6.14629 1.96764 3.08949 8.68453C-0.397904 16.3283 -0.220412 27.0793 0.259474 32.5429C0.321925 33.2544 2.23161 52.6739 2.39267 53.3985C2.41239 53.4931 2.44526 53.5584 2.64904 53.6302C3.70413 53.999 8.65748 53.8358 9.80131 53.7999C10.0117 56.7374 9.99524 56.6199 10.0182 56.6525C10.8072 56.8527 11.6167 56.9623 12.4308 56.9789C12.5722 56.9593 25.7559 54.6387 31.6197 53.5845C31.761 54.061 32.8194 57.6023 33.1711 57.9515C33.2071 57.9855 33.2532 58.0073 33.3026 58.0135C33.7457 58.0099 34.1869 57.9551 34.6173 57.8503C34.7324 58.2256 34.8441 58.6304 34.946 59.0318C34.8441 59.1101 35.0874 59.0905 33.4012 60.1676C33.022 60.3925 32.6605 60.6456 32.3198 60.9248C32.1523 61.1128 32.0299 61.3359 31.9615 61.5776C31.9385 61.6581 31.9475 61.7443 31.9866 61.8184C32.0258 61.8925 32.0921 61.9488 32.1719 61.9757C32.9377 62.2303 38.2066 60.4091 38.7227 59.8902C38.9133 59.6944 38.864 59.2374 38.8246 58.9404C38.711 58.2468 38.5618 57.5594 38.3775 56.881C38.6405 56.8026 39.8106 56.4534 40.021 56.2739C40.3168 56.0128 39.9092 54.3156 39.8139 53.9174C39.1072 51.0845 37.4013 46.6783 37.1844 45.4544C37.375 45.0432 39.1565 41.8838 39.4622 41.3747C39.4622 41.342 39.4392 38.0913 39.4622 37.5756C39.4622 37.3602 39.4951 36.5279 39.4984 36.3419C39.4963 36.3333 39.4962 36.3243 39.4981 36.3156C39.5 36.3069 39.5039 36.2988 39.5094 36.2918C39.5149 36.2848 39.522 36.2792 39.5301 36.2753C39.5381 36.2714 39.5469 36.2694 39.5559 36.2694C39.5648 36.2694 39.5737 36.2714 39.5817 36.2753C39.5898 36.2792 39.5968 36.2848 39.6024 36.2918C39.6079 36.2988 39.6118 36.3069 39.6137 36.3156C39.6156 36.3243 39.6155 36.3333 39.6134 36.3419C39.7718 37.8971 39.7971 39.4628 39.689 41.0222C39.689 42.7814 39.6397 47.837 40.7178 49.2339C41.7959 50.6308 54.2466 55.6668 54.7758 55.4025C54.9993 55.2915 55.8211 54.0056 55.9887 53.7445C56.702 53.9456 57.4004 54.1954 58.0792 54.4919C58.0758 54.5069 58.0758 54.5225 58.0792 54.5376C58.2501 54.9586 57.951 57.1486 58.0331 57.7132C58.092 57.9605 58.2041 58.1921 58.3618 58.3921C58.4133 58.4582 58.4884 58.5021 58.5716 58.5149C58.6547 58.5276 58.7397 58.5082 58.8088 58.4606C59.4465 58.0102 61.1064 52.7196 60.9946 52.0049ZM26.6072 50.4317C26.1996 49.433 26.1273 45.4707 26.2588 44.459C26.525 44.4198 27.9778 44.2109 29.4964 44.0053C29.6311 45.8298 30.226 48.4212 30.6764 50.2065C29.7527 50.3142 27.7839 50.5329 26.903 50.5133H26.7025C26.6401 50.5133 26.6433 50.5198 26.6072 50.4317ZM25.8775 33.9528C26.9622 33.7994 31.5112 33.1499 32.6058 33.0781C32.5532 33.2805 32.5104 33.4796 32.4743 33.6623C32.4118 33.7925 32.358 33.9266 32.3132 34.0638C32.2508 34.4163 32.6419 34.3902 33.0199 34.3706C33.0199 34.4718 33.0495 34.5762 33.0626 34.697C32.082 36.3054 31.2038 37.9732 30.4331 39.6906C29.4931 39.8048 27.4289 40.0169 26.5086 40.0169H26.2719C25.9301 39.9941 25.7033 35.3465 25.8775 33.9528ZM34.0947 27.4644C34.061 27.0426 34.0029 26.623 33.9205 26.2078C33.9205 26.1752 33.5622 24.5009 33.5524 24.4682C33.5195 24.3246 33.3453 23.6947 33.25 23.711C33.1547 23.7274 33.25 24.3638 33.273 24.5564C33.3387 24.9056 33.4406 25.3168 33.5129 25.6073C33.0791 25.8292 31.0741 27.5036 29.9532 27.892C29.6721 28.0315 29.3796 28.1472 29.0789 28.2379C29.0428 28.2379 28.954 27.9833 28.9409 27.9474C28.8069 27.4008 28.6345 26.8643 28.4248 26.3417C28.1454 25.6301 26.8833 23.0191 27.0706 22.5295C27.3336 22.3239 28.3525 21.7462 28.6451 21.5798C31.3239 20.0621 31.176 20.2743 31.3567 20.0262C31.4945 19.7517 31.647 19.4848 31.8136 19.2266C32.6912 18.3454 33.766 17.2944 35.0052 16.8473C34.5352 17.7122 33.3092 19.9152 33.2434 20.0393C33.2336 20.0575 33.2287 20.0779 33.2294 20.0986C33.2301 20.1193 33.2362 20.1394 33.2472 20.1569C33.2582 20.1745 33.2737 20.1888 33.2921 20.1985C33.3104 20.2083 33.3311 20.213 33.3519 20.2122C33.4735 20.2122 34.2591 20.1307 34.4037 20.1143C33.5557 21.0021 33.2533 21.2436 33.3157 21.4362C33.9091 22.8158 34.5796 24.1615 35.324 25.467C35.679 26.8214 36.8754 28.6981 36.5434 30.0004C36.2936 31.0331 35.939 32.038 35.4851 32.9998C35.37 33.2283 35.3207 33.8027 35.1827 33.9561C34.7237 34.035 34.2581 34.07 33.7923 34.0605C33.5491 34.0605 32.8391 34.1258 32.609 34.0932C32.6386 33.9985 32.7372 33.8321 32.757 33.7309C33.158 31.7726 33.5852 31.7432 34.2393 29.8143C34.4201 29.2562 34.1144 28.0551 34.1144 27.4709L34.0947 27.4644ZM15.251 28.4925C15.1918 28.4664 15.1885 28.4925 15.251 28.4599C15.7572 28.2901 16.5296 27.9311 16.9207 28.2901C17.1344 28.486 16.5131 28.9755 16.3554 29.3345C16.1047 28.928 15.7113 28.628 15.251 28.4925ZM14.6791 28.5284C14.7591 28.557 14.8457 28.5626 14.9289 28.5447C15.0238 28.5528 15.1175 28.5714 15.2082 28.6002C17.3612 29.5565 15.7769 31.74 14.1729 31.3483C13.2164 31.1198 12.6248 29.9873 13.1408 29.2171C13.3226 28.988 13.5573 28.8058 13.8251 28.6859C14.0929 28.566 14.3858 28.512 14.6791 28.5284ZM17.0226 28.1694C16.4868 27.6994 15.5205 28.2705 14.988 28.4109C14.8796 28.39 14.7697 28.3769 14.6593 28.3717C14.4325 28.2053 14.3865 27.9017 14.7678 27.6896C15.3542 27.389 15.9684 27.1453 16.6019 26.9618C17.2114 26.8391 17.8436 26.8935 18.4228 27.1184C18.4358 27.1241 18.4498 27.127 18.4639 27.127C18.4781 27.127 18.4921 27.1241 18.505 27.1184C23.5997 24.6216 25.3384 23.7763 26.8833 23.104C27.166 24.3377 28.2375 26.2894 28.507 27.3077C25.2497 28.0062 17.9462 28.5578 17.7424 28.9723C17.5387 29.3868 17.0851 29.8502 16.6413 29.6642C16.0628 29.4194 17.5058 28.6067 17.0226 28.1694ZM27.2876 22.0922C27.0286 22.1063 26.7689 22.0866 26.5151 22.0334C26.5151 20.4015 24.9013 6.39661 25.5751 5.71448C25.7592 5.53171 26.3146 5.6949 26.5612 5.78955C27.3895 6.11592 28.5826 6.95472 29.7922 8.58662C31.3567 10.7016 32.4217 13.4203 33.0791 15.9693C33.1964 16.5145 33.282 17.0659 33.3354 17.6208C32.7491 18.0637 32.1995 18.5527 31.692 19.083C31.4652 19.3049 31.291 19.9218 31.0675 20.0295C30.2622 20.4342 28.1685 21.5504 27.2876 22.0922ZM35.3602 13.7173C35.398 13.7996 35.4592 13.869 35.5363 13.9172C35.6134 13.9653 35.703 13.99 35.794 13.9882L36.0636 16.3349L35.3602 16.5796C35.3266 15.5936 35.2167 14.6116 35.0315 13.6422C35.1299 13.7022 35.2453 13.7285 35.3602 13.7173ZM42.828 14.9347C42.0161 16.1651 40.9906 18.6195 40.9873 18.8512C40.9873 19.1776 41.8748 18.9785 42.6078 18.9916C42.2593 19.7945 40.892 22.3925 40.445 23.2345C40.445 21.7625 40.4088 21.5145 40.4121 20.9499C40.4121 19.7618 40.5798 19.4289 40.6586 18.0614C40.7394 17.2358 40.6327 16.4026 40.3464 15.6234C41.1425 15.2956 41.9758 15.0655 42.828 14.938V14.9347ZM36.6618 30.6009C38.1299 30.5711 39.5903 30.3817 41.0169 30.0363C41.0922 30.5201 41.1318 31.0088 41.1352 31.4984C39.5089 31.3468 37.8684 31.4637 36.2805 31.8444C36.4153 31.4495 36.5434 31.0317 36.6618 30.6074V30.6009ZM36.8524 29.2203C36.7717 28.6372 36.6125 28.0675 36.3791 27.5264C37.6347 27.4383 39.1664 27.2653 40.4351 27.0825C40.5042 27.6047 40.5929 28.1237 40.7014 28.6459C39.429 28.9035 38.1444 29.0974 36.8524 29.2268V29.2203ZM34.831 19.9414C34.8311 19.9227 34.8273 19.9043 34.8197 19.8873C34.812 19.8703 34.8009 19.8551 34.7869 19.8428C34.7729 19.8304 34.7563 19.8211 34.7384 19.8156C34.7205 19.8101 34.7017 19.8085 34.6831 19.8108C34.6831 19.8108 33.9172 19.9218 33.5425 19.9609C33.7693 19.5105 35.0052 17.1116 35.186 16.782C35.5147 16.6612 35.3865 16.7069 36.0931 16.485C35.6638 17.9489 35.3322 19.4393 35.1005 20.9466C34.9163 22.094 34.9052 23.2622 35.0676 24.4127C34.7389 23.76 33.8285 22.0563 33.5918 21.3905C33.9139 20.9466 34.8343 20.1666 34.831 19.9479V19.9414ZM34.5713 19.9087V19.9446C34.5713 19.9446 34.5582 19.9185 34.5713 19.9185V19.9087ZM35.3865 24.478C36.8097 24.3573 38.6273 24.119 40.1689 23.8448C40.1756 23.8619 40.1856 23.8774 40.1985 23.8905C40.1985 24.4454 40.2346 24.9937 40.2774 25.542C39.0513 25.6954 37.0201 25.9271 35.7447 26.0087C35.6683 25.8122 35.6025 25.6117 35.5475 25.4082C35.5903 25.3038 35.5114 25.2777 35.3865 24.4878V24.478ZM40.1327 22.3729C37.1745 22.8788 35.8795 23.0909 35.2616 23.1595C35.2354 22.5428 35.2595 21.925 35.3339 21.3121C37.8188 21.0902 37.306 21.162 40.1262 20.7638C40.1229 20.8128 40.1262 21.7887 40.1327 22.3696V22.3729ZM47.6926 32.9574C47.7715 32.8823 47.7254 32.7778 47.6926 32.631C48.396 34.0899 48.6786 35.7087 48.9745 35.8132C49.0925 35.8389 49.2147 35.8389 49.3327 35.8132C49.5332 36.3615 50.2235 38.199 50.3188 38.7506C49.4379 39.077 48.3302 39.6155 47.7879 39.5013C47.3244 38.6755 46.6736 34.3086 46.5224 33.3229C46.5515 33.3233 46.58 33.3153 46.6046 33.3001C47.1108 33.0651 47.1798 33.473 47.6992 32.9541L47.6926 32.9574ZM58.8121 32.4613C59.3906 33.5905 58.4834 33.7929 58.0857 34.289C57.1488 35.483 55.9963 36.4934 54.6871 37.2688C54.1664 37.5971 53.6052 37.8571 53.0173 38.0423C52.6558 38.1337 51.3903 38.5482 50.6179 38.731C50.3376 37.7265 49.9985 36.7392 49.6023 35.774C50.2981 35.5601 50.9682 35.2711 51.6007 34.9124C51.6461 35.0762 51.7159 35.2324 51.8078 35.3758C51.8342 35.4148 51.8681 35.4481 51.9076 35.474C51.947 35.4998 51.9913 35.5177 52.0377 35.5265C52.0842 35.5353 52.1319 35.5348 52.1782 35.5252C52.2245 35.5156 52.2684 35.497 52.3074 35.4705C52.4941 35.3415 52.666 35.1927 52.8201 35.0266C52.9746 34.8504 52.968 34.7883 52.6854 34.2302C53.6386 33.5775 54.5195 32.8105 55.4036 32.0598C55.5049 32.2644 55.6482 32.4456 55.8243 32.5918C55.8949 32.6342 55.9781 32.6508 56.0597 32.6389C56.1412 32.627 56.2161 32.5873 56.2714 32.5265C56.4229 32.3588 56.5552 32.1749 56.6658 31.9782C56.771 31.7759 56.748 31.7041 56.3634 31.2504C56.7423 30.9008 57.0929 30.5221 57.4119 30.1179C57.596 30.4442 57.7669 30.7706 57.9181 31.097C58.1252 31.4821 58.5623 31.9554 58.8187 32.458L58.8121 32.4613ZM52.5999 34.7459C52.6229 34.8079 52.6459 34.7818 52.5736 34.8569C52.4573 34.9738 52.3332 35.0828 52.2022 35.1833C51.9622 35.3465 52.0904 35.1833 51.2983 33.7864C51.5341 33.6881 51.7815 33.6201 52.0346 33.584C52.1332 33.7439 52.521 34.5011 52.6065 34.7427L52.5999 34.7459ZM56.4193 31.8085C56.3277 31.9761 56.2233 32.1365 56.107 32.2883C55.9394 32.4711 55.9295 32.3209 55.3905 31.6682C54.9829 31.1688 55.0191 31.2602 55.0618 31.2145C55.2124 31.0445 55.386 30.8963 55.5778 30.7739C55.6929 30.8914 56.3075 31.6061 56.4258 31.8052L56.4193 31.8085ZM53.5071 25.8651C54.6969 26.0022 57.4514 29.1681 57.5368 29.39C57.6223 29.612 57.3527 29.7164 57.2311 29.8861C56.9122 30.2925 56.5616 30.6733 56.1826 31.0252C56.0334 30.8526 55.8683 30.6942 55.6896 30.5519C55.5417 30.4736 55.3872 30.627 55.259 30.7674C55.1358 30.9084 55.0258 31.0602 54.9303 31.221C54.9303 31.2667 54.8974 31.221 55.259 31.8085C54.3913 32.5494 53.5071 33.3164 52.5703 33.9757C52.4644 33.7779 52.3424 33.5891 52.2055 33.411C52.0839 33.3033 51.8406 33.411 51.6303 33.4926C51.4799 33.561 51.3339 33.6383 51.1931 33.7243C51.1405 33.7733 51.157 33.7243 51.5218 34.6545C51.0912 34.9026 49.5201 35.7022 49.0895 35.5945C48.8298 35.2028 48.3434 33.2478 47.6236 32.112C47.5217 31.5474 47.3639 30.6988 47.1897 29.7556C49.0665 27.9997 52.9319 25.7933 53.5071 25.8651ZM51.0616 26.7137C50.4043 27.1184 49.6713 27.5917 49.0073 28.0715C48.11 24.7816 48.2415 24.9447 47.0122 22.2913C47.5645 22.4026 48.1252 22.4681 48.6885 22.4871C49.6179 23.8137 50.4108 25.2297 51.0551 26.7137H51.0616ZM52.9582 7.84247C53.0469 7.32353 52.1693 7.2093 52.2712 6.89597C52.3337 6.86986 52.4619 6.86333 52.9713 7.06243C53.0634 7.09833 53.1455 7.13423 53.2178 7.06243C53.3592 6.92535 53.4841 6.08329 53.7667 5.75691C53.8484 5.63307 53.9494 5.5229 54.0659 5.43053C54.0777 5.80423 54.0209 6.17695 53.8982 6.53043C53.8485 6.62435 53.8109 6.72414 53.7865 6.82743C53.7832 6.8487 53.7845 6.87043 53.7904 6.89114C53.7963 6.91184 53.8066 6.93105 53.8206 6.94746C53.8347 6.96386 53.8521 6.97708 53.8717 6.98622C53.8913 6.99535 53.9127 7.0002 53.9344 7.00041C54.0429 7.00041 54.0757 6.90903 54.1086 6.81438C54.1415 6.71973 54.1447 6.70667 54.1645 6.63813C54.3217 6.27336 54.5321 5.93355 54.789 5.62962C54.8218 5.60351 54.9566 5.43379 54.9763 5.50233H54.9402C55.0026 5.53497 54.996 5.71774 54.9895 5.78628C54.9262 6.18823 54.8159 6.58146 54.6608 6.95798C54.6477 6.98968 54.646 7.02485 54.6558 7.05767C54.6657 7.09048 54.6866 7.11897 54.7149 7.1384C54.7433 7.15783 54.7776 7.16704 54.812 7.1645C54.8463 7.16196 54.8788 7.14782 54.904 7.12444C55.0947 6.93514 55.5778 6.10287 55.8901 6.21058C55.8873 6.31703 55.8615 6.42166 55.8145 6.51737C55.591 6.88618 55.0651 8.01872 54.7923 8.28961C54.7621 8.33196 54.744 8.38155 54.7397 8.43322C54.7397 8.53113 54.411 13.6879 54.3255 14.7421C54.1743 16.5176 54.4044 20.4636 52.784 21.1685C52.7018 21.2077 52.5572 21.273 52.36 21.3448C51.9918 20.0556 50.9039 17.1019 50.4207 15.8812C51.0288 12.4803 52.6821 9.43847 52.9582 7.84247ZM50 15.4438C50.2268 15.9497 52.1069 21.0935 52.1956 21.9029C52.1726 21.9584 51.9721 22.0269 51.9097 22.0432C50.7099 22.3925 46.953 22.1999 46.8084 21.8931C46.7945 21.8662 46.7725 21.8442 46.7455 21.8301C46.7185 21.8161 46.6879 21.8107 46.6576 21.8146C46.6274 21.8185 46.5992 21.8316 46.5767 21.8521C46.5543 21.8726 46.5388 21.8994 46.5323 21.929C46.5259 21.9609 46.5273 21.9939 46.5365 22.0251C46.5456 22.0564 46.5622 22.085 46.5849 22.1085C47.9818 25.1014 47.7879 24.8305 48.7312 28.2575C48.1722 28.6691 47.6377 29.1127 47.1305 29.5859C46.4731 26.0316 45.4871 20.8356 45.4378 20.4472C45.2833 18.8153 45.2471 16.0411 46.3055 14.7748C47.0582 14.8564 49.336 15.1566 50.0131 15.4438H50ZM46.3351 14.5724C45.0959 15.6952 45.0861 18.8153 45.2175 20.4734C45.28 21.2501 47.3409 32.2458 47.4296 32.7974C47.216 32.9933 47.1535 32.9443 47.0089 32.9312C46.8593 32.9158 46.7083 32.9406 46.5717 33.003C45.9867 31.7334 43.7812 20.1568 44.0014 18.2377C44.1263 17.1573 44.4418 15.5972 44.948 14.6312C45.1453 14.476 45.387 14.3867 45.6385 14.3761C45.89 14.3656 46.1384 14.4343 46.3482 14.5724H46.3351ZM44.7377 14.716C44.2519 15.83 43.934 17.0089 43.7943 18.2148C43.5412 20.1731 45.1617 28.6589 45.8125 31.394C44.773 31.7557 43.7668 32.2056 42.805 32.7387C42.4171 32.9704 41.7762 33.6656 41.4146 33.7472C41.3094 33.6297 41.385 32.9867 41.385 32.8856C41.385 32.1414 41.4015 31.4593 41.3489 30.7706C41.2108 29.0278 40.537 28.1269 40.4023 23.8807C40.4548 23.822 42.5486 19.8598 42.874 19.0242C42.91 18.9583 42.9183 18.8808 42.897 18.8088C42.8477 18.7109 42.7261 18.7142 42.6078 18.7142C42.2791 18.7142 41.4935 18.8023 41.2338 18.7729C41.687 17.4522 42.2602 16.1752 42.9463 14.9575C44.9612 14.6964 44.4418 14.7389 44.7508 14.716H44.7377ZM40.136 15.6234C40.4286 16.7265 40.56 17.0464 40.2412 19.4191C39.62 19.5693 38.9988 19.7194 38.3118 19.8271C37.7727 19.9152 35.8959 20.1731 35.5048 20.1535C35.8039 18.1952 35.8335 18.3519 36.1819 16.7526C36.5336 17.7905 37.2238 19.0732 38.3249 19.2037C39.4261 19.3343 39.9947 18.5901 40.1294 17.5261C40.182 17.0953 39.8895 16.0803 39.7646 15.669L40.136 15.6234ZM40.6882 13.2897C40.583 13.7532 40.1064 14.0176 39.6726 14.2134C39.5871 14.2526 39.5148 14.2885 39.5115 14.3798C39.4765 14.8043 39.4644 15.2303 39.4754 15.656C39.5904 16.0183 39.9027 17.1182 39.8534 17.4968C39.7416 18.3813 39.2683 19.0242 38.371 18.9165C37.329 18.7925 36.6256 17.314 36.366 16.3055C36.366 16.1815 36.0833 13.936 36.08 13.9066C36.1488 13.8618 36.1996 13.7946 36.2237 13.7164C36.2477 13.6383 36.2434 13.5543 36.2115 13.479C36.1822 13.4206 36.1591 13.3594 36.1424 13.2963C36.1424 13.2016 36.0701 12.872 36.0373 12.7349C36.0044 12.5978 35.9715 12.5946 35.9255 12.575C35.2681 12.3139 34.9197 11.7851 35.2155 11.0899C35.2557 11.021 35.3141 10.9644 35.3844 10.9262C35.4548 10.888 35.5343 10.8698 35.6144 10.8735C35.6945 10.8772 35.772 10.9027 35.8384 10.9472C35.9049 10.9917 35.9578 11.0535 35.9913 11.1258C36.0501 11.3008 36.1391 11.4642 36.2542 11.6089C36.4153 11.7753 36.5829 11.6774 36.6519 11.4849C36.7209 11.2923 36.6223 11.1161 36.7111 10.4861C36.7571 10.1598 36.8261 9.87581 36.8853 9.56575C36.9083 9.45805 36.8064 9.02396 36.859 8.98806C37.1088 8.81835 37.2896 9.0207 37.5427 9.18389C37.9207 9.42867 38.3381 9.65388 38.7752 9.51027C39.26 9.40418 39.7073 9.17087 40.0703 8.83467C40.203 9.00479 40.3516 9.16214 40.514 9.30465C40.5666 9.34055 40.56 9.3275 40.5666 9.35034C39.9487 9.46784 39.8303 9.93783 39.952 10.5482C39.7613 10.5873 39.5115 10.7179 39.3669 10.757C39.282 10.5276 39.1311 10.3278 38.933 10.1826C38.765 10.0323 38.5568 9.9333 38.3336 9.89741C38.1103 9.86152 37.8814 9.89029 37.6741 9.98026C37.1877 10.15 36.6881 10.9594 37.0168 11.8112C37.0638 11.9556 37.1403 12.0887 37.2415 12.2024C37.3427 12.316 37.4664 12.4077 37.6049 12.4717C37.7434 12.5357 37.8938 12.5707 38.0465 12.5744C38.1992 12.5782 38.3511 12.5506 38.4926 12.4934C38.6857 12.4378 38.8656 12.3442 39.0215 12.218C39.1774 12.0918 39.306 11.9357 39.3998 11.759C39.4885 11.5157 39.4977 11.2507 39.4261 11.0018C39.4819 11.0018 39.574 11.0018 39.6561 10.979C39.7112 11.2031 39.7871 11.4216 39.8829 11.6317C39.9027 11.6774 40.0275 11.9777 39.998 12.0103C39.9408 12.0698 39.8768 12.1224 39.8073 12.167C39.7646 12.1898 39.7219 12.1931 39.7219 12.2421C39.7219 12.3726 40.0506 12.2616 40.1557 12.1866C40.2609 12.1115 40.2938 11.9189 40.2412 11.746C40.1488 11.4542 40.0064 11.1804 39.8205 10.9365L40.0078 10.8386C40.1426 11.2368 40.4417 11.6905 40.8591 11.7492C40.8503 12.2669 40.793 12.7826 40.6882 13.2897ZM39.1828 11.6578C38.9166 12.1898 37.9568 12.5684 37.4802 12.0919C37.3913 11.9976 37.322 11.8866 37.2764 11.7656C37.2064 11.5981 37.1745 11.4174 37.183 11.2362C37.1916 11.0551 37.2403 10.8781 37.3257 10.7179C37.4062 10.515 37.558 10.348 37.753 10.2479C37.9266 10.1557 38.1231 10.1147 38.3193 10.1297C38.5156 10.1447 38.7034 10.2152 38.8607 10.3327C39.0297 10.5008 39.1483 10.7122 39.2034 10.9432C39.2586 11.1743 39.248 11.4161 39.173 11.6415L39.1828 11.6578ZM41.5132 10.2283C41.7367 10.8093 41.6611 11.3445 41.0531 11.4653C40.445 11.586 39.8632 9.96067 40.4384 9.7061C40.9479 9.44173 41.2404 9.69957 41.5034 10.212L41.5132 10.2283ZM40.2774 7.16034C40.2774 7.16034 40.3037 7.16034 40.3102 7.18645C40.3168 7.21256 40.2642 7.16034 40.2675 7.14402L40.2774 7.16034ZM37.3487 5.97885C37.3487 5.97885 37.3159 5.97885 37.2961 5.956C37.3356 5.92662 37.375 5.92336 37.3389 5.96253L37.3487 5.97885ZM2.62275 53.3593C2.44854 52.6315 0.571728 32.9443 0.532286 32.5167C0.0688341 27.0988 -0.102084 16.3936 3.35901 8.82161C6.23833 2.48985 10.955 -0.17014 17.0884 0.368386C17.5781 0.410815 18.0383 0.472827 18.4853 0.551158C8.26962 0.805734 4.5653 10.8093 3.61867 20.9792C3.2661 25.0035 3.2661 29.0506 3.61867 33.0749C3.75344 34.6088 5.59081 52.7718 5.73215 53.6367C5.31471 53.627 2.99088 53.6041 2.62275 53.3593ZM5.85047 53.6335C5.49878 51.2085 4.03282 35.3562 3.84218 33.0716C3.21767 25.7085 3.64826 16.002 6.69192 9.34055C8.85798 4.595 12.4473 1.0701 18.2979 0.854691C8.40439 3.81821 7.7503 18.8904 8.08556 29.1224C8.13486 30.4834 9.28527 46.7469 9.77502 53.6008C8.30249 53.6237 6.96473 53.6433 5.84719 53.6335H5.85047ZM12.3585 56.881C12.1679 54.3352 10.646 31.1296 10.5967 29.4455C10.2385 17.8166 11.3067 2.08188 22.9883 1.05052C27.9022 0.61317 31.1562 3.85738 33.1284 8.36794C32.911 8.64629 32.8088 8.99646 32.8424 9.34708C32.8693 9.42921 32.9181 9.50253 32.9837 9.55923C32.8903 9.65993 32.8236 9.78221 32.7898 9.91498C32.7891 10.0736 32.8288 10.2297 32.9053 10.369C32.9817 10.5082 33.0924 10.626 33.227 10.7113C33.204 10.7538 33.1875 10.7864 33.181 10.8027C33.0133 11.3804 33.181 11.6056 33.5097 11.7819C33.4573 11.979 33.4752 12.1881 33.5603 12.3736C33.6453 12.5592 33.7923 12.7099 33.9764 12.8002C34.0615 12.8218 34.1484 12.836 34.2361 12.8426C34.2263 12.925 34.2263 13.0083 34.2361 13.0907C34.2821 13.28 34.4661 13.3387 34.6601 13.3583C34.8866 14.4581 35.0186 15.5751 35.0545 16.6971C34.5273 16.8766 34.03 17.1329 33.5787 17.4576C33.523 16.9444 33.4396 16.4345 33.3289 15.9302C32.6321 13.3191 31.5704 10.633 29.9401 8.49523C28.0173 5.97232 25.9367 5.20206 25.4765 5.65899C24.6745 6.45536 26.2621 21.0315 26.2259 22.0857C26.2259 22.337 26.6236 22.3631 26.8833 22.3761C26.8097 22.5095 26.7853 22.6642 26.8143 22.8135C24.0138 24.0341 18.4656 26.8932 18.4327 26.9128C17.8238 26.6935 17.164 26.6538 16.5329 26.7986C15.8922 26.9949 15.2724 27.2528 14.6823 27.5688C14.2879 27.8006 14.2583 28.1269 14.4654 28.3685C13.3446 28.3685 12.4538 29.1583 12.7234 30.2615C12.7992 30.5605 12.9471 30.8368 13.1544 31.0665C13.3617 31.2962 13.622 31.4724 13.9131 31.58C14.2042 31.6876 14.5173 31.7233 14.8253 31.6841C15.1334 31.6449 15.4272 31.5319 15.6816 31.3548C15.9467 31.1947 16.1633 30.9664 16.3085 30.6941C16.4537 30.4218 16.5222 30.1155 16.5066 29.8078C17.0456 30.1081 17.634 29.6185 17.9232 29.0832C18.3801 28.8841 22.8864 28.4305 25.3746 28.1041C26.594 27.9409 27.7313 27.7777 28.576 27.5884C28.6293 27.9 28.748 28.1969 28.9244 28.4599C29.1315 28.6687 29.802 28.2575 30.0781 28.1628C31.1858 27.7908 33.0363 26.2764 33.5918 25.9304C33.705 26.4383 33.7852 26.9528 33.8318 27.4709C33.8318 28.0258 34.1276 29.2595 33.9797 29.7034C33.4834 31.1786 32.9936 31.74 32.6978 32.8105C31.5244 32.8888 26.9687 33.6558 25.8348 33.8516C25.8222 33.853 25.8104 33.8586 25.8015 33.8675C25.7925 33.8764 25.7869 33.8881 25.7855 33.9006C25.608 34.9515 25.585 39.2369 26.0648 40.1475C26.1306 40.2748 26.3935 40.2715 26.6138 40.2715C27.35 40.2715 28.8949 40.154 30.3378 39.9876C29.9438 40.8744 29.6665 41.8079 29.5128 42.7651C29.4839 43.1159 29.4839 43.4684 29.5128 43.8193C27.8299 44.0869 26.2259 44.361 26.2259 44.361C26.2143 44.364 26.2038 44.3702 26.1957 44.3788C26.1875 44.3875 26.182 44.3983 26.1799 44.41C26.0024 45.4642 25.9761 49.7463 26.456 50.6602C26.4807 50.7018 26.5208 50.7322 26.5677 50.745C27.0378 50.9017 30.2852 50.5492 30.7815 50.4937C31.0379 51.4957 31.314 52.4879 31.5802 53.405C25.6277 54.4821 12.7792 56.7994 12.3585 56.881ZM38.1803 56.9495C38.2658 57.3607 38.3611 57.8013 38.4367 58.2159L35.1169 58.9861C35.0118 58.5912 34.8869 58.1963 34.7587 57.8275C35.8006 57.6088 37.1384 57.2596 38.1803 56.9495ZM56.0314 53.64C56.6428 52.6837 57.3889 51.4696 57.9477 50.4872C58.4144 50.7059 58.9732 50.9539 59.4728 51.1987L58.1087 54.3058C57.4322 54.0376 56.7382 53.8151 56.0314 53.64Z" fill="black"/>
</svg>
