<svg width="74" height="62" viewBox="0 0 74 62" fill="none" xmlns="http://www.w3.org/2000/svg">
<path d="M73.9958 49.3234C73.9737 49.2258 73.8916 49.1904 73.8021 49.1312C73.8021 49.1312 73.9996 44.6877 73.9996 44.6374C73.9996 42.9715 71.5975 41.5479 68.1637 41.1004C68.3305 41.0334 68.4747 40.9208 68.5796 40.7757C68.6846 40.6306 68.7459 40.459 68.7565 40.2807C68.7912 40.2734 68.8232 40.2568 68.849 40.2327C68.8748 40.2085 68.8935 40.1778 68.9029 40.1439C70.1245 35.7492 71.0586 31.7897 70.1078 27.8368C69.1524 23.7585 66.1699 19.3681 62.8535 17.1594C59.4929 15.0142 55.4466 14.1904 51.5062 14.8492C51.4783 14.7835 51.4516 14.7169 51.4252 14.6485C51.7829 14.6841 52.1413 14.5886 52.433 14.38C52.7246 14.1715 52.9292 13.8643 53.0083 13.5163C53.0823 13.1046 52.9231 13.1853 53.1137 13.1703C53.6168 13.0756 54.0622 12.7882 54.3535 12.3703C54.6534 11.8739 54.5472 10.8993 53.9908 10.6018C54.1145 10.4077 54.2122 10.1985 54.2814 9.97934C54.5704 9.03858 53.9072 8.7737 53.309 8.42846C52.498 7.98557 52.7014 6.45814 52.2822 5.58005C51.5012 3.83694 49.5597 2.13651 47.8073 2.78623C46.7955 2.34416 45.674 2.21111 44.5857 2.40406C43.4974 2.59701 42.4916 3.10722 41.6967 3.86962C40.8679 4.69627 40.2408 5.70016 39.8633 6.80441C39.4858 7.90866 39.368 9.08399 39.5189 10.2404C39.6699 10.9159 39.731 11.6082 39.7006 12.2995C39.6599 12.8258 39.1969 13.2749 39.1032 13.8796C39.0508 14.078 39.0542 14.2868 39.1129 14.4834C39.1716 14.6801 39.2835 14.857 39.4363 14.995C39.5892 15.133 39.7772 15.2269 39.9799 15.2665C40.1827 15.306 40.3925 15.2898 40.5867 15.2194C40.6127 15.486 40.7108 15.7407 40.8707 15.9565C41.0306 16.1723 41.2462 16.3412 41.4948 16.4454C41.7469 16.5367 42.0202 16.5539 42.2819 16.4949C42.5436 16.4359 42.7826 16.3033 42.9702 16.1129C43.1031 16.2813 43.4665 16.5642 43.6571 16.5454C43.8393 16.5783 44.0273 16.5424 44.1842 16.4446C44.341 16.3468 44.4552 16.1943 44.5044 16.0172C44.8726 16.281 45.2951 16.4607 45.7416 16.5434C46.188 16.6261 46.6474 16.6097 47.0867 16.4954V16.5073C38.7324 18.7341 35.3617 26.47 34.6864 27.1744C34.5309 27.279 34.3525 27.3455 34.1661 27.3685C32.1901 27.728 30.5304 29.0886 29.0651 30.2904C27.3603 31.689 27.1926 31.6775 27.1356 31.7859C25.7873 31.3018 24.8629 31.6998 24.3651 32.4656C23.1853 32.5482 22.8657 34.2529 22.5852 35.4093C22.4225 36.0798 22.1943 37.0659 22.3884 37.726C22.3585 37.7645 22.345 37.7968 20.6612 40.6671C20.421 40.5879 20.1773 40.5208 19.9301 40.4657C19.7832 40.4081 19.6262 40.3801 19.4683 40.3833C19.3104 40.3865 19.1547 40.4207 19.0103 40.4841C18.6969 40.6644 18.4599 40.9512 18.3431 41.2915C18.2188 41.5383 18.0894 41.8324 17.9433 42.2026C17.8338 40.8451 17.8116 39.482 17.877 38.1217C17.9878 35.1568 17.8251 32.1323 17.6973 29.1816C19.1685 27.701 20.4869 26.0783 21.6329 24.3375C21.6586 24.3484 21.6865 24.3537 21.7145 24.3529C21.7426 24.3521 21.7701 24.3453 21.7952 24.3329C22.6065 23.9193 23.3954 23.4637 24.1586 22.9681C24.7576 23.1016 25.3799 23.0928 25.9749 22.9423C26.1271 23.6343 26.8625 23.9707 27.458 24.2437C27.4884 24.2576 27.5219 24.2634 27.5553 24.2606C27.5887 24.2578 27.6208 24.2464 27.6484 24.2276C27.676 24.2088 27.6983 24.1833 27.713 24.1534C27.7277 24.1235 27.7343 24.0904 27.7323 24.0572C27.7193 23.7449 27.6129 23.4435 27.4266 23.1914C27.2403 22.9394 26.9825 22.7481 26.6862 22.6421C26.7927 22.5813 26.8943 22.5167 26.9903 22.4498C27.0235 22.4663 27.0608 22.4729 27.0977 22.469C27.1345 22.465 27.1695 22.4506 27.1984 22.4275C27.4646 22.2149 29.0217 23.2372 30.6667 22.7947C30.7702 22.7666 31.2556 22.6282 31.318 22.7139C31.3484 22.7536 31.3931 22.78 31.4428 22.7876C31.4924 22.7951 31.543 22.7833 31.584 22.7545C31.625 22.7257 31.6532 22.6823 31.6625 22.6334C31.6719 22.5844 31.6617 22.5338 31.6342 22.4921C31.115 21.7232 29.5265 21.0377 27.9872 21.564C28.3705 21.2573 28.6757 20.8656 28.8783 20.4203C29.0699 19.9489 29.2127 19.4594 29.3045 18.9594C29.3112 18.9211 29.3061 18.8818 29.2898 18.8465C29.2735 18.8112 29.2469 18.7816 29.2133 18.7616C29.1798 18.7416 29.1409 18.7322 29.1019 18.7346C29.0628 18.7369 29.0254 18.751 28.9946 18.7748C28.4247 19.2007 27.8894 19.6703 27.3937 20.1792C27.1672 20.4474 26.9965 20.7574 26.8913 21.0914C26.7861 21.4253 26.7485 21.7766 26.7807 22.125C26.5658 22.2768 26.3353 22.4056 26.093 22.5094C25.6132 22.6655 25.1045 22.7143 24.6033 22.6524C25.3007 22.1169 26.0233 21.4118 26.2472 20.4995C26.4472 20.2472 26.6285 19.9808 26.7896 19.7025C27.1527 18.9813 27.2414 17.6857 27.1794 16.893C27.1767 16.8596 27.1653 16.8275 27.1463 16.7998C27.1273 16.7722 27.1014 16.7499 27.071 16.7353C27.0407 16.7207 27.007 16.7141 26.9734 16.7164C26.9397 16.7186 26.9072 16.7295 26.8791 16.748C26.2971 17.1406 25.8508 17.7012 25.6006 18.3539C25.5982 18.3603 25.5961 18.3668 25.5944 18.3735C25.389 19.1204 25.4587 19.9155 25.7908 20.616C25.7936 20.6217 25.7967 20.6272 25.8001 20.6325C25.3085 21.9843 23.2062 23.1664 21.9308 23.8331C24.2422 19.7141 22.7514 18.0375 24.3647 13.5182C25.1122 13.2705 25.8108 12.8963 26.4297 12.4122C27.1 12.4164 27.6532 12.6455 28.3518 12.599C29.056 12.5156 29.7256 12.2496 30.2932 11.8278C30.3173 11.8099 30.3368 11.7867 30.3503 11.76C30.3637 11.7333 30.3707 11.7038 30.3707 11.674C30.3707 11.3122 28.6253 10.9939 27.5893 11.308C28.1299 10.669 28.5581 9.94417 28.8558 9.16392C29.1435 9.19702 29.4344 9.14116 29.6888 9.00398C29.8767 8.93401 30.065 8.85251 30.2529 8.77062C30.8046 8.58926 31.3211 8.31626 31.7806 7.96327C31.8092 7.9397 31.8303 7.90847 31.8415 7.87331C31.8527 7.83814 31.8535 7.80053 31.8437 7.76495C31.834 7.72937 31.8141 7.69732 31.7865 7.67264C31.7589 7.64795 31.7247 7.63167 31.688 7.62572C30.9513 7.50411 30.1947 7.61857 29.5281 7.95251C29.5762 7.77853 29.5915 7.59724 29.5734 7.41773C29.5427 7.18292 29.5427 6.94515 29.5734 6.71034C29.5908 6.69176 29.6043 6.66997 29.6132 6.6462C29.622 6.62244 29.6261 6.59717 29.6252 6.57185C29.6242 6.54652 29.6183 6.52162 29.6076 6.49858C29.597 6.47554 29.5818 6.45481 29.5631 6.43757C29.5444 6.42033 29.5224 6.40692 29.4985 6.3981C29.4745 6.38928 29.4491 6.38523 29.4235 6.38617C29.398 6.38712 29.3729 6.39304 29.3497 6.40361C29.3265 6.41418 29.3056 6.42918 29.2882 6.44776C28.6621 6.99253 28.0794 8.05246 28.5467 8.88442C28.212 9.81978 27.6816 10.6743 26.9903 11.3917C26.2991 12.1091 25.4626 12.6732 24.5359 13.0469C25.4619 10.6129 26.759 8.27352 27.2867 5.70923C28.2511 5.65694 28.463 4.71926 28.845 4.26484C28.8704 4.2336 28.8853 4.19526 28.8876 4.15519C28.8899 4.11513 28.8795 4.07535 28.8579 4.04143C28.8363 4.00752 28.8045 3.98117 28.767 3.96607C28.7296 3.95098 28.6883 3.9479 28.649 3.95728C28.1958 4.04393 27.7889 4.28857 27.5018 4.64698C27.5018 4.06531 27.1624 3.98534 26.8009 2.66974C26.79 2.62989 26.7665 2.59458 26.7338 2.56904C26.7011 2.54349 26.661 2.52907 26.6194 2.5279C26.5778 2.52674 26.5369 2.53889 26.5028 2.56257C26.4687 2.58625 26.4432 2.62019 26.4301 2.65936C26.2822 3.11431 26.232 3.59492 26.2825 4.0703C26.3364 4.56898 26.5741 5.03029 26.95 5.36552C26.6914 6.30717 26.3595 7.22749 25.9574 8.11821C25.816 7.58963 25.7593 7.04227 25.7893 6.4962C25.7922 6.44539 25.7748 6.39548 25.7407 6.35743C25.7067 6.31937 25.6588 6.29628 25.6076 6.29321C25.5822 6.2917 25.5567 6.29518 25.5326 6.30345C25.5086 6.31172 25.4864 6.32461 25.4673 6.34139C25.4483 6.35817 25.4328 6.37851 25.4217 6.40125C25.4106 6.42399 25.4041 6.44868 25.4026 6.4739C25.3632 7.21468 25.4696 7.95598 25.7157 8.65644C24.6545 10.9766 23.3496 13.2914 22.9064 15.8665C22.801 16.52 22.7541 17.194 22.6933 17.8499C21.8882 16.7553 21.3701 15.4791 21.1858 14.1364C21.5696 13.9507 21.8895 13.6564 22.1051 13.2906C22.1354 13.2426 22.3442 12.5183 22.4376 12.3703C22.4705 12.3424 22.4931 12.3043 22.5017 12.2622C22.5103 12.2201 22.5044 12.1763 22.485 12.1379C22.4656 12.0995 22.4338 12.0686 22.3946 12.0503C22.3555 12.0319 22.3113 12.0271 22.269 12.0365C22.0405 12.0927 21.8257 12.1941 21.6376 12.3347C21.4495 12.4753 21.292 12.6521 21.1745 12.8547C21.0442 13.1038 20.9373 13.3645 20.8553 13.6332C20.5903 13.0561 20.2544 12.5137 19.8553 12.0185C19.8416 11.9803 19.816 11.9474 19.7824 11.9245C19.7487 11.9016 19.7086 11.8899 19.6678 11.8909C19.6269 11.892 19.5875 11.9058 19.5551 11.9305C19.5227 11.9551 19.4989 11.9893 19.4872 12.0281C19.3665 12.4078 19.3692 12.8155 19.495 13.1936C19.6208 13.5716 19.8633 13.9008 20.1881 14.1345C19.811 13.9727 19.417 13.8526 19.0134 13.7766C18.9748 13.7696 18.935 13.7745 18.8992 13.7905C18.8634 13.8065 18.8334 13.8329 18.8131 13.8662C18.6996 14.0518 18.9398 14.1737 19.118 14.4813C19.3279 14.8 19.6199 15.0573 19.9637 15.2263C20.3075 15.3953 20.6907 15.4699 21.0734 15.4424C21.3889 16.5219 21.9202 17.5274 22.6355 18.3989C22.233 21.8666 20.316 24.6777 17.5931 26.8022C17.4044 22.4195 17.2602 17.9383 17.667 13.5355C20.099 11.5779 21.0536 7.85716 21.0269 4.74156C21.3911 4.48719 21.7007 4.16364 21.938 3.78965C22.1752 3.41567 22.3353 2.99868 22.4089 2.56287C22.4145 2.52724 22.41 2.49076 22.3957 2.45759C22.3814 2.42442 22.3581 2.3959 22.3282 2.37529C22.2984 2.35468 22.2634 2.34281 22.2271 2.34103C22.1908 2.33926 22.1547 2.34765 22.123 2.36526C21.0994 2.93655 20.5732 3.6724 20.6236 4.44745C20.4925 4.07214 20.2989 3.72128 20.051 3.40943C19.9131 3.23904 19.7894 3.05775 19.6813 2.86735C19.6843 2.82078 19.6702 2.77471 19.6415 2.73775C19.6128 2.70078 19.5715 2.67544 19.5253 2.66645C19.4792 2.65746 19.4313 2.66544 19.3907 2.68889C19.35 2.71235 19.3193 2.74968 19.3044 2.79392C19.106 3.36909 19.106 3.99339 19.3044 4.56855C19.3079 4.57932 19.3125 4.58975 19.3179 4.5997C19.6141 5.13972 20.0619 5.58284 20.6069 5.87531C20.5566 6.65112 20.4411 7.42142 20.2617 8.17818C19.4976 6.96214 18.9402 5.62965 18.612 4.23408C18.6066 4.2091 18.5962 4.18545 18.5814 4.16451C18.5666 4.14357 18.5478 4.12576 18.526 4.11212C18.5043 4.09849 18.48 4.08929 18.4546 4.08509C18.4292 4.08088 18.4032 4.08174 18.3781 4.08762C18.353 4.0935 18.3294 4.10428 18.3086 4.11932C18.2878 4.13437 18.2702 4.15339 18.2569 4.17526C18.2436 4.19713 18.2348 4.22142 18.231 4.2467C18.2273 4.27198 18.2286 4.29775 18.235 4.32251C18.2717 4.47629 18.3105 4.63007 18.3513 4.78385C18.0374 4.58693 17.7695 4.32574 17.5655 4.01776C17.3616 3.70978 17.2264 3.36212 17.1688 2.99807C17.4071 2.92685 17.628 2.80756 17.8177 2.64766C18.0074 2.48776 18.1617 2.2907 18.2711 2.06884C18.5005 1.61642 18.6904 1.14527 18.8387 0.660595C18.8499 0.623285 18.8494 0.58347 18.8374 0.546421C18.8253 0.509372 18.8021 0.476837 18.771 0.453122C18.7399 0.429407 18.7023 0.41563 18.6631 0.413616C18.6239 0.411601 18.585 0.421444 18.5516 0.441841C17.9382 0.824719 17.4107 1.32866 17.0018 1.92237C16.8368 1.07273 16.5559 1.07311 16.1979 0.124668C16.1836 0.087007 16.1578 0.0547307 16.1241 0.0323852C16.0904 0.0100397 16.0505 -0.00124883 16.01 0.000109696C15.9695 0.00146823 15.9304 0.0154053 15.8983 0.0399579C15.8662 0.0645104 15.8426 0.0984409 15.831 0.13697C15.6903 0.615074 15.6728 1.12058 15.7802 1.60712C15.9424 2.13177 16.2852 2.58316 16.7488 2.88235C16.8025 3.27851 16.9254 3.66233 17.1122 4.01648C16.5057 3.90052 15.8773 4.01834 15.3552 4.34596C15.3289 4.36271 15.307 4.38554 15.2915 4.4125C15.276 4.43946 15.2673 4.46974 15.2662 4.50076C15.265 4.53178 15.2715 4.56261 15.285 4.59061C15.2984 4.61862 15.3186 4.64298 15.3436 4.66159C15.5683 4.82931 15.8408 4.92216 16.122 4.92687C16.6225 4.95928 17.1229 4.86329 17.5752 4.64814C17.8406 4.923 18.1562 5.14543 18.5051 5.30363C18.8813 6.5011 19.4281 7.63906 20.1288 8.68297C19.6701 10.3196 18.9758 11.8451 17.719 12.9831C17.7983 12.2157 17.8959 11.451 18.0119 10.689C18.0197 10.6404 18.0083 10.5906 17.9802 10.55C17.9521 10.5094 17.9093 10.481 17.8607 10.4708C17.8121 10.4606 17.7614 10.4693 17.7191 10.4951C17.6768 10.5209 17.6461 10.5618 17.6333 10.6095C16.9163 13.3237 16.4697 16.1012 16.3002 18.9021C14.7857 18.2616 13.7094 16.3001 13.2886 15.1529C13.2204 14.9222 13.2328 14.9818 13.2452 14.9303C13.8591 12.419 14.0792 9.82875 13.8977 7.25088C13.894 7.1999 13.8701 7.15244 13.8312 7.11895C13.7923 7.08546 13.7416 7.06868 13.6902 7.0723C13.6388 7.07592 13.591 7.09965 13.5572 7.13826C13.5235 7.17686 13.5066 7.22719 13.5102 7.27818C13.6742 9.57918 13.5103 11.8916 13.0232 14.1472C12.9242 13.7173 12.8602 13.2802 12.8318 12.8401L12.3669 9.25888C12.3654 9.20789 12.3435 9.15961 12.3061 9.12464C12.2686 9.08967 12.2188 9.07089 12.1674 9.07242C12.116 9.07395 12.0673 9.09566 12.0321 9.1328C11.9969 9.16993 11.9779 9.21943 11.9795 9.27041C11.9516 9.68831 11.9427 10.0778 11.9535 10.4465C11.4352 9.86718 11.0432 9.18785 10.8021 8.4511C10.5609 7.71436 10.4758 6.93611 10.5522 6.16519C10.5612 6.15701 10.5692 6.14785 10.5762 6.13789C10.9729 6.16595 11.3185 5.62272 11.3572 5.59466C11.7429 5.12499 12.0614 4.60479 12.3038 4.04878C12.3265 4.00289 12.3299 3.94994 12.3132 3.90156C12.2966 3.85318 12.2613 3.81334 12.215 3.79081C12.1688 3.76827 12.1154 3.76489 12.0667 3.7814C12.0179 3.79791 11.9778 3.83296 11.9551 3.87885C11.7812 3.99784 11.5954 4.0986 11.4006 4.17949C11.0322 4.37351 10.7263 4.66665 10.5181 5.02528C10.3927 4.16207 10.1017 3.33072 9.66066 2.57632C9.64214 2.54494 9.61504 2.51941 9.58248 2.50271C9.54993 2.486 9.51327 2.4788 9.47676 2.48194C9.44025 2.48508 9.40538 2.49843 9.37621 2.52044C9.34704 2.54246 9.32477 2.57223 9.31197 2.60631C9.10382 3.18391 9.06714 3.80865 9.20628 4.40633C9.34542 5.004 9.65454 5.54948 10.0969 5.97796C10.1194 6.00016 10.1471 6.01653 10.1775 6.02563C10.0708 6.94282 10.1791 7.87207 10.494 8.74088C10.8088 9.60968 11.3217 10.3946 11.9926 11.0343C12.3874 15.3036 12.3669 16.9299 16.2099 20.4591C16.0937 23.0234 16.1146 25.5993 16.1634 28.1482C15.0136 27.3517 13.9099 26.4918 12.8574 25.5724C11.7048 24.6294 10.6897 23.5322 9.84121 22.3122C8.9532 21.0051 8.45031 19.483 7.99739 17.9725C8.02802 17.9475 8.0502 17.9139 8.06093 17.876C8.46853 16.3813 8.45674 14.8045 8.02684 13.316C8.24806 13.2437 8.42202 12.95 8.60799 12.6044C8.90922 12.002 9.05739 11.3356 9.0396 10.6633C9.0396 10.6276 9.02958 10.5926 9.01067 10.5622C8.99175 10.5319 8.96469 10.5073 8.93251 10.4913C8.90034 10.4754 8.86431 10.4686 8.82848 10.4718C8.79265 10.475 8.75843 10.4881 8.72965 10.5095C8.43554 10.7231 8.18759 10.9931 8.00045 11.3035C7.81332 11.6138 7.69082 11.9583 7.64017 12.3164C7.60782 12.4477 7.58708 12.5814 7.57818 12.7163C7.0873 12.2372 6.81571 12.2438 5.50849 11.594C5.4746 11.5774 5.43653 11.571 5.39899 11.5755C5.36145 11.5801 5.32608 11.5955 5.29724 11.6198C5.2684 11.644 5.24736 11.6762 5.23671 11.7122C5.22605 11.7482 5.22626 11.7865 5.23729 11.8224C5.42101 12.4596 5.84263 13.0034 6.41626 13.3429C6.59603 13.4767 7.58671 13.815 7.74517 13.958C7.75787 13.9845 7.77641 14.0077 7.79941 14.0261C8.02652 15.1092 8.02757 16.227 7.80251 17.3105L7.64444 16.7622C7.63747 16.738 7.62574 16.7153 7.60994 16.6955C7.59413 16.6757 7.57455 16.6592 7.55232 16.6469C7.53009 16.6346 7.50563 16.6268 7.48036 16.6239C7.45508 16.621 7.42947 16.6231 7.405 16.63C7.38053 16.6369 7.35767 16.6485 7.33773 16.6642C7.31778 16.6799 7.30115 16.6993 7.28877 16.7214C7.2764 16.7435 7.26852 16.7677 7.26559 16.7928C7.26267 16.8179 7.26475 16.8433 7.27172 16.8676C7.63161 18.2493 8.0914 19.6036 8.64751 20.9197C7.28455 20.4492 6.14628 19.4931 5.45348 18.237C5.43008 18.1946 5.39145 18.1625 5.34528 18.1471C5.29911 18.1318 5.2488 18.1342 5.20436 18.154C4.88709 17.9162 4.51829 17.7552 4.12728 17.6838C3.55603 17.5463 2.96202 17.5295 2.38381 17.6346C2.34866 17.6403 2.3158 17.6556 2.28882 17.6787C2.26185 17.7018 2.24181 17.7318 2.23092 17.7654C2.22003 17.7991 2.2187 17.8351 2.22708 17.8694C2.23546 17.9038 2.25323 17.9352 2.27843 17.9602C2.65875 18.3561 3.15141 18.6279 3.69103 18.7395C3.78763 18.7741 3.88345 18.8038 3.97851 18.8287C3.46971 18.9833 3.00089 19.2459 2.60451 19.5982C2.20813 19.9505 1.89368 20.3841 1.68294 20.869C1.6704 20.8973 1.66495 20.9283 1.66706 20.9592C1.66917 20.9901 1.67878 21.02 1.69506 21.0465C1.71135 21.0729 1.73383 21.095 1.76059 21.111C1.78735 21.1269 1.8176 21.1362 1.84876 21.1381C2.66147 21.1946 3.47708 21.081 4.24274 20.8048C4.90494 20.5324 5.45698 20.0491 5.81186 19.4311C6.61022 20.3747 7.67698 21.0573 8.87261 21.3895C9.79959 23.1161 11.0696 24.6385 12.606 25.8645C13.7387 26.8537 14.9301 27.7746 16.1739 28.6222C16.3399 33.2837 16.27 37.9506 15.9643 42.6051C15.9097 43.4038 15.7266 44.1887 15.4219 44.9299C15.416 44.9438 15.412 44.9584 15.4098 44.9734C13.7782 45.5978 12.2552 46.472 10.8962 47.5642C10.6382 47.7728 10.3521 47.9447 10.0462 48.0747C9.6339 48.1082 9.2189 48.0761 8.81682 47.9798C6.11057 47.7433 4.04088 50.7986 1.78522 51.6663C0.626011 52.1403 0.0417557 52.7355 0.000299881 53.4863C-0.00255483 53.5372 0.0150624 53.5871 0.0492801 53.6251C0.0834978 53.6631 0.131516 53.686 0.182783 53.6889C0.234052 53.6917 0.284357 53.6743 0.322643 53.6403C0.360929 53.6063 0.384063 53.5587 0.386962 53.5078C0.419894 52.9196 0.9255 52.4337 1.92896 52.0235C4.21872 51.1423 6.3039 48.1436 8.75754 48.3589C9.20123 48.4642 9.65935 48.4964 10.1136 48.4542C10.4882 48.3157 10.8363 48.1148 11.143 47.8602C12.477 46.7892 13.9724 45.9329 15.5745 45.3228C18.3978 44.2906 18.8061 45.5977 20.2482 46.1936C22.689 47.2017 25.1024 45.5462 26.7249 48.2739C27.4828 49.4888 27.6052 50.0716 28.9794 51.0477C29.6652 51.5348 29.8705 51.7313 30.1328 52.8212C30.2925 53.4863 30.4219 53.7393 31.8349 54.0972C32.2278 54.1921 32.5948 54.3719 32.9096 54.6239C33.2244 54.8758 33.4792 55.1936 33.6558 55.5547C33.6666 55.5775 33.6819 55.598 33.7007 55.615C33.7196 55.632 33.7416 55.6451 33.7655 55.6537C33.7895 55.6622 33.8149 55.666 33.8403 55.6648C33.8657 55.6636 33.8906 55.6575 33.9136 55.6467C33.9367 55.636 33.9573 55.6208 33.9745 55.6021C33.9916 55.5835 34.0048 55.5616 34.0134 55.5379C34.0221 55.5141 34.0259 55.4889 34.0247 55.4637C34.0235 55.4385 34.0173 55.4137 34.0064 55.3909C33.8057 54.9786 33.5157 54.6154 33.157 54.3274C32.7983 54.0393 32.3799 53.8335 31.9317 53.7247C30.0542 53.2495 30.8903 53.1537 30.1108 51.6102C29.7621 51.0173 29.1852 50.7759 28.7268 50.3672C27.8284 49.6091 27.6653 49.0493 27.0566 48.0744C25.5247 45.4985 23.3643 46.4635 21.2338 46.0729C21.8258 45.2729 22.4972 44.1441 23.0013 43.6247C23.2258 43.4099 23.3752 43.1294 23.4275 42.8243C23.5174 42.2092 22.8173 41.7478 22.2857 41.4203C24.0257 38.4807 23.9265 38.6603 23.9354 38.6076C24.638 38.4166 25.284 38.0606 25.8187 37.5696C25.6904 38.718 26.0246 39.8702 26.7486 40.7751C27.5256 41.5658 28.4353 42.2162 29.437 42.6974C32.9221 44.4764 36.6229 45.8042 40.4487 46.648C38.2613 48.6649 36.0804 51.1365 35.6298 54.7119C35.2989 57.2266 37.1102 58.0624 39.6661 58.0624C45.0631 58.0624 52.2268 54.8211 56.6967 51.6855C56.6952 51.9946 56.6249 52.2996 56.491 52.5787C56.357 52.8578 56.1627 53.1042 55.9218 53.3002C55.4507 53.6643 54.8579 54.018 54.9707 54.6312C55.0011 54.8007 55.0804 54.9579 55.199 55.0837C55.3175 55.2095 55.4702 55.2986 55.6386 55.3401C56.5342 55.4317 57.4304 55.1728 58.1364 54.6185L58.2991 58.3185C58.2991 60.383 61.6156 62 65.8495 62C70.0834 62 73.3546 60.3826 73.3999 58.3269C73.4181 57.4846 73.4158 57.6011 73.4724 57.5749C73.5044 57.5603 73.5318 57.5372 73.5516 57.5082C73.5714 57.4792 73.5829 57.4454 73.5847 57.4104C74.0365 48.7841 74.0051 49.3634 73.9958 49.3234ZM27.2759 23.7316C26.8918 23.5908 26.5736 23.3144 26.3821 22.9554C26.5862 22.9964 26.7761 23.0896 26.9328 23.2257C27.0896 23.3619 27.2078 23.5362 27.2759 23.7316ZM30.306 22.0016C30.5382 22.0699 30.7551 22.1818 30.9449 22.331C30.6663 22.3833 30.3475 22.4967 30.2068 22.4983C29.3619 22.5381 28.5181 22.3974 27.7327 22.0857C28.1303 21.8892 28.566 21.7802 29.01 21.7662C29.454 21.7522 29.8958 21.8335 30.3053 22.0046L30.306 22.0016ZM27.6765 20.4384C28.0258 20.0722 28.4024 19.7326 28.8032 19.4226C28.4064 20.9155 28.0372 20.9543 27.1573 21.7763C27.1784 21.2865 27.3605 20.817 27.6757 20.4395L27.6765 20.4384ZM25.9656 18.4777C26.1449 18.0166 26.4337 17.6052 26.8075 17.2786C26.811 17.7434 26.7749 18.2076 26.6998 18.6664C26.6248 19.2168 26.3888 19.7333 26.021 20.152C25.836 19.6125 25.8164 19.0308 25.9648 18.4804L25.9656 18.4777ZM31.1053 7.96212C30.7824 8.14116 30.4455 8.29428 30.098 8.42C29.9159 8.49689 29.7346 8.57801 29.5211 8.66067C29.4258 8.71492 29.3215 8.75177 29.2131 8.76947C29.2606 8.6902 29.3036 8.60831 29.3417 8.52419C29.8555 8.15765 30.4725 7.96099 31.1053 7.96212ZM29.1681 7.14977C29.1747 7.29701 29.1902 7.51692 29.1949 7.56844C29.1726 7.81588 29.1134 8.05868 29.0193 8.2889C28.942 8.35635 28.871 8.43074 28.8074 8.51112C28.7641 8.27172 28.7741 8.02582 28.8367 7.79065C28.8992 7.55548 29.0129 7.33674 29.1697 7.14977H29.1681ZM27.8609 11.6294C28.2706 11.5508 28.6902 11.5371 29.1042 11.5887C29.1693 11.594 29.4858 11.6655 29.7415 11.7313C29.3043 11.9896 28.8175 12.1542 28.3123 12.2145C27.8241 12.205 27.3377 12.1512 26.8594 12.0538C27.1691 11.8619 27.507 11.7187 27.8609 11.6294ZM21.9292 12.5998C21.8905 12.7128 21.7642 13.1053 21.7642 13.1053C21.6309 13.3186 21.4582 13.5048 21.2551 13.6543C21.3538 13.2375 21.5913 12.866 21.9292 12.5998ZM19.7918 12.5898C20.1117 13.0012 20.374 13.4539 20.5713 13.9354C20.3327 13.7997 20.1348 13.6037 19.9976 13.3673C19.8604 13.1309 19.789 12.8626 19.7906 12.5898H19.7918ZM19.4438 14.2771C19.7617 14.3726 20.0709 14.4948 20.3679 14.6424C20.5502 14.74 20.7002 14.8878 20.7999 15.068C20.5281 15.0473 20.2646 14.9654 20.0296 14.8283C19.7946 14.6912 19.5942 14.5027 19.4438 14.2771ZM19.6662 4.43323C19.5547 4.10083 19.5188 3.74801 19.5612 3.4002C19.7112 3.60781 19.915 3.86578 19.9677 3.96266C20.2335 4.35121 20.3802 4.80792 20.39 5.27748C20.0942 5.04684 19.8481 4.75962 19.6662 4.43284V4.43323ZM16.1018 0.855127C16.1894 1.02235 16.2888 1.1832 16.3994 1.33646C16.5542 1.64442 16.6441 1.98049 16.6636 2.32412C16.4617 2.1391 16.3059 1.91005 16.2085 1.65506C16.111 1.40006 16.0746 1.12608 16.1022 0.854743L16.1018 0.855127ZM18.2749 1.11502C18.1738 1.37645 18.0572 1.63864 17.9262 1.89892C17.7647 2.2274 17.4816 2.48126 17.1359 2.60746C17.2157 2.11383 17.7682 1.52408 18.2753 1.11463L18.2749 1.11502ZM16.1564 4.54703C16.0647 4.54703 15.9733 4.53408 15.8852 4.50858C16.2707 4.35669 16.6929 4.3219 17.0983 4.40862C16.8019 4.5357 16.4772 4.58342 16.1564 4.54703ZM21.9161 2.95309C21.74 3.46473 21.4269 3.91913 21.0102 4.26753C21.0572 3.99672 21.1624 3.73912 21.3187 3.5123C21.475 3.28547 21.6788 3.09473 21.9161 2.95309ZM10.8021 5.29094C10.9656 5.02036 11.1784 4.78232 11.4297 4.58893C11.4607 4.57355 11.4684 4.56971 11.6513 4.48513C11.3611 4.98953 10.7013 5.87992 10.5967 5.74498C10.5944 5.71384 10.5924 5.6827 10.5897 5.65156C10.6401 5.5206 10.7118 5.39876 10.8021 5.29094ZM9.55101 3.18453C9.90092 3.91543 10.1172 4.70219 10.1899 5.50816C9.91825 5.19101 9.72021 4.81846 9.6098 4.41691C9.4994 4.01536 9.47933 3.59463 9.55101 3.18453ZM8.02025 12.386C8.0851 11.9071 8.29943 11.4604 8.63318 11.1085C8.60167 11.5018 8.51023 11.8881 8.36197 12.2541C8.24409 12.4796 8.11264 12.6979 7.96833 12.9077C7.96028 12.7322 7.97777 12.5565 8.02025 12.386ZM6.63051 13.0207C6.27955 12.8177 5.99226 12.522 5.80062 12.1665C6.92032 12.6786 7.2384 12.7143 7.5623 13.4263C7.24925 13.2883 6.73473 13.0961 6.63051 13.0207ZM2.87237 17.9629C3.26237 17.932 3.65484 17.9637 4.03468 18.0567C4.39855 18.1122 4.73867 18.2703 5.01451 18.5123C4.60164 18.5704 4.18064 18.5214 3.79254 18.37C3.45854 18.3057 3.14379 18.1665 2.87237 17.9629ZM4.10713 20.4449C3.48592 20.6699 2.82799 20.7783 2.16685 20.7648C2.41984 20.2984 2.78371 19.9003 3.2269 19.6051C3.67008 19.3099 4.17918 19.1265 4.70999 19.0709C5.28339 18.994 5.46355 19.0874 5.47944 19.1478C5.54336 19.405 4.76035 20.1977 4.10713 20.4449ZM55.4557 41.5675C55.6381 41.5629 55.8196 41.542 55.9982 41.5052L57.9547 43.7181C57.7645 44.0412 57.6782 44.4142 57.7071 44.7873L57.8664 48.4011L55.4557 41.5675ZM42.3026 26.2278C42.3638 25.3771 42.4553 24.4951 42.5316 23.3348C42.5273 23.1738 42.563 23.0141 42.6356 22.87C42.7082 22.7258 42.8154 22.6016 42.9477 22.5083C43.2716 22.4625 43.1329 23.3806 43.0868 23.9776L42.5878 30.4949C42.4471 31.4864 42.1198 31.6013 41.8284 31.6709C41.9636 31.2784 42.262 26.7661 42.3007 26.2267L42.3026 26.2278ZM25.7261 35.4643C25.7415 35.5028 25.7439 35.5451 25.7331 35.585C25.6021 36.0022 24.5592 36.8341 24.0075 37.0167C23.9687 37.0287 23.9056 37.0363 23.7862 36.9641C23.4763 36.5277 23.7707 35.3878 24.1477 34.77C24.2061 34.8214 24.2787 34.8541 24.3562 34.8639C24.4336 34.8736 24.5122 34.8599 24.5816 34.8246C24.5937 34.9369 24.6473 35.0408 24.732 35.1163C24.8167 35.1918 24.9265 35.2334 25.0404 35.2333C25.1068 35.2284 25.1687 35.1982 25.2132 35.1491C25.2647 35.1106 25.2403 35.1022 25.2647 35.2087C25.2757 35.2569 25.2967 35.3024 25.3266 35.342C25.3564 35.3816 25.3944 35.4146 25.4379 35.4387C25.4814 35.4628 25.5296 35.4776 25.5793 35.482C25.6289 35.4864 25.679 35.4804 25.7261 35.4643ZM40.1775 31.1658C40.7005 30.8589 41.1873 30.495 41.6289 30.0808C41.5894 30.4889 41.5475 30.8874 41.5033 31.2765C41.5097 31.4152 41.4735 31.5525 41.3998 31.6704C41.326 31.7884 41.218 31.8814 41.09 31.9373L39.3046 32.9819C35.3295 32.431 36.1094 33.5382 40.1775 31.1658ZM61.5346 34.8973C61.6509 34.6631 61.5618 34.7619 61.6195 32.0611C61.7024 30.4631 61.5932 28.861 61.2944 27.2885C62.5389 28.6011 63.3378 28.9494 63.5284 30.7021C63.8891 33.7439 66.2323 36.5404 65.7499 39.6514C65.746 39.6795 65.7484 39.7081 65.7569 39.7352C64.6043 40.4026 64.3292 40.4872 63.9209 41.0593C63.2375 41.133 62.5599 41.2522 61.8926 41.416C62.2453 39.3084 62.0483 37.1463 61.3204 35.1356C61.4144 35.0796 61.489 34.9964 61.5342 34.8973H61.5346ZM68.6716 45.6008C69.8521 45.7741 71.0052 46.0971 72.1028 46.5619C69.1939 48.2412 63.5245 48.4254 60.1213 46.8345C62.4552 45.394 66.1099 45.2559 68.6712 45.6008H68.6716ZM67.1932 41.0012C66.9978 41.0481 66.8148 41.1357 66.6562 41.2583C66.4977 41.3809 66.3673 41.5356 66.2738 41.7121C66.1145 42.0469 66.2474 42.4748 66.2373 42.7939C66.2323 42.9646 66.1808 43.0311 66.1637 43.035C66.1467 43.0388 66.1041 43.0146 66.0688 42.9438C65.8609 42.5286 65.7569 42.0699 65.7654 41.6063C65.7654 41.5553 65.745 41.5065 65.7087 41.4704C65.6724 41.4344 65.6231 41.4141 65.5717 41.4141C65.5203 41.4141 65.4711 41.4344 65.4347 41.4704C65.3984 41.5065 65.378 41.5553 65.378 41.6063C65.378 41.6063 65.3819 42.7174 65.3842 42.7639C65.4086 43.3325 64.917 43.3114 64.9282 42.6601C64.9356 42.2372 64.9522 41.8262 64.9782 41.4352C64.9825 41.3843 64.9662 41.3337 64.9329 41.2946C64.8997 41.2555 64.8521 41.2312 64.8007 41.2269C64.7494 41.2226 64.6984 41.2387 64.659 41.2718C64.6196 41.3048 64.5951 41.352 64.5907 41.403L64.4524 42.7324C64.4346 42.7043 64.4204 42.6741 64.4102 42.6424C64.2165 42.1161 64.0735 41.6463 64.2471 41.2584C64.4566 40.9656 64.7387 40.7314 65.0661 40.5783L66.4318 39.7875C67.0907 39.8738 67.7427 40.0058 68.383 40.1823C68.326 40.8121 67.8979 40.7659 67.1928 41.0012H67.1932ZM51.3923 9.41804C51.491 9.41799 51.5886 9.43975 51.6778 9.48173C51.767 9.5237 51.8457 9.58485 51.9081 9.66074C51.9706 9.73663 52.0153 9.82536 52.0389 9.92049C52.0625 10.0156 52.0645 10.1148 52.0447 10.2108C51.8804 10.8864 51.5296 11.5032 51.0316 11.9919C51.3059 11.11 50.4392 9.41804 51.3923 9.41804ZM47.3416 17.9621C47.3877 18.1455 47.6651 18.0997 47.6651 17.8702L47.3877 16.2171C47.3416 16.1252 47.2951 16.0791 47.2025 16.1252C45.4312 16.6938 43.0926 15.3252 42.5273 11.822C42.5846 11.5487 42.6862 11.2865 42.828 11.0454C43.3014 10.3596 44.1743 9.90591 44.6633 9.13547C44.7973 9.47186 45.2983 9.58066 45.7942 8.88327C46.0832 9.64602 47.344 9.70715 47.7182 7.85101C48.1054 8.25912 48.4212 8.72844 48.6527 9.23965C48.8551 9.61425 49.0027 10.0156 49.0909 10.4315C49.0909 11.0827 49.0762 11.8658 49.729 11.9308C49.4919 12.6367 48.9983 13.7251 49.4109 14.3167C49.4876 14.4201 49.5888 14.5032 49.7056 14.5586C49.8223 14.6139 49.951 14.6399 50.0803 14.6342C50.2095 14.6285 50.3354 14.5913 50.4467 14.5259C50.558 14.4604 50.6514 14.3688 50.7185 14.2591C50.7858 14.3399 50.8641 14.411 50.951 14.4705C51.1165 14.9725 51.3404 15.4536 51.6182 15.9041C51.6315 15.9256 51.649 15.9443 51.6697 15.9591C51.6903 15.9739 51.7137 15.9846 51.7384 15.9904C51.7632 15.9962 51.7889 15.9972 51.814 15.9931C51.8392 15.9891 51.8633 15.9802 51.8849 15.967C51.9066 15.9537 51.9254 15.9364 51.9403 15.9159C51.9553 15.8954 51.966 15.8722 51.9718 15.8477C51.9777 15.8231 51.9787 15.7976 51.9746 15.7727C51.9706 15.7477 51.9616 15.7238 51.9483 15.7023C51.8491 15.5424 51.758 15.3797 51.6736 15.2098C51.9502 15.168 52.2266 15.1331 52.5027 15.1049C52.3516 17.3731 51.3443 19.3584 49.7949 20.225C49.4676 20.3941 49.1097 20.4969 48.7421 20.5275C48.3744 20.5581 48.0042 20.5159 47.6531 20.4034C47.4205 20.3114 47.2103 20.1712 47.0366 19.9922C46.8629 19.8132 46.7296 19.5995 46.6458 19.3654C46.3783 18.6275 46.3406 17.8269 46.5377 17.0675C46.7423 17.0037 46.9489 16.9438 47.1576 16.888L47.3416 17.9621ZM25.2728 32.133C25.675 31.9385 26.1347 31.8962 26.5661 32.0139C27.3231 32.2203 28.0155 32.5317 28.2937 33.1176C28.4335 33.4117 28.4874 33.9907 28.2162 34.0787C27.8179 34.2106 27.4181 34.3582 26.9725 34.492C26.9001 34.4863 26.8652 34.4659 26.8602 34.4536C26.8439 34.4113 26.8842 34.2552 27.1128 34.0438C27.3109 33.9145 27.5244 33.8103 27.7486 33.7335C27.7967 33.7156 27.8357 33.6795 27.857 33.633C27.8783 33.5866 27.8801 33.5337 27.8621 33.4859C27.844 33.4382 27.8076 33.3994 27.7608 33.3783C27.714 33.3572 27.6607 33.3554 27.6126 33.3733C27.0717 33.53 26.5967 33.8566 26.2589 34.304C26.1061 34.604 25.8933 34.87 25.6335 35.0856C25.563 34.6243 26.0272 33.8258 26.3484 33.4156C26.3769 33.3791 26.3913 33.3337 26.3889 33.2876C26.3865 33.2415 26.3674 33.1978 26.3352 33.1645C26.303 33.1312 26.2598 33.1105 26.2135 33.1062C26.1672 33.1019 26.1208 33.1143 26.083 33.1411C25.7375 33.3764 25.472 33.7102 25.3216 34.0984C25.2321 34.3519 25.1218 34.5977 24.9919 34.8334C24.9532 34.7984 24.9532 34.69 24.9532 34.6412C25.0052 34.0115 25.1719 33.3964 25.4452 32.8258C25.4644 32.7848 25.4684 32.7384 25.4565 32.6948C25.4446 32.6512 25.4176 32.6131 25.3802 32.5873C25.3429 32.5614 25.2975 32.5495 25.2522 32.5535C25.2068 32.5576 25.1643 32.5773 25.1322 32.6094C24.7317 33.0341 24.498 33.5872 24.4735 34.1683C24.4735 34.5297 24.3573 34.5585 24.3488 34.3186C24.2333 33.6535 24.4937 32.5413 25.2728 32.133ZM18.7027 41.4299C18.7903 41.1713 18.9692 40.9528 19.2063 40.8147C18.8522 42.1915 18.5926 43.3821 18.3993 44.5113C18.2301 44.038 18.108 43.5495 18.0347 43.0526C18.2269 42.4999 18.4499 41.9581 18.7027 41.4299ZM27.907 4.78346C27.9925 4.6799 28.0967 4.59307 28.2143 4.52742C27.993 4.91187 27.8078 5.18906 27.4735 5.28979C27.5984 5.10543 27.7438 4.93559 27.907 4.78346ZM26.6595 3.47633C26.9694 4.27368 27.1077 4.31789 27.1174 4.61008C27.0965 4.71311 27.0752 4.81807 27.0581 4.92379C26.8917 4.72449 26.7701 4.49224 26.7013 4.24256C26.6326 3.99289 26.6183 3.73153 26.6595 3.47594V3.47633ZM22.7235 43.3583C22.1613 43.9373 21.4116 45.2117 20.8223 45.9791C20.3103 45.83 19.8312 45.5863 19.4101 45.2609C20.4472 44.1766 21.6778 43.2924 23.0396 42.6532C23.0406 42.7863 23.0129 42.9181 22.9584 43.0397C22.9039 43.1613 22.8238 43.2699 22.7235 43.3583ZM22.8475 42.3183C21.4294 42.9855 20.1522 43.9142 19.0839 45.0549C18.9704 44.9861 18.8542 44.9207 18.7352 44.8626C18.9367 43.6236 19.2187 42.3191 19.6186 40.7786C19.6858 40.7889 19.7516 40.8064 19.815 40.8309C20.9351 41.0677 21.9777 41.579 22.8475 42.3183ZM21.0316 40.7982L22.5887 38.1455C22.6886 38.291 22.821 38.4118 22.9755 38.4984C23.13 38.5851 23.3026 38.6353 23.4798 38.6453L21.9517 41.2273C21.6549 41.0643 21.3475 40.9209 21.0316 40.7982ZM40.9877 57.6219C38.1718 57.8356 35.6496 57.5246 36.013 54.7611C36.3779 51.8616 37.8847 49.6814 40.1012 47.5134C42.2145 45.517 44.4548 43.6572 46.8081 41.9454C46.8322 41.928 46.8518 41.9053 46.8655 41.8791C46.8793 41.8529 46.8868 41.8239 46.8874 41.7944C46.8881 41.7649 46.8818 41.7356 46.8692 41.7089C46.8566 41.6821 46.838 41.6586 46.8147 41.6402C46.3481 41.2656 45.8371 40.949 45.2933 40.6971C45.2467 40.6773 45.1942 40.6764 45.147 40.6946C45.0998 40.7127 45.0617 40.7485 45.0407 40.7942C45.0197 40.8399 45.0176 40.892 45.0349 40.9392C45.0521 40.9865 45.0873 41.0251 45.1329 41.047C45.5714 41.249 45.987 41.4969 46.3727 41.7863C45.4796 42.4398 44.5955 43.1222 43.709 43.8415C43.6925 43.8169 43.6705 43.7964 43.6447 43.7816C43.6189 43.7668 43.59 43.7581 43.5603 43.7562C38.3401 43.4248 33.2692 41.8933 28.7481 39.2827C28.7261 39.2683 28.7013 39.2584 28.6753 39.2538C28.6493 39.2492 28.6227 39.25 28.597 39.256C28.5713 39.262 28.5471 39.2731 28.5259 39.2887C28.5047 39.3044 28.4869 39.3241 28.4737 39.3468C28.4605 39.3695 28.4521 39.3946 28.449 39.4206C28.4459 39.4466 28.4482 39.473 28.4557 39.4981C28.4633 39.5232 28.476 39.5465 28.4929 39.5666C28.5099 39.5867 28.5308 39.6031 28.5544 39.6149C33.0757 42.2253 38.1412 43.7695 43.3596 44.1283C42.4413 44.8834 41.5138 45.6861 40.8025 46.3282C36.9133 45.4961 33.1517 44.1588 29.6148 42.351C28.6586 41.8932 27.7894 41.2746 27.0457 40.5226C26.6911 40.0772 26.4367 39.5615 26.2996 39.0104C26.1626 38.4592 26.1462 37.8853 26.2515 37.3274C26.2595 37.2863 26.2538 37.2438 26.2352 37.2063C27.0365 36.5245 27.6886 35.6871 28.1515 34.7458C28.8173 34.3817 29.5161 34.0806 30.2386 33.8462C31.9665 33.8257 33.6861 33.6036 35.3617 33.1845C37.1252 33.1027 38.8921 33.2421 40.6204 33.5993C41.6025 33.9434 42.5157 34.5632 43.4661 34.9861C48.4881 37.2862 56.5731 38.5845 60.9953 35.3755C61.687 37.3505 61.8543 39.469 61.4812 41.5267C59.9473 41.9635 58.7842 42.619 58.174 43.3887L56.3999 41.381C57.4902 40.9197 56.9698 39.8997 55.3461 39.8997C53.3252 39.8997 53.1455 41.3853 55.0392 41.556L57.1814 47.6345C52.197 52.168 46.5443 54.8338 40.3786 55.557C40.3282 55.5637 40.2825 55.5898 40.2514 55.6296C40.2202 55.6695 40.2061 55.7199 40.212 55.77C40.218 55.8201 40.2435 55.8658 40.2832 55.8974C40.3228 55.929 40.3734 55.9438 40.4239 55.9387C46.6229 55.2117 52.3051 52.5509 57.3205 48.029C57.8904 49.646 57.8466 49.5637 57.9156 49.6133L57.9446 50.2715C53.2272 54.0476 45.9504 57.204 40.9877 57.6219ZM56.4243 54.9611C55.9613 55.0379 55.4282 55.0245 55.3515 54.5655C55.2822 54.1872 55.7626 53.9092 56.1597 53.6043C56.4811 53.3421 56.7327 53.0056 56.8923 52.6243C57.0518 52.2429 57.1145 51.8286 57.0748 51.4176C57.3801 51.1969 57.6772 50.9735 57.966 50.7475L58.1155 54.1483C57.6283 54.5541 57.0472 54.8334 56.4243 54.9611ZM73.0117 58.3185C73.0117 60.1366 69.7987 61.6156 65.8487 61.6156C61.8988 61.6156 58.6858 60.1366 58.6858 58.3093L58.1384 45.8553C60.6087 49.1347 71.0873 49.1366 73.5584 45.8553L73.4255 48.8759C72.6727 48.3681 72.706 48.3689 72.5991 48.3988L71.2113 48.766C71.1766 48.7751 71.1451 48.7936 71.1204 48.8194C71.0957 48.8452 71.0787 48.8774 71.0713 48.9122C71.0639 48.947 71.0664 48.9832 71.0786 49.0168C71.0907 49.0503 71.1119 49.0798 71.14 49.102L72.2248 49.9624L72.0036 57.6034L71.028 58.1505C70.9908 58.1714 70.9616 58.2039 70.945 58.243C70.9284 58.2821 70.9253 58.3256 70.9362 58.3666C70.9471 58.4077 70.9713 58.444 71.0052 58.4699C71.039 58.4958 71.0806 58.5099 71.1233 58.5099C71.5136 58.4094 71.8959 58.2809 72.2674 58.1255L73.0357 57.7737L73.0117 58.3185Z" fill="black"/>
</svg>
